<svg width="394" height="268" viewBox="0 0 394 268" fill="none" xmlns="http://www.w3.org/2000/svg">
<path d="M211.554 244.014L162.254 242.467V167.935L211.554 168.409V244.014Z" fill="#011859"/>
<path d="M242.671 251.892C242.671 244.378 217.405 237.544 186.729 236.644C156.589 235.757 132.54 240.954 132.54 248.228C132.54 255.502 156.603 262.301 186.729 263.422C217.405 264.563 242.671 259.407 242.671 251.892Z" fill="#011859"/>
<path d="M162.254 250.875C170.36 252.11 178.533 252.859 186.729 253.116C195.008 253.42 203.298 253.227 211.554 252.539" stroke="white" stroke-width="0.6875" stroke-miterlimit="10"/>
<path d="M343.644 225.561L327.996 225.169V0.968733L343.651 0.391235H344.125C350.718 0.391235 355.881 5.12811 355.881 11.1781V214.678C355.881 220.701 350.533 225.609 343.96 225.609L343.644 225.561Z" fill="white"/>
<path d="M344.125 0.205642V0.549392C350.622 0.549392 355.709 5.21064 355.709 11.1644V214.664C355.709 220.598 350.436 225.424 343.96 225.424H343.623L328.141 225.032V1.13377L343.63 0.556268H344.125V0.212518M344.125 0.212518H343.616L327.804 0.796892V225.334L343.616 225.733H343.96C350.656 225.733 356.053 220.824 356.053 214.63V11.13C356.053 4.98377 350.746 0.171265 344.125 0.171265V0.212518Z" fill="#011859"/>
<path d="M52.7831 11.0063L331.888 0.625016C338.336 0.384391 343.575 5.00439 343.575 10.9375V214.974C343.575 220.914 338.329 225.596 331.888 225.431L52.7625 218.425C50.1249 218.352 47.6189 217.257 45.7731 215.372C43.9273 213.486 42.8862 210.957 42.8694 208.319V21.25C42.8851 18.5946 43.9246 16.0476 45.7713 14.1394C47.618 12.2312 50.1296 11.1089 52.7831 11.0063Z" fill="#011859"/>
<path d="M324.339 25.4713V200.688C324.339 206.93 318.839 211.873 312.115 211.729L69.8125 206.552C67.0089 206.495 64.3377 205.348 62.3651 203.355C60.3925 201.362 59.2736 198.679 59.2456 195.875V33.5081C59.2757 30.6905 60.3907 27.9928 62.3587 25.9761C64.3268 23.9594 66.9964 22.7789 69.8125 22.68L312.122 14.5744C318.852 14.375 324.339 19.2288 324.339 25.4713Z" fill="white" stroke="#9C92DC" stroke-width="0.6875" stroke-miterlimit="10"/>
<path d="M182.872 215.331C182.899 216.339 183.316 217.298 184.035 218.004C184.755 218.711 185.72 219.111 186.729 219.119C187.221 219.144 187.714 219.07 188.177 218.901C188.641 218.731 189.065 218.471 189.426 218.134C189.786 217.797 190.075 217.391 190.276 216.94C190.476 216.49 190.584 216.003 190.592 215.51C190.566 214.501 190.148 213.541 189.427 212.834C188.706 212.128 187.738 211.729 186.729 211.722C186.237 211.698 185.745 211.773 185.282 211.943C184.82 212.112 184.396 212.373 184.036 212.71C183.676 213.047 183.388 213.452 183.188 213.902C182.988 214.353 182.88 214.839 182.872 215.331Z" fill="#C3E6E6"/>
<path d="M202.115 222.172L210.695 222.392V209.57L202.115 209.391V222.172Z" stroke="#6B6CE3" stroke-width="0.6875" stroke-miterlimit="10"/>
<path d="M324.339 25.4713V35.7838L59.2456 43.03V33.5081C59.2757 30.6905 60.3907 27.9928 62.3587 25.9761C64.3268 23.9594 66.9964 22.7789 69.8125 22.68L312.122 14.5744C318.852 14.375 324.339 19.2288 324.339 25.4713Z" fill="#D0DAFD"/>
<path opacity="0.75" d="M80.1249 32.3944C80.1148 33.4699 79.6891 34.4999 78.9369 35.2687C78.1847 36.0376 77.1644 36.4857 76.0893 36.5194C75.5679 36.5407 75.0475 36.4563 74.5595 36.2714C74.0715 36.0864 73.6259 35.8047 73.2495 35.4432C72.8732 35.0816 72.5739 34.6476 72.3695 34.1674C72.1652 33.6872 72.0601 33.1706 72.0605 32.6488C72.0706 31.5744 72.4953 30.5454 73.2461 29.7767C73.9968 29.0081 75.0154 28.5592 76.0893 28.5238C76.6113 28.5015 77.1324 28.5851 77.6212 28.7696C78.1101 28.9542 78.5565 29.2357 78.9335 29.5974C79.3106 29.9591 79.6106 30.3933 79.8153 30.874C80.0201 31.3547 80.1254 31.8719 80.1249 32.3944Z" fill="#5559BC"/>
<path d="M91.9844 32.0369C91.9689 33.1154 91.5377 34.1464 90.7808 34.9149C90.0238 35.6834 88.9995 36.1301 87.9212 36.1619C87.3971 36.1841 86.8739 36.1001 86.383 35.915C85.8921 35.7299 85.4438 35.4474 85.0649 35.0845C84.686 34.7217 84.3844 34.286 84.1782 33.8036C83.972 33.3212 83.8654 32.8021 83.865 32.2775C83.8804 31.2001 84.3106 30.1701 85.0661 29.4018C85.8216 28.6334 86.8442 28.186 87.9212 28.1525C88.4459 28.1293 88.9699 28.2125 89.4616 28.3973C89.9533 28.582 90.4024 28.8643 90.7821 29.2272C91.1617 29.5902 91.464 30.0262 91.6706 30.5091C91.8772 30.9919 91.9839 31.5116 91.9844 32.0369ZM103.899 31.6725C103.878 32.7599 103.436 33.7969 102.667 34.5659C101.898 35.335 100.861 35.7764 99.7737 35.7975C99.2469 35.8207 98.7208 35.7371 98.2271 35.5517C97.7334 35.3664 97.2823 35.0832 96.9008 34.7191C96.5193 34.3549 96.2154 33.9175 96.0074 33.4329C95.7993 32.9483 95.6913 32.4267 95.69 31.8994C95.7107 30.8189 96.1464 29.7879 96.9066 29.0199C97.6669 28.2519 98.6935 27.806 99.7737 27.7744C100.304 27.7454 100.834 27.8247 101.333 28.0075C101.832 28.1902 102.288 28.4725 102.674 28.8372C103.06 29.2019 103.367 29.6414 103.578 30.1288C103.788 30.6163 103.898 31.1415 103.899 31.6725Z" fill="white"/>
<path d="M117.092 21.0988V207.563L69.8125 206.552C67.0089 206.495 64.3377 205.348 62.3651 203.355C60.3925 201.362 59.2736 198.679 59.2456 195.875V33.5081C59.2757 30.6905 60.3907 27.9928 62.3587 25.9761C64.3268 23.9594 66.9964 22.7789 69.8125 22.68L117.092 21.0988Z" stroke="#9C92DC" stroke-width="0.6875" stroke-miterlimit="10"/>
<path d="M385.32 249.445L309.846 247.08C308.568 247.079 307.34 246.586 306.416 245.702C305.493 244.819 304.946 243.613 304.889 242.336V184.758C304.913 184.134 305.061 183.521 305.324 182.955C305.587 182.388 305.96 181.88 306.421 181.459C306.882 181.038 307.422 180.713 308.011 180.502C308.599 180.292 309.223 180.201 309.846 180.234L385.32 181.19C388.18 181.224 390.497 183.356 390.497 185.948V244.908C390.497 247.506 388.18 249.534 385.32 249.445Z" fill="#D0DAFD"/>
<path d="M374.409 241.834L299.382 239.634C298.112 239.634 296.892 239.143 295.974 238.264C295.057 237.386 294.515 236.187 294.46 234.918V177.498C294.483 176.877 294.629 176.267 294.889 175.703C295.15 175.138 295.52 174.632 295.978 174.211C296.436 173.791 296.972 173.466 297.557 173.255C298.141 173.044 298.762 172.951 299.382 172.981L374.409 173.786C377.249 173.786 379.559 175.938 379.559 178.523V237.304C379.559 239.875 377.256 241.938 374.409 241.834Z" fill="white" stroke="#011859" stroke-width="0.34375" stroke-miterlimit="10"/>
<path d="M326.078 226.613L313.607 226.297V201.794L326.078 202.028V226.613Z" fill="#FF9D9C"/>
<path d="M338.632 226.936L326.078 226.613V191.984L338.632 192.183V226.936Z" fill="#FFC5CB"/>
<path d="M351.282 227.259L338.632 226.936V198.048L351.282 198.268V227.259Z" fill="#FF9D9C"/>
<path d="M364.014 227.583L351.282 227.259V194.108L364.014 194.314V227.583Z" fill="#FFC5CB"/>
<path d="M370.443 227.747L304.993 226.077V186.759M303.198 191.626L307.942 191.702M303.198 198.061L306.271 198.109M303.198 204.489L307.942 204.586M303.198 210.924L306.271 210.993M303.198 217.359L307.942 217.469" stroke="#6B6CE3" stroke-width="0.6875" stroke-miterlimit="10"/>
<path d="M170.401 221.381L203.215 222.206" stroke="white" stroke-width="0.6875" stroke-miterlimit="10"/>
<path d="M367.177 149.166L290.232 148.864C285.076 148.864 280.909 144.945 280.909 140.153V88.13C280.909 83.3175 285.076 79.3919 290.232 79.3094L367.177 78.1131C372.574 78.0306 376.953 81.9494 376.953 86.8719V140.291C376.953 145.213 372.574 149.187 367.177 149.166Z" fill="#D0DAFD"/>
<path d="M368.126 104.823V141.886L289.331 141.734V105.469L368.126 104.823Z" fill="#9C92DC"/>
<path d="M349.927 137.857L273.704 137.788C268.596 137.788 264.471 133.911 264.471 129.146V77.3706C264.471 72.5994 268.596 68.66 273.704 68.5638L349.927 67.1475C355.269 67.0513 359.614 70.9356 359.614 75.8375V129.002C359.614 133.89 355.269 137.857 349.927 137.857Z" fill="white" stroke="#9C92DC" stroke-width="0.6875" stroke-miterlimit="10"/>
<path d="M350.862 93.7194V130.611L272.804 130.7V94.6062L350.862 93.7194Z" fill="#FF9D9C"/>
<path d="M285.11 82.4375C285.062 83.6605 284.537 84.8162 283.648 85.6576C282.759 86.4991 281.576 86.9595 280.353 86.9406C279.753 86.9701 279.154 86.8801 278.59 86.6759C278.026 86.4717 277.508 86.1573 277.067 85.751C276.625 85.3448 276.269 84.8547 276.019 84.3095C275.768 83.7642 275.629 83.1746 275.609 82.575C275.657 81.3543 276.18 80.2007 277.066 79.3597C277.952 78.5186 279.131 78.0566 280.353 78.0718C280.953 78.0404 281.554 78.129 282.119 78.3324C282.685 78.5358 283.205 78.8499 283.647 79.2563C284.09 79.6628 284.448 80.1535 284.699 80.6997C284.95 81.2459 285.09 81.8366 285.11 82.4375Z" fill="#6B6CE3"/>
<path d="M290.273 80.32L308.458 80.0381M290.273 84.3625L314.494 84.0187" stroke="#6B6CE3" stroke-width="0.6875" stroke-miterlimit="10"/>
<path d="M350.862 118.112V130.611L272.804 130.7V122.677C289.647 106.177 298.606 97.8306 307.048 106.005C316.316 114.942 320.461 120.443 325.961 115.534C331.461 110.625 337.037 104.046 347.789 114.791C348.889 115.882 349.914 116.989 350.862 118.112Z" fill="#FFC5CB"/>
<path d="M319.636 102.767C319.658 103.311 319.788 103.846 320.018 104.34C320.247 104.833 320.573 105.277 320.975 105.645C321.377 106.012 321.848 106.296 322.36 106.481C322.873 106.666 323.417 106.747 323.961 106.72C325.068 106.754 326.144 106.35 326.956 105.596C327.768 104.842 328.25 103.798 328.299 102.691C328.277 102.146 328.147 101.61 327.916 101.115C327.686 100.62 327.359 100.176 326.955 99.8084C326.552 99.4407 326.079 99.1568 325.565 98.973C325.051 98.7893 324.506 98.7095 323.961 98.7381C322.855 98.7082 321.783 99.1138 320.974 99.8674C320.165 100.621 319.685 101.662 319.636 102.767Z" fill="white"/>
<path d="M273.148 197.766L238.532 197.154C237.298 197.162 236.111 196.687 235.222 195.832C234.333 194.977 233.814 193.808 233.774 192.575V165.969C233.791 165.363 233.928 164.766 234.177 164.213C234.425 163.66 234.781 163.161 235.223 162.747C235.666 162.332 236.186 162.009 236.754 161.796C237.322 161.583 237.926 161.485 238.532 161.507L273.148 161.768C274.399 161.74 275.61 162.205 276.521 163.063C277.432 163.921 277.968 165.103 278.015 166.354V193.29C277.997 193.906 277.855 194.512 277.599 195.072C277.343 195.633 276.978 196.136 276.524 196.553C276.071 196.97 275.538 197.292 274.958 197.501C274.378 197.709 273.763 197.799 273.148 197.766Z" fill="#6B6CE3"/>
<path d="M267.771 179.698C267.766 181.235 267.432 182.753 266.792 184.15C266.152 185.546 265.22 186.79 264.059 187.797C261.763 189.796 258.804 190.865 255.761 190.794C252.707 190.757 249.772 189.603 247.511 187.549C246.36 186.52 245.437 185.26 244.803 183.852C244.168 182.444 243.835 180.919 243.826 179.375V178.619C244.037 175.8 245.345 173.176 247.469 171.311C249.746 169.307 252.687 168.224 255.719 168.272C258.786 168.288 261.739 169.431 264.018 171.482C266.16 173.393 267.481 176.059 267.703 178.921C267.764 179.189 267.771 179.444 267.771 179.698Z" stroke="white" stroke-width="1.375" stroke-miterlimit="10"/>
<path d="M267.744 178.942C265.434 179.217 262.993 179.402 260.47 179.499C258.93 179.554 257.358 179.572 255.754 179.554C254.15 179.535 252.582 179.478 251.051 179.382C248.549 179.231 246.136 178.983 243.846 178.646C244.058 175.827 245.366 173.203 247.49 171.338C249.767 169.335 252.708 168.251 255.74 168.299C258.806 168.315 261.759 169.458 264.038 171.51C266.187 173.416 267.515 176.079 267.744 178.942Z" stroke="white" stroke-width="1.375" stroke-miterlimit="10"/>
<path d="M255.754 168.293C258.82 168.309 261.773 169.451 264.052 171.503C262.823 172.59 261.384 173.414 259.824 173.923C257.176 174.782 254.319 174.751 251.691 173.834C250.137 173.293 248.708 172.444 247.49 171.338C249.769 169.329 252.716 168.243 255.754 168.293ZM264.059 187.804C261.763 189.803 258.804 190.872 255.761 190.801C252.706 190.764 249.772 189.61 247.511 187.556C248.731 186.478 250.161 185.664 251.711 185.164C253.023 184.739 254.396 184.535 255.774 184.559C257.161 184.576 258.536 184.82 259.844 185.281C261.404 185.832 262.837 186.69 264.059 187.804Z" stroke="white" stroke-width="1.375" stroke-miterlimit="10"/>
<path d="M260.47 179.609C260.47 185.831 258.359 190.842 255.754 190.801C253.148 190.76 251.051 185.693 251.051 179.485C251.051 173.277 253.155 168.265 255.754 168.293C258.353 168.32 260.47 173.387 260.47 179.609Z" stroke="white" stroke-width="1.375" stroke-miterlimit="10"/>
<path d="M237.446 148.651L212.771 148.554C211.556 148.578 210.381 148.12 209.502 147.28C208.624 146.441 208.113 145.287 208.083 144.072V125.255C208.113 124.04 208.624 122.886 209.502 122.046C210.381 121.206 211.556 120.748 212.771 120.773L237.446 120.676C238.054 120.656 238.661 120.756 239.23 120.971C239.8 121.186 240.321 121.512 240.765 121.929C241.208 122.346 241.565 122.847 241.814 123.402C242.063 123.958 242.2 124.557 242.217 125.166V144.168C242.199 144.776 242.061 145.375 241.812 145.929C241.562 146.484 241.206 146.984 240.762 147.4C240.319 147.817 239.798 148.142 239.229 148.356C238.659 148.571 238.054 148.671 237.446 148.651Z" fill="#FFC5CB"/>
<path d="M215.288 134.839C215.288 139.651 219.371 143.508 224.418 143.522C229.464 143.536 233.596 139.644 233.596 134.839C233.596 130.033 229.471 126.142 224.418 126.156C219.364 126.169 215.288 130.061 215.288 134.839Z" fill="white"/>
<path d="M230.681 134.846L221.117 129.621V140.064L230.681 134.846Z" fill="#6B6CE3"/>
<path d="M152.732 112.206L237.769 111.649C238.917 111.672 240.029 111.24 240.861 110.449C241.694 109.657 242.181 108.57 242.217 107.421V91.6913C242.199 91.1272 242.07 90.5723 241.836 90.0586C241.602 89.545 241.269 89.0829 240.855 88.6992C240.441 88.3155 239.955 88.0177 239.426 87.8232C238.896 87.6288 238.333 87.5414 237.769 87.5663L152.732 88.7075C151.629 88.7072 150.57 89.1387 149.781 89.9097C148.992 90.6806 148.536 91.7297 148.511 92.8325V108.143C148.519 108.688 148.635 109.225 148.852 109.725C149.068 110.225 149.382 110.677 149.775 111.054C150.167 111.432 150.631 111.728 151.138 111.926C151.646 112.124 152.187 112.219 152.732 112.206Z" fill="#D0DAFD"/>
<path d="M232.839 98.0369L231.32 97.7413C231.158 97.1895 230.927 96.6605 230.633 96.1669L231.471 94.9225C231.561 94.788 231.601 94.626 231.584 94.465C231.566 94.304 231.492 94.1544 231.375 94.0425L230 92.75C229.876 92.6367 229.717 92.5673 229.55 92.5524C229.382 92.5375 229.214 92.578 229.072 92.6675L227.773 93.4788C227.245 93.2036 226.686 92.9914 226.109 92.8463L225.786 91.4163C225.745 91.2571 225.651 91.1166 225.52 91.0178C225.389 90.9191 225.228 90.8681 225.064 90.8732H223.125C222.959 90.8729 222.798 90.9283 222.667 91.0305C222.536 91.1326 222.443 91.2757 222.403 91.4369L222.08 92.8738C221.503 93.0382 220.947 93.2689 220.423 93.5613L219.131 92.7844C218.987 92.6992 218.819 92.6632 218.653 92.6818C218.487 92.7004 218.331 92.7726 218.209 92.8875L216.834 94.2006C216.719 94.3121 216.646 94.4604 216.629 94.6198C216.611 94.7793 216.65 94.9399 216.738 95.0738L217.57 96.2906C217.276 96.7871 217.045 97.3183 216.883 97.8719L215.377 98.195C215.213 98.2199 215.064 98.3032 214.956 98.4295C214.849 98.5558 214.791 98.7167 214.793 98.8825V100.718C214.791 100.884 214.849 101.045 214.956 101.171C215.064 101.298 215.213 101.381 215.377 101.406L216.883 101.701C217.045 102.251 217.276 102.777 217.57 103.269L216.738 104.506C216.65 104.64 216.611 104.801 216.629 104.96C216.646 105.12 216.719 105.268 216.834 105.379L218.209 106.665C218.332 106.779 218.488 106.849 218.655 106.865C218.821 106.881 218.989 106.842 219.131 106.754L220.423 105.95C220.949 106.227 221.505 106.442 222.08 106.589L222.403 108.019C222.444 108.179 222.537 108.321 222.668 108.42C222.799 108.52 222.96 108.573 223.125 108.569H225.064C225.229 108.57 225.389 108.516 225.52 108.415C225.651 108.314 225.744 108.172 225.786 108.013L226.109 106.576C226.688 106.412 227.246 106.181 227.773 105.888L229.072 106.672C229.217 106.758 229.386 106.794 229.553 106.775C229.721 106.757 229.877 106.684 230 106.569L231.375 105.256C231.492 105.144 231.566 104.994 231.584 104.833C231.601 104.672 231.561 104.51 231.471 104.376L230.633 103.152C230.927 102.653 231.158 102.12 231.32 101.564L232.839 101.241C233 101.209 233.146 101.124 233.252 100.999C233.358 100.874 233.419 100.717 233.424 100.553V98.7106C233.422 98.5472 233.363 98.3896 233.256 98.2662C233.149 98.1427 233.001 98.0614 232.839 98.0369ZM224.081 103.537C223.571 103.555 223.063 103.472 222.586 103.293C222.109 103.114 221.672 102.842 221.301 102.493C220.929 102.144 220.631 101.725 220.422 101.26C220.214 100.795 220.1 100.293 220.086 99.7831C220.115 98.7473 220.55 97.7644 221.297 97.0466C222.045 96.3289 223.045 95.9339 224.081 95.9469C224.591 95.9267 225.101 96.0081 225.579 96.1864C226.058 96.3648 226.497 96.6364 226.87 96.9857C227.243 97.3349 227.542 97.7548 227.752 98.2208C227.961 98.6869 228.076 99.1899 228.089 99.7006C228.058 100.738 227.62 101.721 226.87 102.438C226.12 103.154 225.118 103.547 224.081 103.53V103.537Z" fill="#9C92DC"/>
<path d="M156.877 97.15L206.556 96.6069M156.877 103.661L206.556 103.214" stroke="#9C92DC" stroke-width="0.6875" stroke-miterlimit="10"/>
<path d="M393.254 49.4994L190.881 54.1812V14.0381L393.254 7.0325V49.4994Z" fill="white" stroke="#011859" stroke-width="0.34375" stroke-miterlimit="10"/>
<path d="M383.581 43.0094L199.564 47.595V20.1225L383.581 14.0862V43.0094Z" fill="#FFC5CB"/>
<path d="M207.67 29.2938L210.007 29.225L211.671 34.4706L213.17 29.1288L214.923 29.0738L216.408 34.3331L218.099 28.9775L220.451 28.9088L217.089 37.695L215.714 37.7294L213.995 32.1469L212.262 37.8256L210.887 37.86L207.67 29.2938ZM220.884 28.895L223.235 28.8263L224.912 34.0925L226.425 28.73L228.185 28.675L229.684 33.955L231.382 28.5788L233.754 28.51L230.371 37.3306L228.996 37.365L227.264 31.7619L225.517 37.4613L224.142 37.4956L220.884 28.895ZM234.194 28.4963L236.566 28.4275L238.257 33.7144L239.783 28.3313L241.557 28.2763L243.062 33.5769L244.774 28.18L247.16 28.1113L243.722 36.9663L242.347 37.0075L240.608 31.3838L238.937 37.0625L237.562 37.1038L234.194 28.4963ZM248.652 34.725L250.893 34.6631V36.7669L248.652 36.8288V34.725Z" fill="white"/>
<path d="M351.853 43.8L383.581 43.0094V14.0862L351.853 15.1244V43.8Z" fill="#FF9D9C"/>
<path d="M375.021 31.1981C375.675 30.6334 376.199 29.9346 376.558 29.1493C376.917 28.364 377.103 27.5105 377.103 26.6469C377.103 25.7833 376.917 24.9298 376.558 24.1445C376.199 23.3591 375.675 22.6603 375.021 22.0956C373.595 20.9278 371.794 20.3158 369.951 20.3726C368.109 20.4295 366.349 21.1514 364.997 22.405C363.831 23.4278 363.103 24.861 362.966 26.4066C362.829 27.9521 363.293 29.491 364.262 30.7031C361.23 32.9787 359.009 34.89 358.432 35.9281C358.278 36.1656 358.212 36.4492 358.244 36.7303C358.277 37.0113 358.406 37.2722 358.611 37.4681C358.852 37.6505 359.141 37.7581 359.443 37.7776C359.745 37.7972 360.046 37.7278 360.309 37.5781C361.436 37.0212 363.471 34.945 365.891 32.1263C367.311 32.9729 368.965 33.3398 370.61 33.1726C372.254 33.0054 373.801 32.3131 375.021 31.1981ZM367.005 30.7994C366.76 30.6469 366.53 30.472 366.317 30.2769C366.098 30.0863 365.897 29.8745 365.719 29.6444C365.018 28.7419 364.688 27.6052 364.798 26.4674C364.908 25.3297 365.449 24.2771 366.311 23.5256C367.316 22.5937 368.624 22.0573 369.994 22.0156C371.364 21.9739 372.703 22.4297 373.763 23.2987C374.248 23.7189 374.637 24.2384 374.903 24.822C375.17 25.4056 375.308 26.0397 375.308 26.6812C375.308 27.3228 375.17 27.9569 374.903 28.5405C374.637 29.1241 374.248 29.6436 373.763 30.0638C372.863 30.8931 371.722 31.412 370.505 31.5444C369.289 31.6768 368.062 31.4157 367.005 30.7994Z" fill="white"/>
<path d="M373.412 25.4987C373.574 26.0158 373.614 26.563 373.531 27.0981C373.447 27.6333 373.242 28.1422 372.931 28.5856" stroke="white" stroke-width="0.6875" stroke-miterlimit="10"/>
<path d="M125.294 235.585L172.044 236.96C172.921 237.006 173.799 236.875 174.625 236.574C175.451 236.273 176.207 235.809 176.849 235.209C177.491 234.608 178.005 233.885 178.361 233.081C178.716 232.278 178.906 231.411 178.919 230.532V139.418C178.884 137.627 178.141 135.924 176.852 134.682C175.563 133.439 173.834 132.759 172.044 132.79H125.294C123.545 132.77 121.859 133.445 120.607 134.667C119.355 135.889 118.64 137.558 118.618 139.308V228.875C118.65 230.639 119.362 232.322 120.606 233.573C121.85 234.823 123.53 235.544 125.294 235.585Z" fill="#D0DAFD"/>
<path d="M116.954 229.102L163.478 230.394C164.355 230.443 165.233 230.313 166.059 230.013C166.885 229.713 167.642 229.25 168.284 228.65C168.927 228.05 169.441 227.326 169.796 226.523C170.152 225.719 170.341 224.852 170.353 223.973V133.072C170.337 132.187 170.146 131.314 169.791 130.503C169.436 129.692 168.925 128.959 168.286 128.346C167.647 127.733 166.893 127.253 166.068 126.932C165.243 126.612 164.363 126.458 163.478 126.479L116.954 126.589C115.211 126.574 113.533 127.251 112.288 128.472C111.043 129.692 110.333 131.356 110.313 133.099V222.419C110.341 224.176 111.049 225.853 112.287 227.099C113.525 228.345 115.198 229.063 116.954 229.102Z" fill="white" stroke="#9C92DC" stroke-width="0.6875" stroke-miterlimit="10"/>
<path d="M157.95 211.055L122.344 210.264V207.308L157.95 208.064V211.055Z" fill="#FF9D9C"/>
<path d="M151.109 204.455L122.344 203.871V200.914L151.109 201.471V204.455Z" fill="#FFC5CB"/>
<path d="M140.941 192.878L122.344 192.561V189.605L140.941 189.908V192.878Z" fill="#9C92DC"/>
<path d="M157.166 158.997C157.156 161.548 156.545 164.06 155.381 166.33C154.218 168.6 152.535 170.563 150.47 172.06C147.454 174.275 143.796 175.441 140.054 175.381C136.325 175.34 132.707 174.096 129.742 171.833C127.705 170.31 126.047 168.337 124.898 166.067C123.75 163.798 123.142 161.293 123.121 158.75C123.121 149.661 130.684 142.305 140.054 142.326C149.425 142.346 157.166 149.812 157.166 158.997Z" fill="#D0DAFD"/>
<path d="M134.176 158.874C134.2 160.415 134.83 161.885 135.931 162.965C137.031 164.045 138.513 164.647 140.054 164.642C140.816 164.66 141.573 164.527 142.282 164.251C142.992 163.975 143.64 163.561 144.188 163.033C144.737 162.505 145.175 161.873 145.478 161.175C145.781 160.476 145.942 159.724 145.953 158.963C145.93 157.418 145.296 155.945 144.192 154.864C143.087 153.784 141.6 153.184 140.054 153.195C139.295 153.18 138.54 153.314 137.833 153.592C137.126 153.869 136.48 154.284 135.934 154.812C135.388 155.339 134.951 155.97 134.649 156.667C134.348 157.364 134.187 158.114 134.176 158.874Z" fill="#9C92DC"/>
<path d="M150.47 172.094C147.454 174.309 143.796 175.476 140.054 175.415C136.325 175.374 132.707 174.13 129.742 171.868C130.175 169.958 131.143 168.212 132.532 166.833C133.921 165.454 135.674 164.498 137.586 164.078C139.233 163.706 140.944 163.72 142.584 164.119C144.512 164.581 146.272 165.572 147.666 166.981C149.059 168.391 150.031 170.162 150.47 172.094Z" fill="#9C92DC"/>
<path d="M98.3575 255.488C98.0688 252.69 98.9419 249.163 100.221 249.418C101.499 249.672 98.3575 255.488 98.3575 255.488ZM98.3575 255.488C98.3575 255.488 102.902 247.541 104.277 249.404C105.652 251.267 101.706 254.821 99.0794 256.079M45.7501 259.813C48.3763 258.554 52.3226 255 50.9476 253.144C49.5726 251.287 45.0282 259.228 45.0282 259.228M45.0007 259.187C44.7119 256.389 45.585 252.862 46.8638 253.116C48.1425 253.371 45.0007 259.187 45.0007 259.187Z" stroke="#011859" stroke-width="0.515625" stroke-miterlimit="10"/>
<path d="M76.7768 247.678C76.0893 253.549 77.6156 265.966 77.6156 265.966C77.6156 265.966 110.994 265.505 110.994 265.966C110.994 266.426 110.347 261.614 103.947 258.259C98.0068 255.144 96.3843 252.25 96.3843 252.25L96.0062 245.698L76.7768 247.678ZM23.2481 250.256C21.9212 255.846 20.1475 267.767 20.1475 267.767C20.1475 267.767 55.8425 267.313 55.8425 267.767C55.8425 268.221 55.1962 263.415 48.7956 260.06C42.8556 256.946 41.2331 254.051 41.2331 254.051L40.855 247.499L23.2481 250.256Z" fill="#0038AD"/>
<path d="M127.927 58.8219C126.978 59.1381 124.489 58.5881 121.794 60.8844L121.581 61.07C119.759 62.6994 117.222 65.9719 115.036 69.6294C114.007 71.3426 113.088 73.12 112.286 74.9506C111.832 75.9956 111.365 77.185 110.836 78.4362C110.229 79.8749 109.541 81.2774 108.773 82.6369C106.312 86.9544 102.489 91.045 95.4493 92.0144C82.868 93.74 73.5111 85.4075 73.5111 85.4075L70.9193 93.3481C70.9193 93.3481 74.9411 108.562 77.3749 118.875C77.5124 119.48 77.6705 120.126 77.8355 120.8C80.448 131.724 85.4599 151.985 87.7561 164.8C90.1968 178.406 97.8211 248.063 97.8211 248.063L68.2586 250.036C68.2586 250.036 69.3586 217.325 64.8211 189.096C64.8211 189.096 62.463 197.511 57.2586 215.909C52.0543 234.306 48.3211 241.931 49.2424 251.212C49.2424 251.212 22.2718 252.387 19.1299 250.524C19.1299 250.524 34.6949 199.347 36.1936 194.232C37.6924 189.117 42.3261 169.227 42.3811 161.136C42.4224 157.519 42.0924 145.687 40.683 132.157C40.2224 127.716 39.6449 123.089 38.9299 118.511C38.3318 114.729 37.6443 110.982 36.8674 107.407C34.9699 98.9306 32.4605 91.3612 29.133 86.4456L26.4586 64.9062C26.4586 64.9062 24.3961 62.5619 25.2143 61.2419C25.3423 61.03 25.5252 60.8566 25.7436 60.74C27.7099 59.64 30.8586 61.0562 31.0855 53.8169C31.3124 46.5775 48.8574 50.9912 48.8574 50.9912C54.8318 51.39 58.0286 53.6656 56.4199 56.9656C56.4199 56.9656 64.9655 57.99 68.7949 61.0562C71.6068 63.2975 78.5574 70.7225 85.6593 74.4762C88.2924 75.8512 90.9393 76.7587 93.4074 76.6969C95.2335 76.5541 96.9447 75.7498 98.2199 74.435C101.245 71.6437 103.72 66.68 105.494 61.8469C107.432 56.5325 108.505 51.3969 108.471 49.4719C108.395 44.9825 107.921 40.4312 109.344 40.2662C110.767 40.1012 111.406 46.6462 111.406 46.6462C111.406 46.6462 111.661 38.3619 112.575 38.0937C114.637 37.5094 114.149 47.0312 114.149 47.0312C115.216 44.3794 116.057 41.6427 116.666 38.85C117.216 35.5706 118.728 37.1244 118.79 38.5337C118.852 39.9431 117.848 48.0969 117.071 50.0012C117.209 49.8156 119.134 47.2512 121.567 46.3369V50.7437C120.069 51.8712 118.556 53.9887 118.082 57.9556C119.209 57.4346 120.374 57.0002 121.567 56.6562L122.035 56.5325C122.269 56.4775 122.516 56.4156 122.722 56.3744C122.929 56.3331 123.327 56.2644 123.609 56.2369H124.132C124.589 56.194 125.05 56.2195 125.5 56.3125C128.085 56.9312 128.869 58.5056 127.927 58.8219Z" fill="#FF8E00"/>
<path opacity="0.5" d="M50.3493 118.483H38.9368C38.3386 114.702 37.6511 110.955 36.8743 107.38C37.1699 107.614 45.5849 114.152 51.6418 113.354C57.788 112.557 50.3493 118.483 50.3493 118.483Z" fill="#E44543"/>
<path d="M29.1057 86.4181C30.8855 85.1887 32.855 84.2597 34.9357 83.6681M29.6351 87.25C31.5125 87.5395 33.4076 87.7003 35.307 87.7313M64.842 70.8256C64.8294 74.3471 65.1122 77.8634 65.6876 81.3375M62.0232 76.085C62.4328 76.9497 62.9966 77.7325 63.687 78.395M32.4676 65.6488C36.3451 66.2606 46.2176 66.3363 47.3932 65.9925M53.0445 64.2325C53.9799 62.8157 54.7481 61.2954 55.3338 59.7019" stroke="#011859" stroke-width="0.515625" stroke-miterlimit="10"/>
<path opacity="0.5" d="M98.7631 74.4419C93.2631 83.8538 84.7656 76.9581 84.7656 76.9581L85.6662 74.4419C88.2994 75.8169 90.9463 76.7244 93.4144 76.6625C95.2404 76.5197 96.9516 75.7154 98.2269 74.4006L98.7631 74.4419Z" fill="#E44543"/>
<path d="M85.3501 78.725C91.8676 79.7975 97.9932 71.74 97.9932 71.74" stroke="#011859" stroke-width="0.515625" stroke-miterlimit="10"/>
<path d="M68.2518 250.029C68.2518 250.029 69.3518 217.318 64.8143 189.089C64.8143 189.089 62.4562 197.504 57.2518 215.902C52.0474 234.299 48.3143 241.924 49.2355 251.205C49.2355 251.205 22.2649 252.381 19.123 250.517C19.123 250.517 30.8105 212.017 34.9355 198.474C35.5612 196.411 36.008 194.906 36.2074 194.225C36.723 192.444 37.6305 188.883 38.5793 184.641C40.3737 176.701 42.3605 166.402 42.4155 161.122C42.4568 157.506 42.1268 145.674 40.7174 132.144C55.2374 127.256 70.4862 122.883 77.8424 120.827C80.4549 131.752 85.4668 152.012 87.763 164.827C90.2037 178.433 97.828 248.091 97.828 248.091L68.2518 250.029Z" fill="#FEC942"/>
<path opacity="0.15" d="M48.7681 136.544C55.6431 140.194 60.9781 148.176 53.0443 156.165C53.0443 156.165 54.0549 144.313 48.7681 136.544Z" fill="#011859"/>
<path opacity="0.2" d="M82.4555 191.028C87.103 193.696 80.4343 198.439 80.283 194.754C80.173 191.963 87.5499 195.545 85.0474 197.635M85.4874 176.268C85.673 179.244 81.4243 177.601 83.088 176.405C84.353 175.497 84.9511 180.021 83.2118 179.506M76.873 208.449C77.0586 211.426 72.8099 209.783 74.4736 208.587C75.7386 207.679 76.3368 212.203 74.5974 211.687M89.4474 233.688C92.383 234.231 89.7568 237.957 88.9936 236.046C88.4161 234.602 92.9536 235.118 92.0255 236.678M73.1468 169.062C73.0299 163.7 80.5443 167 77.4574 169.001C75.1199 170.534 74.3843 162.373 77.4574 163.432M53.4636 158.819C51.7311 163.893 45.8049 158.241 49.3936 157.396C52.1436 156.756 49.9986 164.676 47.4686 162.621M62.0918 172.823C56.8599 171.668 61.8099 165.144 63.0474 168.616C63.9893 171.249 55.8768 170.032 57.6436 167.289M46.6711 178.302C48.0461 175.222 51.4355 179.086 49.1393 179.416C47.3999 179.664 49.1393 174.824 50.6311 176.254M46.9874 214.582C50.253 213.819 49.2218 218.838 47.5786 217.215C46.3343 215.984 51.2361 214.465 51.0161 216.528M47.8124 234.595C47.0011 237.847 42.9999 234.636 45.1999 233.908C46.8636 233.364 45.963 238.411 44.2718 237.263M25.3861 240.7C24.8018 237.4 29.7518 238.699 28.0468 240.246C26.7543 241.422 25.5099 236.444 27.5174 236.809M57.3893 192.437C57.0593 197.786 49.8268 193.902 53.0855 192.142C55.5399 190.808 55.5949 199.017 52.6111 197.69M38.4005 204.592C35.9599 199.821 44.1411 199.484 42.2574 202.654C40.8274 205.053 36.5993 198.027 39.8443 197.642M40.023 227.693C36.5855 231.818 33.0586 224.441 36.7161 224.943C39.4661 225.307 34.7086 231.969 33.0655 229.143M60.8749 149.448C60.8061 146.045 65.5705 148.121 63.6249 149.407C62.1399 150.383 61.6793 145.199 63.6249 145.873M46.4855 145.859C42.6149 142.154 50.2324 139.149 49.4899 142.766C48.9261 145.516 42.6149 140.256 45.5574 138.826M81.3211 152.122C75.9655 152.404 78.9974 144.801 81.1218 147.812C82.7305 150.101 74.5905 151.091 75.5599 147.977M75.0443 131.724C78.3649 135.932 70.4036 137.85 71.6068 134.378C72.5418 131.745 78.0555 137.816 74.9549 138.826M57.733 131.663C62.0161 128.438 63.7555 136.441 60.3043 135.1C57.6918 134.103 63.8861 128.734 64.828 131.855M74.8311 185.562C70.273 188.381 69.2761 180.255 72.583 181.878C75.0924 183.108 68.458 187.893 67.7705 184.696M87.7836 222.825C82.428 222.639 86.113 215.324 87.9624 218.514C89.3374 220.934 81.1699 221.209 82.4074 218.191M72.3286 234.842C70.4449 229.824 78.6124 230.422 76.378 233.351C74.6799 235.571 71.2836 228.112 74.5493 228.098" stroke="#011859" stroke-width="0.6875" stroke-miterlimit="10"/>
<path opacity="0.15" d="M34.262 211.096L34.9013 198.46C35.527 196.398 35.9738 194.892 36.1732 194.211C36.6888 192.431 37.5963 188.869 38.5451 184.628C40.7176 196.927 39.8307 202.468 34.262 211.096ZM66.1895 199.264C65.7907 195.827 65.3301 192.444 64.8145 189.096C65.8113 184.456 69.9501 160.262 69.3657 153.676C69.3313 153.662 75.6838 180.75 66.1895 199.264Z" fill="#011859"/>
<path opacity="0.5" d="M110.829 78.4225C110.222 79.8611 109.534 81.2637 108.766 82.6231C107.632 79.7012 105.604 74.2906 105.521 74.0638L110.829 78.4225Z" fill="#E44543"/>
<path d="M100.991 49.4375L89.5161 71.7469L12.9149 220.625C12.1316 222.111 10.7985 223.233 9.20011 223.75C7.60168 224.268 5.86433 224.14 4.35856 223.395C2.85279 222.65 1.69777 221.346 1.1398 219.761C0.581827 218.176 0.665067 216.436 1.37177 214.912L73.298 63.71L84.078 41.0225C84.4445 40.2511 84.9609 39.5605 85.597 38.9907C86.2331 38.4209 86.9763 37.9835 87.7832 37.7039C88.5901 37.4242 89.4446 37.308 90.2969 37.3619C91.1492 37.4159 91.9822 37.639 92.7474 38.0181L98.1305 40.6787C98.9003 41.0585 99.5864 41.5883 100.149 42.237C100.711 42.8857 101.138 43.6402 101.404 44.4562C101.67 45.2722 101.771 46.1331 101.7 46.9886C101.629 47.844 101.388 48.6766 100.991 49.4375Z" fill="#6B6CE3"/>
<path d="M64.5118 119.315C64.0649 120.14 65.1099 120.745 64.4087 121.831C63.7074 122.917 62.4837 122.34 62.8205 123.522C63.1574 124.705 62.0161 125.929 61.1705 126.101C60.3249 126.272 61.308 127.476 60.1599 128.115C59.4037 128.562 53.6974 129.552 45.2893 128.954C41.5904 128.69 37.9147 128.166 34.2893 127.386C32.8043 127.07 31.278 126.699 29.7243 126.279C28.5005 125.945 27.263 125.574 26.0118 125.166C7.89614 119.274 3.68177 104.272 4.10115 93.8294C4.52052 83.3862 19.4393 69.98 26.4105 64.8856C40.7105 67.7937 29.0849 86.425 29.0849 86.425C26.5068 88.9825 22.7599 90.8525 21.3574 94.3381C20.8233 95.6697 20.6479 97.1181 20.8486 98.5387C21.0243 100.084 21.4347 101.593 22.0655 103.014C26.2249 112.357 39.0193 115.101 43.7149 115.651C44.7149 115.767 45.7272 115.72 46.7124 115.513C50.6655 114.716 53.7249 111.732 54.8111 110.838C55.5674 110.233 57.2036 110.515 59.0255 110.219C60.2905 109.999 61.8924 109.717 61.6587 110.762C61.2668 112.509 57.1074 114.138 57.1074 114.138C57.1074 114.138 63.343 113.966 65.6668 115.396C67.9905 116.826 64.7043 118.944 64.5118 119.315Z" fill="#FF8E00"/>
<path opacity="0.5" d="M23.0282 109.669C23.0282 109.669 18.7038 108.776 18.0782 102.155C17.9504 100.681 18.1841 99.1978 18.7592 97.8344C19.3342 96.471 20.2332 95.2685 21.3782 94.3312C20.8441 95.6628 20.6687 97.1113 20.8694 98.5319C21.0451 100.077 21.4555 101.586 22.0863 103.007C22.1925 105.253 22.5078 107.483 23.0282 109.669Z" fill="#E44543"/>
<mask id="mask0_623_208" style="mask-type:luminance" maskUnits="userSpaceOnUse" x="4" y="36" width="125" height="94">
<path d="M125.5 56.3125C125.078 56.2183 124.646 56.1836 124.214 56.2094H123.692C123.403 56.2094 123.101 56.285 122.805 56.3469C122.509 56.4087 122.324 56.45 122.117 56.505L121.65 56.6287C120.457 56.9727 119.291 57.4071 118.164 57.9281C118.639 53.9612 120.151 51.8437 121.65 50.7162V46.3094C119.237 47.2375 117.291 49.7881 117.154 49.9737C117.937 48.0694 118.955 39.9225 118.872 38.5062C118.79 37.09 117.298 35.5431 116.748 38.8225C116.14 41.6152 115.298 44.3519 114.232 47.0037C114.232 47.0037 114.706 37.4888 112.657 38.0663C111.743 38.3275 111.489 46.6187 111.489 46.6187C111.489 46.6187 110.856 40.0875 109.426 40.2387C107.996 40.39 108.477 44.955 108.553 49.4444C108.594 51.3419 107.515 56.4844 105.576 61.8194C103.809 66.6319 101.327 71.6163 98.3024 74.4075C97.0272 75.7223 95.316 76.5266 93.4899 76.6694C91.0218 76.7312 88.368 75.8444 85.7418 74.4487C78.6468 70.695 71.6893 63.27 68.8774 61.0287C65.0274 57.9625 56.5024 56.9381 56.5024 56.9381C58.1043 53.6381 54.9074 51.3556 48.9399 50.9637C48.9399 50.9637 31.4018 46.5637 31.168 53.7894C30.9343 61.015 27.7855 59.6125 25.8261 60.7125C25.6077 60.8291 25.4248 61.0025 25.2968 61.2144C24.4924 62.5412 26.5411 64.8788 26.5411 64.8788C19.5699 69.9731 4.65114 83.3725 4.23176 93.8225C3.81239 104.272 8.02676 119.26 26.1424 125.159C27.3982 125.567 28.6357 125.938 29.8549 126.273C31.4086 126.699 32.9349 127.063 34.4199 127.379C36.4824 127.826 38.4899 128.17 40.3874 128.424L40.5593 129.951C52.0818 126.712 65.818 122.814 77.6155 119.452L77.3749 118.875C74.9411 108.562 70.933 93.3206 70.933 93.3206L73.5249 85.38C73.5249 85.38 82.8818 93.7125 95.463 91.9869C102.503 91.0175 106.326 86.9337 108.787 82.6094C109.554 81.2499 110.243 79.8474 110.849 78.4087C111.379 77.1575 111.846 75.9613 112.3 74.9231C113.102 73.0925 114.021 71.3151 115.05 69.6019C117.236 65.9444 119.773 62.6719 121.595 61.0425L121.808 60.8569C124.476 58.5812 126.992 59.1312 127.941 58.7944C128.889 58.4575 128.085 56.9312 125.5 56.3125ZM22.0793 103.007C21.4484 101.586 21.0381 100.077 20.8624 98.5319C20.6617 97.1113 20.8371 95.6629 21.3711 94.3312C22.7461 90.8456 26.5205 88.9756 29.0986 86.4181C33.3405 92.6881 36.2693 103.276 38.2699 114.606C32.5705 113.052 25.0836 109.745 22.0793 103.007Z" fill="white"/>
</mask>
<g mask="url(#mask0_623_208)">
<path d="M74.8862 36.0038C74.0475 33.6388 72.7206 35.1375 71.5243 33.7694C70.3281 32.4013 71.1462 30.2769 71.1462 30.2769M67.6125 41.8269C66.7737 39.4619 65.4468 40.9606 64.2506 39.5925C63.0543 38.2244 63.8725 36.1 63.8725 36.1M39.8443 60.0731C37.5618 59.0213 37.7062 61.015 35.8981 60.9256C34.09 60.8363 33.1481 58.7531 33.1481 58.7531M31.2437 70.9425C30.405 68.5775 29.0781 70.0763 27.8818 68.7081C26.6856 67.34 27.5037 65.2156 27.5037 65.2156M20.89 81.5438C22.375 79.5156 20.3881 79.2613 20.8487 77.5081C21.3093 75.755 23.53 75.2325 23.53 75.2325M15.1975 79.2888C14.3587 76.9238 13.0318 78.4225 11.8356 77.0544C10.6393 75.6863 11.4575 73.5619 11.4575 73.5619M7.61434 92.5919C6.99559 90.1581 5.55184 91.5263 4.46559 90.0619C3.37934 88.5975 4.41059 86.5488 4.41059 86.5488M2.14872 94.235C1.30997 91.87 -0.0169081 93.3688 -1.21316 92.0006C-2.40941 90.6325 -1.59129 88.5081 -1.59129 88.5081M-5.12504 100.058C-5.96379 97.6931 -7.29066 99.1919 -8.48691 97.8238C-9.68316 96.4556 -8.86504 94.3313 -8.86504 94.3313M-12.3988 105.881C-13.2375 103.516 -14.5644 105.015 -15.7607 103.647C-16.9569 102.279 -16.1388 100.154 -16.1388 100.154M-19.6725 111.704C-20.5113 109.339 -21.8382 110.838 -23.0344 109.47C-24.2307 108.102 -23.4125 105.978 -23.4125 105.978M79.7125 48.9356C78.8737 46.5706 77.5468 48.0694 76.3506 46.7013C75.1543 45.3331 75.9725 43.2088 75.9725 43.2088M72.4387 54.7588C71.6 52.3938 70.2731 53.8925 69.0768 52.5244C67.8806 51.1563 68.6987 49.0319 68.6987 49.0319M66.65 53.6863C64.1543 53.9406 65.275 55.5838 63.68 56.4363C62.085 57.2888 60.2012 55.9688 60.2012 55.9688M59.8231 65.6213C60.8612 63.3388 58.8675 63.49 58.9568 61.675C59.0462 59.86 61.1156 58.925 61.1156 58.925M54.8181 70.0625C52.3981 69.375 52.8656 71.3413 51.0643 71.5406C49.2631 71.74 47.9843 69.8494 47.9843 69.8494M40.8481 75.8513C40.0093 73.4863 38.6825 74.985 37.4862 73.6169C36.29 72.2488 37.1081 70.1244 37.1081 70.1244M30.5631 85.7581C32.0275 83.6956 30.0406 83.4825 30.4806 81.7225C30.9206 79.9625 33.1343 79.4263 33.1343 79.4263M27.3181 91.4988C25.9431 89.4363 25.0012 91.1756 23.5162 90.1238C22.0312 89.0719 22.3062 86.8238 22.3062 86.8238M14.6887 91.1619C13.0937 93.1006 15.0531 93.4719 14.4962 95.1975C13.9393 96.9231 11.6912 97.315 11.6912 97.315M7.98559 104.073C5.54497 103.489 6.07434 105.448 4.27997 105.675C2.48559 105.902 1.14497 104.087 1.14497 104.087M-0.312535 112.99C-1.15128 110.625 -2.47816 112.124 -3.67441 110.756C-4.87066 109.388 -4.05254 107.263 -4.05254 107.263M60.0018 75.3906C61.92 73.7681 60.05 73.0531 60.9025 71.4581C61.755 69.8631 64.0375 69.8769 64.0375 69.8769M53.3125 86.1431C55.7668 85.6 54.44 84.0806 55.9456 83.0769C57.4512 82.0731 59.5 83.125 59.5 83.125M46.3618 84.39C44.4781 82.7331 44.045 84.6856 42.3331 84.0738C40.6212 83.4619 40.305 81.2069 40.305 81.2069M41.625 91.9044C39.1225 91.7188 39.9543 93.5406 38.2287 94.0838C36.5031 94.6269 34.8806 93.0181 34.8806 93.0181M33.0862 103.063C32.2475 100.698 30.9206 102.196 29.7243 100.828C28.5281 99.46 29.3462 97.3356 29.3462 97.3356M23.0143 109.8C24.3275 107.662 22.3268 107.566 22.6431 105.778C22.9593 103.991 25.125 103.296 25.125 103.296M18.5387 114.709C17.7 112.344 16.3731 113.843 15.1768 112.474C13.9806 111.106 14.7987 108.982 14.7987 108.982M11.265 120.532C10.4262 118.167 9.09934 119.666 7.90309 118.298C6.70684 116.929 7.52497 114.805 7.52497 114.805M3.99809 126.355C3.15934 123.99 1.83246 125.489 0.636213 124.121C-0.560037 122.753 0.258091 120.628 0.258091 120.628M-3.27566 132.178C-4.11441 129.813 -5.44128 131.312 -6.63753 129.944C-7.83378 128.576 -7.01566 126.451 -7.01566 126.451M96.1025 69.4094C95.2637 67.0444 93.9368 68.5431 92.7406 67.175C91.5443 65.8069 92.3625 63.6825 92.3625 63.6825M50.9818 93.0388C50.1912 95.4244 52.1575 95.06 52.2675 96.8681C52.3775 98.6763 50.4181 99.8519 50.4181 99.8519M41.9893 106.631C43.0893 104.376 41.0956 104.472 41.2262 102.664C41.3568 100.856 43.4606 99.9481 43.4606 99.9481M35.4375 111.354C33.0381 112.089 34.475 113.485 33.0656 114.619C31.6562 115.754 29.5593 114.846 29.5593 114.846M26.2593 125.42C26.7612 122.959 24.8843 123.557 24.5268 121.769C24.1693 119.982 26.005 118.586 26.005 118.586M16.0981 133.464C15.2593 131.099 13.9325 132.598 12.7362 131.229C11.54 129.861 12.3581 127.737 12.3581 127.737M108.134 87.6144C107.295 85.2494 105.968 86.7481 104.772 85.38C103.576 84.0119 104.394 81.8875 104.394 81.8875M96.3156 83.2488C98.3781 81.7844 96.5425 80.925 97.5187 79.3919C98.495 77.8588 100.771 78.0581 100.771 78.0581M93.1187 88.625C92.28 86.26 90.9531 87.7588 89.7568 86.3906C88.5606 85.0225 89.3787 82.8981 89.3787 82.8981M86.0237 93.8913C83.5143 93.8363 84.4425 95.61 82.7443 96.2425C81.0462 96.875 79.3481 95.3556 79.3481 95.3556M34.9356 135.183C34.0968 132.818 32.77 134.316 31.5737 132.948C30.3775 131.58 31.1956 129.456 31.1956 129.456M27.6618 141.006C26.8231 138.641 25.4962 140.139 24.3 138.771C23.1037 137.403 23.9218 135.279 23.9218 135.279M20.3881 146.829C19.5493 144.464 18.2225 145.963 17.0262 144.594C15.83 143.226 16.6481 141.102 16.6481 141.102M13.1143 152.652C12.2756 150.287 10.9487 151.786 9.75246 150.418C8.55621 149.049 9.37434 146.925 9.37434 146.925M127.04 78.2369C126.201 75.8719 124.874 77.3706 123.678 76.0025C122.482 74.6344 123.3 72.51 123.3 72.51M119.766 84.06C118.927 81.695 117.601 83.1938 116.404 81.8256C115.208 80.4575 116.026 78.3331 116.026 78.3331M112.499 89.8831C111.661 87.5181 110.334 89.0169 109.137 87.6488C107.941 86.2806 108.759 84.1563 108.759 84.1563M97.9518 101.529C97.1131 99.1644 95.7862 100.663 94.59 99.295C93.3937 97.9269 94.2118 95.8025 94.2118 95.8025M90.6781 107.353C89.8393 104.988 88.5125 106.486 87.3162 105.118C86.12 103.75 86.9381 101.626 86.9381 101.626M82.4006 109.566C80.51 107.916 80.0837 109.869 78.3718 109.264C76.66 108.659 76.3093 106.404 76.3093 106.404M78.1587 112.089C76.1718 110.549 75.8625 112.529 74.1231 112.028C72.3837 111.526 71.9231 109.278 71.9231 109.278M32.4881 153.938C31.6493 151.573 30.3225 153.071 29.1262 151.703C27.93 150.335 28.7481 148.211 28.7481 148.211" stroke="white" stroke-width="0.6875" stroke-miterlimit="10"/>
</g>
<path d="M115.875 2.08935C113.125 4.99748 108.883 10.3737 109.687 15.4681C110.237 18.94 111.413 24 110.918 28.9362C110.341 34.6081 107.549 40.1081 99.0587 42.9062L90.5268 39.3862C88.2924 33.8106 89.0212 27.5269 91.943 21.5594C96.068 13.1237 104.511 5.31373 115.146 1.02373C115.283 0.989107 115.426 0.997231 115.558 1.047C115.69 1.09678 115.803 1.1858 115.883 1.30204C115.962 1.41827 116.004 1.55611 116.003 1.69692C116.001 1.83773 115.957 1.97471 115.875 2.08935Z" fill="#9C92DC"/>
<path d="M115.875 2.08937C113.125 4.9975 108.883 10.3737 109.687 15.4681C110.237 18.94 111.413 24 110.918 28.9362C109.942 22.9275 107.412 27.2794 105.569 27.08C103.727 26.8806 105.026 23.4981 102.654 22.46C100.282 21.4219 99.65 24.0894 97.5806 24.5225C95.5112 24.9556 95.2775 22.46 94.2806 21.3394C93.8268 20.8375 93.0225 20.9819 91.95 21.5869C96.075 13.1513 104.517 5.34125 115.153 1.05125C115.285 1.02399 115.422 1.03606 115.547 1.08598C115.672 1.13589 115.78 1.22144 115.857 1.33202C115.934 1.44259 115.976 1.57332 115.98 1.70796C115.983 1.8426 115.946 1.97523 115.875 2.08937Z" fill="#6B6CE3"/>
<path d="M100.991 49.4375L89.5162 71.7469L73.2981 63.7169L84.0781 41.0294C84.4446 40.258 84.9609 39.5673 85.5971 38.9976C86.2332 38.4278 86.9764 37.9904 87.7833 37.7107C88.5902 37.4311 89.4447 37.3149 90.297 37.3688C91.1492 37.4228 91.9823 37.6458 92.7475 38.025L98.1306 40.6856C98.8995 41.0654 99.5848 41.595 100.146 42.2431C100.708 42.8913 101.134 43.6451 101.401 44.4602C101.667 45.2754 101.768 46.1355 101.698 46.9902C101.627 47.8449 101.387 48.6769 100.991 49.4375Z" fill="#D0DAFD"/>
<path opacity="0.5" d="M36.008 116.022L34.3099 127.379C32.8249 127.063 31.2987 126.692 29.7449 126.273C31.7043 123.089 35.9943 116.125 36.008 116.022ZM54.928 60.7125C54.8318 60.8981 53.0924 65.5731 50.473 66.2125C47.8537 66.8519 35.1211 65.2019 32.4674 65.6694C29.8136 66.1369 37.5618 71.7744 34.2687 71.3138C30.9755 70.8531 26.4312 64.8994 26.4312 64.8994C26.4312 64.8994 24.3687 62.555 25.1868 61.235C30.8105 61.235 45.5368 62.9812 48.3143 63.2287C51.5937 63.5106 54.7424 60.8706 54.928 60.7125Z" fill="#E44543"/>
<path d="M82.6962 119.562C78.7706 120.312 47.0906 129.552 40.6899 132.123M53.0443 118.731C67.5712 114.764 78.3168 112.908 78.3168 112.908" stroke="#011859" stroke-width="0.515625" stroke-miterlimit="10"/>
<path d="M172.168 71.8844L127.006 72.5719C126.307 72.5948 125.61 72.4779 124.957 72.2281C124.304 71.9783 123.707 71.6006 123.202 71.1172C122.697 70.6337 122.293 70.0542 122.015 69.4127C121.737 68.7712 121.589 68.0805 121.581 67.3813V43.25C121.604 41.8199 122.184 40.455 123.196 39.4449C124.209 38.4347 125.575 37.8589 127.006 37.8394L172.168 36.6706C172.879 36.6346 173.589 36.7417 174.258 36.9857C174.927 37.2297 175.54 37.6056 176.061 38.091C176.581 38.5765 176.999 39.1615 177.289 39.8116C177.58 40.4616 177.736 41.1633 177.75 41.875V66.4394C177.714 67.896 177.11 69.2809 176.067 70.2982C175.024 71.3156 173.625 71.8848 172.168 71.8844Z" fill="#6B6CE3"/>
<path d="M142.763 60.63L135.888 55.0269L142.763 49.1419M156.135 60.3756L163.093 54.4631L156.135 48.8394" stroke="white" stroke-width="2.0625" stroke-linecap="round" stroke-linejoin="round"/>
<path d="M153.117 46.9213L145.761 62.555" stroke="#FFC5CB" stroke-width="2.0625" stroke-linecap="round" stroke-linejoin="round"/>
<path d="M127.927 58.8219C126.978 59.1381 124.489 58.5881 121.794 60.8844L121.581 61.07C120.046 62.5292 118.663 64.1417 117.456 65.8825C116.586 67.0967 115.767 68.3467 115.002 69.6294L109.832 65.3944L105.562 61.8125V61.7644L106.023 60.4444C107.659 55.6319 108.553 51.1975 108.519 49.4444C108.443 44.955 107.969 40.4037 109.392 40.2387C110.815 40.0737 111.454 46.6187 111.454 46.6187C111.454 46.6187 111.709 38.3344 112.623 38.0663C114.686 37.4819 114.197 47.0038 114.197 47.0038C115.264 44.3519 116.105 41.6152 116.714 38.8225C117.264 35.5431 118.776 37.0969 118.838 38.5063C118.9 39.9156 117.896 48.0694 117.119 49.9737C117.257 49.7881 119.182 47.2237 121.616 46.3094V50.7162C120.117 51.8437 118.604 53.9613 118.13 57.9281C119.257 57.4071 120.422 56.9727 121.616 56.6288C122.868 56.2208 124.198 56.1125 125.5 56.3125C128.085 56.9312 128.869 58.5056 127.927 58.8219Z" fill="#FF9D9C"/>
<path d="M117.491 65.8688C116.621 67.0829 115.802 68.333 115.036 69.6156L109.866 65.3806L105.562 61.7644L106.023 60.4444C106.339 60.3894 117.491 65.8688 117.491 65.8688Z" fill="#E44543"/>
<path d="M110.698 78.725C105.769 74.4694 97.5325 66.4394 97.5325 66.4394M36.8125 110.082C34.9631 123.502 34.2344 127.386 34.2344 127.386" stroke="#011859" stroke-width="0.515625" stroke-miterlimit="10"/>
<path d="M64.5118 119.315C64.065 120.14 65.11 120.745 64.4087 121.831C63.7075 122.918 62.4837 122.34 62.8206 123.523C63.1575 124.705 62.0162 125.929 61.1706 126.101C60.325 126.273 61.3081 127.476 60.16 128.115C59.5618 128.473 55.7806 129.181 49.985 129.133C48.61 129.133 47.0562 129.078 45.42 128.961H45.2825C45.5093 125.454 45.9218 121.646 46.3206 118.545C46.4581 117.424 46.5956 116.4 46.7262 115.513C47.0604 115.446 47.3909 115.361 47.7162 115.259C51.1881 114.221 53.835 111.656 54.825 110.845C55.5812 110.24 57.2175 110.522 59.0393 110.226C60.3043 110.006 61.9062 109.724 61.6725 110.769C61.2806 112.516 57.1212 114.145 57.1212 114.145C57.1212 114.145 63.3568 113.973 65.6806 115.403C68.0043 116.833 64.7043 118.944 64.5118 119.315Z" fill="#FF9D9C"/>
<path d="M49.9849 129.132C48.6099 129.132 47.0562 129.077 45.4199 128.961C45.6193 126.561 46.018 122.003 46.3205 118.545C46.458 117.424 46.5955 116.4 46.7262 115.513C47.0604 115.446 47.3908 115.361 47.7162 115.259L49.9849 129.132Z" fill="#E44543"/>
<path d="M64.7937 189.096C68.0318 175.085 69.8468 154.549 69.3312 146.361C68.8156 138.173 69.07 131.532 71.2837 129.133" stroke="#011859" stroke-width="0.515625" stroke-miterlimit="10"/>
<path d="M56.4062 42.8994C56.3001 43.9668 55.9029 44.9845 55.2579 45.8417C54.6129 46.6988 53.745 47.3624 52.7487 47.76C52.1688 48.0116 51.5587 48.1873 50.9337 48.2825C50.6931 50.6406 51.6212 53.5694 51.5525 53.7137C51.4837 53.8581 51.7931 61.5925 51.7931 61.9637C51.7931 62.335 42.0856 57.6875 42.0856 57.6875C42.0856 57.6875 40.6487 51.6306 39.2943 45.4775C32.5087 44.185 33.7943 31.1087 33.7943 31.1087C33.7943 31.1087 42.0443 24.33 46.0593 24.5775C50.0743 24.825 56.9837 38.0662 56.4062 42.8994Z" fill="#FF9D9C"/>
<path d="M51.5525 53.7206C47.8125 53.2188 45.0625 46.8112 45.0625 46.8112C46.7881 47.9544 48.8516 48.4757 50.9131 48.2894C50.6862 50.6406 51.6006 53.5625 51.5525 53.7206Z" fill="#E44543"/>
<path d="M42.2094 38.7606C42.0237 36.4231 39.6519 33.9069 39.6519 33.9069C39.6519 33.9069 47.7369 31.48 46.9875 25.4231C46.9875 25.4231 50.3218 27.8156 50.7618 28.4413C50.7618 28.4413 52.515 26.3788 51.5525 22.7144C50.4387 18.5 41.3225 14.8563 34.1312 24.1994C34.1312 24.1994 35.355 20.4938 33.1687 20.6794C30.9825 20.865 32.3919 25.3131 32.3919 25.3131C32.3919 25.3131 29.6006 24.7906 27.9094 26.9081C26.7269 28.3931 28.315 29.9125 29.9719 29.17C30.8381 28.7781 30.2743 33.0956 29.6006 34.5463C27.7856 38.4375 25.4756 41.5106 24.3 43.7381C23.1244 45.9656 21.55 54.1881 29.4493 55.8175C37.3487 57.4469 43.385 52.4831 41.9756 43.1056C41.9756 43.1056 39.2256 43.2225 38.5381 41.105C37.7612 38.7606 39.8031 37.5644 42.2094 38.7606Z" fill="#011859"/>
<path d="M39.4111 40.3763C39.7618 39.6131 41.4736 39.3794 42.1611 40.3763M41.948 43.0988C42.5596 43.0469 43.1528 42.864 43.6874 42.5625" stroke="#E44543" stroke-width="0.6875" stroke-miterlimit="10"/>
<path d="M54.5161 35.6781C55.7881 35.0999 56.231 33.3367 55.5052 31.7397C54.7794 30.1426 53.1598 29.3167 51.8878 29.8948C50.6157 30.4729 50.1728 32.2362 50.8986 33.8332C51.6244 35.4302 53.244 36.2562 54.5161 35.6781Z" stroke="#011859" stroke-width="0.515625" stroke-miterlimit="10"/>
<path d="M47.6467 39.2177C49.1607 38.5296 49.6877 36.4306 48.8237 34.5294C47.9596 32.6282 46.0318 31.6447 44.5178 32.3328C43.0037 33.0209 42.4768 35.1199 43.3408 37.0211C44.2048 38.9223 46.1326 39.9057 47.6467 39.2177Z" stroke="#011859" stroke-width="0.515625" stroke-miterlimit="10"/>
<path d="M48.8232 34.5394L50.8445 33.7213" stroke="#011859" stroke-width="0.515625" stroke-miterlimit="10"/>
<path d="M47.4268 36.6284C47.7171 36.4965 47.7641 35.9748 47.5317 35.4631C47.2993 34.9515 46.8755 34.6437 46.5851 34.7756C46.2947 34.9075 46.2477 35.4292 46.4801 35.9408C46.7126 36.4525 47.1364 36.7603 47.4268 36.6284Z" fill="#011859"/>
<path d="M52.3887 33.9331C52.61 33.8326 52.6442 33.4317 52.4652 33.0376C52.2862 32.6435 51.9617 32.4054 51.7404 32.506C51.5192 32.6065 51.485 33.0074 51.664 33.4015C51.843 33.7956 52.1675 34.0336 52.3887 33.9331Z" fill="#011859"/>
<path d="M43.9006 45.8625C44.2567 46.2207 44.6509 46.5388 45.0762 46.8112C46.8018 47.9544 48.8653 48.4757 50.9268 48.2894M49.5793 33.2125C50.5212 35.1856 53.2231 36.9044 53.2231 36.9044C53.2231 36.9044 52.6387 38.52 52.0268 38.7469M42.9931 57.8938L51.7931 61.9706L51.4837 55.5356M20.23 90.55C18.3325 95.2113 22.8218 102.726 26.2731 104.884M2.86372 98.4425C2.08684 89.0994 10.8731 82.025 12.3168 81.3375M88.8218 90.5431C95.2775 91.0587 103.706 90.4537 108.697 85.5519M105.528 61.8194L115.043 69.6087M46.7262 115.506L45.2825 128.947M108.477 64.2325L105.844 70.8256M108.697 76.9581L111.826 69.8631M35.8087 117.397C35.8087 117.397 40.4287 119.542 44.9456 119.569M37.5 123.598C39.7092 124.247 41.9968 124.592 44.2993 124.622M57.8568 118.731C58.1456 119.013 62.03 119.569 62.03 119.569M55.8906 123.179C55.8906 123.179 59.1493 124.21 59.9331 124.361M22.6637 227.5C28.8512 211.949 36.2006 199.849 38.9368 190.629M91.6887 174.006C92.8262 181.614 93.5286 189.28 93.7925 196.968M68.0387 198.701C70.2731 214.087 65.6393 232.945 65.6393 232.945M65.6393 243.086L98.3575 239.408M19.1162 243.244L52.8862 242.35M34.2687 140.669C34.2687 140.669 3.85372 211.962 4.09434 217.717M73.2981 63.71L91.675 72.5856M73.7175 59.7019L89.7087 67.5325M82.4831 48.3581C85.1025 42.1706 88.6706 37.9425 94.3631 38.0937" stroke="#011859" stroke-width="0.515625" stroke-miterlimit="10"/>
</svg>
