<svg width="198" height="156" viewBox="0 0 198 156" fill="none" xmlns="http://www.w3.org/2000/svg">
<g clip-path="url(#clip0_427_177)">
<path d="M0 124.086V143.122C0 150.851 6.11721 155.777 15.0264 155.777C24.3978 155.777 30.1338 150.582 30.1338 142.6V124.086H22.2019V142.253C22.2019 146.605 19.6572 149.304 15.111 149.304C10.1285 149.304 7.93208 146.2 7.93208 142.6V124.086H0ZM33.9903 124.349V155.467H46.6239C53.621 155.467 59.5665 152.393 59.5665 146.296C59.5665 139.933 53.1014 138.522 53.1014 138.522C53.1014 138.522 57.8887 137.377 57.8887 131.933C57.8887 126.492 51.8378 124.349 46.6239 124.349H33.9903ZM41.9815 130.26H45.8166C48.4781 130.26 50.1811 131.467 50.1811 133.568C50.1811 135.447 48.7363 136.866 46.0184 136.866H41.9817V130.26H41.9815ZM41.9815 141.733H46.2201C50.2059 141.733 51.5879 143.497 51.5879 145.601C51.5879 148.05 49.8002 149.485 46.6239 149.485H41.9817V141.733L41.9815 141.733ZM62.5688 124.347H70.5413V155.465H62.5688V124.347ZM149.56 155.465H141.587V124.347H166.615V130.779H149.56V137.906H165.101V143.122H149.56V155.465ZM169.541 124.347V130.779H179.835V155.465H187.908V130.779H198V124.347H169.541ZM79.6427 145.118L73.3093 149.106C73.3093 149.106 75.4978 156 86.4694 156C93.7756 156 99.1519 152.328 99.1519 145.871C99.1519 135.467 82.2605 137.674 82.2605 132.323C82.2605 130.915 83.7144 129.671 86.3977 129.671C90.703 129.671 92.3393 133.309 92.3393 133.309L98.6745 129.479C98.6745 129.479 96.2001 123.798 86.7159 123.798C78.9216 123.798 74.7812 128.105 74.7812 132.549C74.7812 143.152 91.1808 140.851 91.1808 146.416C91.1808 148.294 89.4627 149.673 86.787 149.657C81.4855 149.657 79.6427 145.118 79.6427 145.118ZM119.739 123.784C110.35 123.784 106.165 128.173 106.165 128.173L107.376 129.216C107.376 129.216 101.302 132.932 101.302 140.912C101.302 150.095 109.524 155.993 119.783 155.993C131.702 155.993 138.465 148.418 138.465 139.902C138.465 130.821 130.744 123.784 119.739 123.784ZM119.909 130.243C126.274 130.243 130.404 134.434 130.404 139.875C130.404 145.26 126.324 149.567 119.909 149.567C113.571 149.567 109.407 145.755 109.407 140.695C109.407 136.09 113.028 134.084 113.028 134.084L111.716 132.954C111.716 132.954 114.507 130.243 119.909 130.243ZM95.3402 0C54.3942 0 36.7203 31.3915 36.7203 31.3915L41.9227 34.5993C41.9227 34.5993 35.3759 45.3227 35.557 59.0768C35.557 87.1544 61.5065 113.604 99.7063 113.604C134.409 113.604 163.076 89.275 163.076 59.1459C163.076 19.8506 127.697 0 95.3404 0H95.3402ZM95.6954 9.57884C127.686 9.57884 152.511 31.783 152.511 57.5964C152.511 84.9602 128.616 103.99 100.772 103.99C80.2793 103.99 61.793 90.549 61.793 72.12C61.793 61.476 68.3615 54.0551 75.7219 50.1001L76.799 51.1068C74.7848 52.4643 69.0412 60.4109 69.0412 68.2215C69.0412 82.721 82.2427 92.7631 98.8755 92.7631C120.063 92.7631 134.193 77.1985 134.193 59.1263C134.193 38.0995 112.644 20.2483 86.7113 20.2483C72.3678 20.2483 60.194 25.5613 53.1986 30.2516L52.11 29.4028C61.2618 17.249 77.1103 9.57884 95.6954 9.57884ZM86.1498 29.6939C102.699 29.6939 118.855 39.1236 122.888 52.5083L121.422 52.987C114.18 44.751 102.315 37.9255 88.304 37.9255C62.5221 37.9255 48.982 58.1042 50.9698 74.9576L49.4515 75.4365C49.4515 75.4365 46.6039 70.0246 46.6039 63.6072C46.6039 45.0235 64.3225 29.6939 86.1498 29.6939ZM97.0877 53.0165C104.923 53.0165 111.188 58.4862 111.188 64.9792C111.188 70.3522 107.183 73.5365 107.183 73.5365L111.927 76.3937C111.927 76.3937 107.223 82.755 97.6205 82.755C88.4351 82.755 80.3114 76.3693 80.3114 67.7822C80.3114 58.9339 89.1477 53.0165 97.0877 53.0165Z" fill="black"/>
</g>
<defs>
<clipPath id="clip0_427_177">
<rect width="198" height="156" fill="white"/>
</clipPath>
</defs>
</svg>
