<svg width="178" height="197" viewBox="0 0 178 197" fill="none" xmlns="http://www.w3.org/2000/svg">
<path fill-rule="evenodd" clip-rule="evenodd" d="M118.027 123.781L102.296 138.218L103.001 138.215L102.859 138.344H78.8931L90.929 138.279L74.8462 138.2L58.9253 123.781H118.027ZM125.961 116.5L148.969 95.3842V36.4691C148.969 32.413 145.743 29.125 141.875 29.125H35.4685C31.5509 29.125 28.375 32.356 28.375 36.4214V96.1126L50.8857 116.5H125.961ZM64.4886 21.8438L88.6719 0L112.855 21.8438H141.893C149.743 21.8438 156.062 28.3624 156.062 36.4035V60.8712L177.344 80.0938V182.074C177.344 190.081 170.98 196.594 163.131 196.594H14.213C6.31176 196.594 0 190.093 0 182.074V80.0938L21.2812 60.8712V36.4035C21.2812 28.3054 27.625 21.8438 35.4505 21.8438H64.4886ZM102.347 21.8438L88.6719 9.46563L74.9963 21.8438H102.347ZM156.062 70.4626L166.703 80.0938L156.062 89.8021V70.4626ZM21.2812 89.8021L10.6406 80.0938L21.2812 70.4626V89.8021ZM67.3906 145.625L17.7344 189.312H159.609L109.953 145.625H67.3906ZM168.016 187.311L113.5 138.468L140.5 113.5L170.25 87.375V134.703V182.032C170.25 184.093 169.392 185.977 168.016 187.311ZM9.32729 187.311L63.8438 138.468L7.09375 87.375V134.703V182.032C7.09375 184.093 7.95213 185.977 9.32729 187.311ZM42.5625 50.9688V58.25H134.781V50.9688H42.5625ZM42.5625 72.8125V80.0938H134.781V72.8125H42.5625ZM42.5625 94.6562V101.938H134.781V94.6562H42.5625Z" fill="black"/>
<path d="M67.3906 145.625L17.7344 189.312H159.609L109.953 145.625H67.3906Z" fill="#FFBC0E"/>
<path d="M9.32729 187.311L63.8438 138.468L7.09375 87.375V134.703V182.032C7.09375 184.093 7.95213 185.977 9.32729 187.311Z" fill="#FFBC0E"/>
<path d="M118.027 123.781L102.296 138.218L103.001 138.215L102.859 138.344H78.8931L90.929 138.279L74.8462 138.2L58.9253 123.781H118.027Z" fill="#FFBC0E"/>
<path d="M21.2812 89.8021L10.6406 80.0938L21.2812 70.4626V89.8021Z" fill="#FFBC0E"/>
<path d="M156.062 70.4626L166.703 80.0938L156.062 89.8021V70.4626Z" fill="#FFBC0E"/>
<path fill-rule="evenodd" clip-rule="evenodd" d="M125.961 116.5L148.969 95.3842V36.4691C148.969 32.413 145.743 29.125 141.875 29.125H35.4685C31.5509 29.125 28.375 32.356 28.375 36.4214V96.1126L50.8857 116.5H125.961ZM42.5625 58.25V50.9688H134.781V58.25H42.5625ZM42.5625 80.0938V72.8125H134.781V80.0938H42.5625ZM42.5625 101.938V94.6562H134.781V101.938H42.5625Z" fill="white"/>
<path d="M168.016 187.311L113.5 138.468L140.5 113.5L170.25 87.375V134.703V182.032C170.25 184.093 169.392 185.977 168.016 187.311Z" fill="#FFBC0E"/>
<path d="M102.347 21.8438L88.6719 9.46563L74.9963 21.8438H102.347Z" fill="#FFBC0E"/>
</svg>
