<svg width="144" height="128" viewBox="0 0 144 128" fill="none" xmlns="http://www.w3.org/2000/svg">
<path d="M22.5 76H58.5V104H22.5V76Z" fill="url(#paint0_linear_437_802)"/>
<path d="M11.925 56.96L36 76V104L11.925 123.04C9.01125 125.26 4.5 123.41 4.5 120V60C4.5 56.58 9.01125 54.74 11.925 56.96Z" fill="url(#paint1_linear_437_802)"/>
<path d="M36 76H54V104H36V76Z" fill="url(#paint2_linear_437_802)"/>
<path opacity="0.2" d="M9.0225 58.99C9.27 58.99 9.495 59.07 9.70875 59.23L33.75 78.24L34.7175 79H55.125V101H34.7175L33.75 101.76L9.72 120.77C9.495 120.93 9.27 121 9.0225 121C8.65125 121 7.875 120.76 7.875 120V60C7.875 59.7 7.9875 59.47 8.20125 59.29C8.42625 59.1 8.73 58.99 9.0225 58.99ZM9.0225 55.99C6.705 55.99 4.5 57.61 4.5 60V120C4.5 122.39 6.705 124.01 9.0225 124.01C10.0238 124.01 11.0475 123.71 11.925 123.04L36 104H58.5V76H36L11.925 56.96C11.0475 56.29 10.0238 55.99 9.0225 55.99Z" fill="#424242"/>
<path d="M130.5 119.94H61.7063C56.7338 119.94 52.7063 116.36 52.7063 111.94V68C52.7063 63.58 56.7338 60 61.7063 60H130.5C135.473 60 139.5 63.58 139.5 68V111.94C139.5 116.36 135.473 119.94 130.5 119.94Z" fill="url(#paint3_radial_437_802)"/>
<path d="M61.6163 108.66H97.3801C98.2688 108.66 99.0001 109.31 99.0001 110.1V110.56C99.0001 111.35 98.2688 112 97.3801 112H61.6163C60.7276 112 59.9963 111.35 59.9963 110.56V110.1C60.0076 109.31 60.7276 108.66 61.6163 108.66Z" fill="#0288D1"/>
<path d="M61.6163 102.66H97.3801C98.2688 102.66 99.0001 103.31 99.0001 104.1V104.56C99.0001 105.35 98.2688 106 97.3801 106H61.6163C60.7276 106 59.9963 105.35 59.9963 104.56V104.1C60.0076 103.31 60.7276 102.66 61.6163 102.66Z" fill="#0288D1"/>
<path d="M61.6163 96.6599H97.3801C98.2688 96.6599 99.0001 97.3099 99.0001 98.0999V98.5599C99.0001 99.3499 98.2688 99.9999 97.3801 99.9999H61.6163C60.7276 99.9999 59.9963 99.3499 59.9963 98.5599V98.0999C60.0076 97.3099 60.7276 96.6599 61.6163 96.6599Z" fill="#0288D1"/>
<path opacity="0.2" d="M130.5 63C133.605 63 136.125 65.24 136.125 68V111.94C136.125 114.7 133.605 116.94 130.5 116.94H61.7063C58.6013 116.94 56.0813 114.7 56.0813 111.94V68C56.0813 65.24 58.6013 63 61.7063 63H130.5ZM130.5 60H61.7063C56.7338 60 52.7063 63.58 52.7063 68V111.94C52.7063 116.36 56.7338 119.94 61.7063 119.94H130.5C135.473 119.94 139.5 116.36 139.5 111.94V68C139.5 63.58 135.473 60 130.5 60Z" fill="#424242"/>
<path d="M54 4C34.1213 4 18 18.33 18 36C18 53.67 34.1213 68 54 68C73.8787 68 90 53.67 90 36C90 18.33 73.89 4 54 4ZM58.8937 22.97L62.4263 12.78C62.6288 12.2 63.3263 11.88 63.9675 12.09C67.7363 13.33 71.2687 15.28 74.2837 17.97C77.7375 21.04 80.1112 24.69 81.4388 28.57C81.63 29.13 81.2475 29.72 80.6175 29.88L69.1425 32.87C68.5238 33.03 67.8713 32.73 67.68 32.19C67.0163 30.29 65.8462 28.49 64.1475 26.99C62.7863 25.78 61.2225 24.88 59.5575 24.26C58.995 24.05 58.7137 23.49 58.8937 22.97ZM27.3713 26.52C28.7662 23.41 30.8925 20.49 33.7275 17.97C36.7875 15.25 40.365 13.28 44.1675 12.05C44.8087 11.84 45.5175 12.18 45.7088 12.76L49.0838 23C49.2525 23.51 48.9713 24.06 48.42 24.27C46.7663 24.89 45.2138 25.79 43.8638 26.99C42.6713 28.05 41.7375 29.25 41.0513 30.53C40.8038 31 40.185 31.21 39.6337 31.06L28.1363 27.91C27.4838 27.73 27.1125 27.09 27.3713 26.52ZM49.77 49.26L46.2375 59.43C46.0462 60 45.36 60.32 44.73 60.13C40.7137 58.91 36.9338 56.88 33.7275 54.03C30.7462 51.38 28.5637 48.28 27.1687 44.98C26.9325 44.41 27.3038 43.78 27.9675 43.6L39.4762 40.6C40.05 40.45 40.68 40.68 40.9162 41.17C41.6025 42.56 42.5812 43.87 43.875 45.01C45.3937 46.36 47.1825 47.34 49.0725 47.96C49.6462 48.16 49.95 48.74 49.77 49.26ZM48.0375 41.3C44.7413 38.37 44.7413 33.62 48.0375 30.69C51.3338 27.76 56.6775 27.76 59.9738 30.69C63.27 33.62 63.27 38.37 59.9738 41.3C56.6775 44.23 51.3338 44.23 48.0375 41.3ZM81.3825 43.61C80.0437 47.42 77.6813 51.01 74.295 54.03C70.92 57.03 66.9038 59.12 62.64 60.31C62.01 60.49 61.335 60.15 61.155 59.59L57.7912 49.38C57.6112 48.84 57.9375 48.26 58.545 48.08C60.5925 47.48 62.5275 46.46 64.1587 45.01C65.8462 43.51 67.0163 41.72 67.68 39.83C67.8713 39.28 68.5462 38.98 69.165 39.15L80.595 42.29C81.2025 42.47 81.5737 43.06 81.3825 43.61Z" fill="url(#paint4_radial_437_802)"/>
<path d="M114.75 20C101.081 20 90 29.85 90 42C90 54.15 101.081 64 114.75 64C128.419 64 139.5 54.15 139.5 42C139.5 29.85 128.419 20 114.75 20ZM118.114 33.04L120.544 26.04C120.679 25.64 121.162 25.42 121.601 25.56C124.189 26.41 126.619 27.75 128.7 29.6C131.074 31.71 132.705 34.22 133.616 36.88C133.751 37.26 133.492 37.67 133.054 37.78L125.168 39.84C124.74 39.95 124.29 39.75 124.155 39.37C123.694 38.06 122.895 36.83 121.725 35.79C120.791 34.96 119.711 34.34 118.564 33.91C118.181 33.78 117.99 33.4 118.114 33.04ZM96.435 35.48C97.4025 33.34 98.8537 31.34 100.8 29.6C102.904 27.73 105.356 26.38 107.978 25.53C108.416 25.39 108.9 25.62 109.035 26.02L111.353 33.06C111.465 33.41 111.274 33.79 110.903 33.93C109.766 34.36 108.698 34.97 107.775 35.8C106.954 36.53 106.313 37.36 105.84 38.24C105.671 38.56 105.244 38.71 104.873 38.6L96.9638 36.43C96.5138 36.31 96.2663 35.87 96.435 35.48ZM111.836 51.12L109.406 58.11C109.271 58.5 108.799 58.72 108.371 58.59C105.604 57.75 103.005 56.35 100.811 54.39C98.7638 52.57 97.2562 50.44 96.3 48.17C96.1312 47.78 96.39 47.34 96.8512 47.22L104.771 45.16C105.165 45.06 105.593 45.22 105.761 45.55C106.234 46.51 106.909 47.41 107.798 48.19C108.844 49.12 110.07 49.79 111.375 50.22C111.757 50.36 111.96 50.76 111.836 51.12ZM110.779 45.54C108.585 43.59 108.585 40.42 110.779 38.47C112.973 36.52 116.539 36.52 118.733 38.47C120.926 40.42 120.926 43.59 118.733 45.54C116.528 47.49 112.973 47.49 110.779 45.54ZM133.571 47.23C132.649 49.85 131.029 52.32 128.7 54.39C126.383 56.45 123.615 57.89 120.69 58.71C120.251 58.83 119.79 58.6 119.666 58.21L117.349 51.19C117.225 50.82 117.45 50.42 117.866 50.3C119.272 49.89 120.6 49.19 121.725 48.19C122.884 47.16 123.694 45.93 124.144 44.63C124.279 44.25 124.74 44.05 125.156 44.16L133.009 46.32C133.448 46.45 133.706 46.85 133.571 47.23Z" fill="url(#paint5_radial_437_802)"/>
<g opacity="0.2">
<path d="M128.25 100C129.488 100 130.5 100.9 130.5 102C130.5 103.1 129.488 104 128.25 104C127.013 104 126 103.1 126 102C126 100.9 127.013 100 128.25 100ZM128.25 98C125.764 98 123.75 99.79 123.75 102C123.75 104.21 125.764 106 128.25 106C130.736 106 132.75 104.21 132.75 102C132.75 99.79 130.736 98 128.25 98Z" fill="#424242"/>
<path d="M128.25 108C129.488 108 130.5 108.9 130.5 110C130.5 111.1 129.488 112 128.25 112C127.013 112 126 111.1 126 110C126 108.9 127.013 108 128.25 108ZM128.25 106C125.764 106 123.75 107.79 123.75 110C123.75 112.21 125.764 114 128.25 114C130.736 114 132.75 112.21 132.75 110C132.75 107.79 130.736 106 128.25 106Z" fill="#424242"/>
</g>
<path d="M128.25 104C129.493 104 130.5 103.105 130.5 102C130.5 100.895 129.493 100 128.25 100C127.007 100 126 100.895 126 102C126 103.105 127.007 104 128.25 104Z" fill="url(#paint6_linear_437_802)"/>
<path d="M128.25 112C129.493 112 130.5 111.105 130.5 110C130.5 108.895 129.493 108 128.25 108C127.007 108 126 108.895 126 110C126 111.105 127.007 112 128.25 112Z" fill="url(#paint7_linear_437_802)"/>
<path opacity="0.2" d="M54 7C71.9888 7 86.625 20.01 86.625 36C86.625 51.99 71.9888 65 54 65C36.0112 65 21.375 51.99 21.375 36C21.375 20.01 36.0225 7 54 7ZM54 4C34.1213 4 18 18.33 18 36C18 53.67 34.1213 68 54 68C73.8787 68 90 53.67 90 36C90 18.33 73.89 4 54 4Z" fill="#424242"/>
<path opacity="0.2" d="M114.75 23C126.54 23 136.125 31.52 136.125 42C136.125 52.48 126.54 61 114.75 61C102.96 61 93.375 52.48 93.375 42C93.375 31.52 102.971 23 114.75 23ZM114.75 20C101.081 20 90 29.85 90 42C90 54.15 101.081 64 114.75 64C128.419 64 139.5 54.15 139.5 42C139.5 29.85 128.419 20 114.75 20Z" fill="#424242"/>
<path opacity="0.2" d="M44.5501 11.99C45.0676 11.99 45.5401 12.3 45.6976 12.76L49.0726 23C49.2414 23.51 48.9601 24.06 48.4089 24.27C46.7551 24.89 45.2026 25.79 43.8526 26.99C42.6601 28.05 41.7264 29.25 41.0401 30.54C40.8489 30.91 40.4214 31.12 39.9826 31.12C39.8589 31.12 39.7464 31.1 39.6226 31.07L28.1251 27.92C27.4614 27.74 27.1014 27.1 27.3601 26.53C28.7551 23.42 30.8814 20.5 33.7164 17.98C36.7764 15.26 40.3539 13.29 44.1564 12.06C44.2914 12.01 44.4264 11.99 44.5501 11.99ZM63.5739 12.03C63.7089 12.03 63.8439 12.05 63.9676 12.09C67.7364 13.33 71.2689 15.28 74.2839 17.97C77.7376 21.04 80.1114 24.69 81.4389 28.57C81.6301 29.13 81.2476 29.72 80.6176 29.88L69.1426 32.87C69.0301 32.9 68.9176 32.91 68.8051 32.91C68.2989 32.91 67.8376 32.63 67.6801 32.18C67.0164 30.28 65.8464 28.48 64.1476 26.98C62.7864 25.77 61.2226 24.87 59.5576 24.25C58.9951 24.04 58.7251 23.48 58.8939 22.97L62.4264 12.78C62.5951 12.33 63.0676 12.03 63.5739 12.03ZM54.0001 28.5C56.1601 28.5 58.3201 29.23 59.9626 30.7C63.2589 33.63 63.2589 38.38 59.9626 41.31C58.3201 42.77 56.1601 43.51 54.0001 43.51C51.8401 43.51 49.6801 42.78 48.0376 41.31C44.7414 38.38 44.7414 33.63 48.0376 30.7C49.6914 29.23 51.8514 28.5 54.0001 28.5ZM68.7939 39.11C68.9064 39.11 69.0301 39.13 69.1539 39.16L80.5839 42.3C81.2139 42.47 81.5739 43.06 81.3826 43.62C80.0438 47.43 77.6814 51.02 74.2951 54.04C70.9201 57.04 66.9039 59.13 62.6401 60.32C62.5276 60.35 62.4151 60.37 62.2914 60.37C61.7739 60.37 61.3013 60.06 61.1439 59.6L57.7801 49.39C57.6001 48.85 57.9264 48.27 58.5339 48.09C60.5814 47.49 62.5164 46.47 64.1476 45.02C65.8351 43.52 67.0051 41.73 67.6689 39.84C67.8264 39.39 68.2989 39.11 68.7939 39.11ZM39.8139 40.56C40.2751 40.56 40.7139 40.79 40.9051 41.17C41.5914 42.56 42.5701 43.87 43.8639 45.01C45.3826 46.36 47.1714 47.34 49.0614 47.96C49.6464 48.15 49.9389 48.73 49.7589 49.26L46.2376 59.43C46.0801 59.89 45.6076 60.19 45.1014 60.19C44.9776 60.19 44.8539 60.17 44.7301 60.14C40.7139 58.92 36.9339 56.89 33.7276 54.04C30.7464 51.39 28.5639 48.29 27.1689 44.99C26.9326 44.42 27.3039 43.79 27.9676 43.61L39.4764 40.61C39.5776 40.58 39.7014 40.56 39.8139 40.56ZM44.5501 10.99C44.2801 10.99 44.0214 11.03 43.7739 11.11C39.6676 12.44 36.0226 14.51 32.9176 17.26C30.0376 19.82 27.8214 22.81 26.3139 26.14C26.0776 26.66 26.1001 27.26 26.3814 27.77C26.6626 28.29 27.1801 28.69 27.7989 28.86L39.2964 32.01C39.5214 32.07 39.7576 32.1 39.9826 32.1C40.8714 32.1 41.6814 31.65 42.0526 30.95C42.7051 29.73 43.5714 28.64 44.6401 27.68C45.8439 26.61 47.2501 25.77 48.8364 25.18C49.9164 24.78 50.4676 23.72 50.1414 22.71L46.7664 12.47C46.4964 11.6 45.5739 10.99 44.5501 10.99ZM63.5739 11.03C62.5726 11.03 61.6614 11.63 61.3576 12.49L57.8251 22.68C57.4764 23.7 58.0276 24.77 59.1301 25.18C60.7276 25.77 62.1451 26.62 63.3601 27.7C64.8789 29.05 65.9701 30.66 66.6114 32.49C66.9151 33.34 67.7926 33.92 68.8164 33.92C69.0414 33.92 69.2551 33.89 69.4689 33.84L80.9439 30.85C81.5401 30.7 82.0464 30.33 82.3389 29.84C82.6314 29.36 82.6989 28.8 82.5189 28.28C81.1014 24.14 78.5364 20.34 75.0826 17.27C72.0226 14.55 68.4114 12.49 64.3614 11.16C64.1026 11.07 63.8439 11.03 63.5739 11.03ZM54.0001 27.5C51.4464 27.5 49.0501 28.38 47.2389 29.99C43.5151 33.3 43.5151 38.7 47.2389 42.01C49.0501 43.62 51.4464 44.5 54.0001 44.5C56.5539 44.5 58.9501 43.62 60.7614 42.01C64.4851 38.7 64.4851 33.3 60.7614 29.99C58.9613 28.39 56.5651 27.5 54.0001 27.5ZM68.7939 38.11C67.7814 38.11 66.8926 38.68 66.6001 39.54C65.9589 41.36 64.8676 42.97 63.3489 44.31C61.8864 45.61 60.1539 46.56 58.1739 47.14C56.9926 47.49 56.3401 48.6 56.7001 49.67L60.0639 59.88C60.3564 60.76 61.2676 61.37 62.2914 61.37C62.5276 61.37 62.7526 61.34 62.9776 61.28C67.5226 60.01 71.7076 57.75 75.0826 54.75C78.4801 51.73 81.0339 47.99 82.4514 43.92C82.6314 43.4 82.5751 42.85 82.2826 42.37C81.9901 41.88 81.5064 41.52 80.8989 41.35L69.4801 38.2C69.2664 38.14 69.0301 38.11 68.7939 38.11ZM39.8139 39.56C39.5889 39.56 39.3639 39.59 39.1501 39.65L27.6414 42.65C27.0226 42.81 26.4939 43.2 26.2126 43.72C25.9314 44.23 25.8976 44.82 26.1114 45.34C27.6076 48.89 29.9026 52.05 32.9289 54.74C36.1914 57.64 40.0389 59.77 44.3701 61.08C44.6064 61.15 44.8539 61.19 45.1014 61.19C46.1026 61.19 47.0139 60.59 47.3176 59.73L50.8501 49.56C51.2101 48.51 50.6026 47.4 49.4664 47.03C47.6551 46.44 46.0464 45.53 44.6739 44.31C43.5264 43.29 42.6151 42.1 41.9514 40.77C41.5689 40.04 40.7364 39.56 39.8139 39.56Z" fill="#424242"/>
<path opacity="0.2" d="M108.259 25.49C108.607 25.49 108.945 25.7 109.046 26.02L111.364 33.06C111.476 33.41 111.285 33.79 110.914 33.93C109.777 34.36 108.709 34.97 107.786 35.8C106.965 36.53 106.324 37.36 105.851 38.24C105.716 38.49 105.424 38.64 105.12 38.64C105.041 38.64 104.951 38.63 104.872 38.61L96.9636 36.44C96.5136 36.32 96.2549 35.87 96.4349 35.48C97.4024 33.34 98.8536 31.34 100.8 29.6C102.904 27.73 105.356 26.38 107.977 25.53C108.079 25.51 108.169 25.49 108.259 25.49ZM121.331 25.52C121.421 25.52 121.511 25.53 121.601 25.56C124.189 26.41 126.619 27.75 128.7 29.6C131.074 31.71 132.705 34.22 133.616 36.88C133.751 37.26 133.492 37.67 133.054 37.78L125.167 39.84C125.089 39.86 125.01 39.87 124.931 39.87C124.582 39.87 124.267 39.68 124.155 39.37C123.694 38.06 122.895 36.83 121.725 35.79C120.791 34.96 119.711 34.34 118.564 33.91C118.181 33.77 117.99 33.38 118.114 33.03L120.544 26.03C120.656 25.73 120.982 25.52 121.331 25.52ZM114.75 37C116.19 37 117.63 37.49 118.732 38.46C120.926 40.41 120.926 43.58 118.732 45.53C117.63 46.51 116.19 47 114.75 47C113.31 47 111.87 46.51 110.767 45.54C108.574 43.59 108.574 40.42 110.767 38.47C111.87 37.49 113.31 37 114.75 37ZM124.92 44.14C124.999 44.14 125.077 44.15 125.167 44.17L133.02 46.33C133.447 46.45 133.706 46.85 133.571 47.24C132.649 49.86 131.029 52.33 128.7 54.4C126.382 56.46 123.615 57.9 120.69 58.72C120.611 58.74 120.532 58.75 120.454 58.75C120.105 58.75 119.767 58.54 119.666 58.22L117.349 51.2C117.225 50.83 117.45 50.43 117.866 50.31C119.272 49.9 120.6 49.2 121.725 48.2C122.884 47.17 123.694 45.94 124.144 44.64C124.256 44.33 124.571 44.14 124.92 44.14ZM104.996 45.14C105.311 45.14 105.615 45.3 105.75 45.56C106.222 46.52 106.897 47.42 107.786 48.2C108.832 49.13 110.059 49.8 111.364 50.23C111.769 50.36 111.971 50.76 111.847 51.12L109.417 58.11C109.305 58.42 108.979 58.63 108.63 58.63C108.551 58.63 108.461 58.62 108.371 58.59C105.604 57.75 103.005 56.35 100.811 54.39C98.7636 52.57 97.2561 50.44 96.2999 48.17C96.1311 47.78 96.3899 47.34 96.8511 47.22L104.771 45.16C104.839 45.15 104.917 45.14 104.996 45.14ZM108.259 24.49C108.034 24.49 107.82 24.52 107.606 24.59C104.737 25.52 102.184 26.97 100.012 28.89C97.9986 30.68 96.4461 32.77 95.3999 35.1C95.1974 35.54 95.2199 36.04 95.4561 36.47C95.6924 36.91 96.1199 37.24 96.6486 37.38L104.557 39.55C104.749 39.6 104.94 39.63 105.131 39.63C105.874 39.63 106.56 39.25 106.875 38.66C107.302 37.86 107.876 37.13 108.585 36.5C109.384 35.79 110.317 35.24 111.352 34.85C112.252 34.51 112.725 33.62 112.455 32.78L110.137 25.74C109.879 25.01 109.114 24.49 108.259 24.49ZM121.331 24.52C120.487 24.52 119.722 25.02 119.475 25.75L117.045 32.75C116.752 33.61 117.214 34.51 118.136 34.85C119.194 35.24 120.127 35.8 120.937 36.51C121.939 37.4 122.67 38.47 123.086 39.68C123.334 40.4 124.076 40.88 124.931 40.88C125.122 40.88 125.302 40.86 125.482 40.81L133.369 38.75C133.864 38.62 134.291 38.31 134.539 37.91C134.786 37.5 134.842 37.04 134.685 36.6C133.695 33.71 131.895 31.04 129.487 28.9C127.339 26.99 124.819 25.56 121.984 24.63C121.781 24.56 121.556 24.52 121.331 24.52ZM114.75 36C112.95 36 111.251 36.62 109.98 37.76C107.347 40.1 107.347 43.91 109.98 46.24C111.251 47.38 112.95 48 114.75 48C116.55 48 118.249 47.38 119.52 46.24C122.152 43.9 122.152 40.09 119.52 37.76C118.249 36.63 116.55 36 114.75 36ZM124.92 43.14C124.065 43.14 123.322 43.62 123.075 44.34C122.647 45.54 121.927 46.6 120.926 47.49C119.959 48.35 118.811 48.98 117.506 49.36C116.516 49.65 115.965 50.58 116.269 51.48L118.586 58.5C118.834 59.24 119.599 59.75 120.454 59.75C120.645 59.75 120.836 59.72 121.027 59.67C124.2 58.78 127.136 57.2 129.499 55.1C131.872 52.99 133.661 50.37 134.651 47.53C134.809 47.09 134.752 46.63 134.516 46.22C134.269 45.81 133.864 45.5 133.357 45.37L125.505 43.21C125.314 43.17 125.111 43.14 124.92 43.14ZM104.996 44.14C104.805 44.14 104.625 44.16 104.434 44.21L96.5136 46.27C95.9961 46.41 95.5574 46.73 95.3099 47.16C95.0736 47.59 95.0399 48.08 95.2311 48.52C96.2774 51 97.8861 53.21 100.001 55.1C102.274 57.12 104.974 58.62 108 59.53C108.202 59.59 108.405 59.62 108.619 59.62C109.462 59.62 110.227 59.12 110.475 58.4L112.905 51.41C113.209 50.53 112.691 49.6 111.735 49.28C110.542 48.89 109.474 48.29 108.574 47.48C107.82 46.81 107.212 46.02 106.774 45.14C106.47 44.54 105.772 44.14 104.996 44.14Z" fill="#424242"/>
<defs>
<linearGradient id="paint0_linear_437_802" x1="40.4977" y1="76.374" x2="40.4977" y2="103.66" gradientUnits="userSpaceOnUse">
<stop stop-color="#29B6F6"/>
<stop offset="0.9957" stop-color="#0277BD"/>
</linearGradient>
<linearGradient id="paint1_linear_437_802" x1="20.2489" y1="61.375" x2="20.2489" y2="115.13" gradientUnits="userSpaceOnUse">
<stop stop-color="#29B6F6"/>
<stop offset="0.9957" stop-color="#0277BD"/>
</linearGradient>
<linearGradient id="paint2_linear_437_802" x1="51.597" y1="89.998" x2="37.08" y2="89.998" gradientUnits="userSpaceOnUse">
<stop stop-color="#0288D1"/>
<stop offset="1" stop-color="#0288D1" stop-opacity="0"/>
</linearGradient>
<radialGradient id="paint3_radial_437_802" cx="0" cy="0" r="1" gradientUnits="userSpaceOnUse" gradientTransform="translate(95.9434 61.1537) scale(68.4413 61.8085)">
<stop stop-color="#81D4FA"/>
<stop offset="1" stop-color="#039BE5"/>
</radialGradient>
<radialGradient id="paint4_radial_437_802" cx="0" cy="0" r="1" gradientUnits="userSpaceOnUse" gradientTransform="translate(54.4275 5.6288) scale(69.4879 61.767)">
<stop stop-color="#42A5F5"/>
<stop offset="0.9891" stop-color="#1565C0"/>
</radialGradient>
<radialGradient id="paint5_radial_437_802" cx="0" cy="0" r="1" gradientUnits="userSpaceOnUse" gradientTransform="translate(115.031 20.753) scale(48.7935 43.372)">
<stop stop-color="#42A5F5"/>
<stop offset="0.9891" stop-color="#1565C0"/>
</radialGradient>
<linearGradient id="paint6_linear_437_802" x1="128.25" y1="99.748" x2="128.25" y2="103.76" gradientUnits="userSpaceOnUse">
<stop stop-color="#FF1744"/>
<stop offset="1" stop-color="#D50000"/>
</linearGradient>
<linearGradient id="paint7_linear_437_802" x1="128.25" y1="107.75" x2="128.25" y2="111.76" gradientUnits="userSpaceOnUse">
<stop stop-color="#76FF03"/>
<stop offset="1" stop-color="#64DD17"/>
</linearGradient>
</defs>
</svg>
