<svg width="552" height="143" viewBox="0 0 552 143" fill="none" xmlns="http://www.w3.org/2000/svg">
<path fill-rule="evenodd" clip-rule="evenodd" d="M166.808 115.319C166.808 112.561 169.585 113.633 169.585 112.561C169.585 112.101 168.441 112.254 168.278 112.254C166.972 112.254 165.665 112.41 164.362 112.41C163.218 112.41 162.238 112.254 161.095 112.254C160.932 112.254 160.278 112.254 160.278 112.561C160.278 113.787 163.545 112.867 163.545 115.168V128.181C163.545 134.154 165.665 139.973 176.438 139.973C188.521 139.973 188.028 130.329 188.028 128.493V116.391C188.028 112.87 190.475 113.633 190.475 112.564C190.475 112.413 190.148 112.257 189.988 112.257C189.171 112.257 188.351 112.413 187.701 112.413C186.068 112.413 184.435 112.257 182.805 112.257C182.641 112.257 182.315 112.413 182.315 112.564C182.315 114.096 186.234 112.413 186.234 116.391V128.95C186.234 133.549 184.438 138.296 176.765 138.296C171.052 138.296 166.808 135.538 166.808 129.262V115.319ZM212.194 134.156C212.192 134.156 212.191 134.158 212.191 134.16C212.189 139.519 208.597 137.834 208.597 139.21C208.597 139.366 208.597 139.67 209.087 139.67C209.414 139.67 211.537 139.519 213.007 139.519C214.967 139.519 216.271 139.67 217.254 139.67C217.58 139.67 217.58 139.363 217.58 139.06C217.58 138.14 213.987 139.366 213.987 135.998V120.069C213.987 119.303 214.151 119.149 214.314 119.149C214.32 119.149 214.326 119.15 214.333 119.15C215.081 119.215 215.39 120.19 215.906 120.737L232.923 138.759C233.74 139.675 234.23 139.829 234.557 139.829C234.883 139.829 234.883 139.213 234.883 138.143V115.628C234.883 112.87 237.333 113.486 237.333 112.567C237.333 112.26 237.17 112.26 236.843 112.26C235.863 112.26 234.07 112.416 232.763 112.416C231.457 112.416 230.15 112.26 229.01 112.26C228.683 112.26 228.52 112.26 228.52 112.567C228.52 113.792 233.09 112.416 233.09 117.47V133.7V133.7C233.09 134.052 232.784 134.025 232.527 133.785L232.437 133.7L212.684 113.026C212.52 112.87 212.194 112.26 211.704 112.26C211.05 112.26 210.397 112.416 209.744 112.416C209.091 112.416 208.44 112.26 207.787 112.26C207.624 112.26 207.297 112.416 207.297 112.567C207.297 113.949 212.197 111.8 212.197 119.765V134.153C212.197 134.155 212.196 134.156 212.194 134.156V134.156ZM260.186 135.382C260.184 135.382 260.183 135.384 260.183 135.386C260.181 139.209 256.917 137.984 256.917 139.06C256.917 139.366 257.083 139.67 257.897 139.67C258.387 139.67 259.203 139.519 261.816 139.519C263.613 139.519 265.409 139.67 266.223 139.67C267.036 139.67 267.203 139.519 267.203 139.21C267.203 138.14 263.45 138.903 263.45 136.305V115.478C263.45 112.567 266.389 113.486 266.389 112.567C266.389 112.26 266.226 112.26 265.573 112.26C264.43 112.26 263.126 112.416 261.819 112.416C260.35 112.416 258.719 112.26 257.25 112.26C256.923 112.26 256.923 112.26 256.923 112.567C256.923 113.486 260.189 112.723 260.189 115.478V135.379C260.189 135.381 260.188 135.382 260.186 135.382V135.382ZM298.056 137.834C298.382 138.6 298.872 140.285 299.522 140.285C300.179 140.285 300.502 138.903 300.996 137.984L311.276 115.171C312.422 112.564 313.565 113.486 313.565 112.72C313.565 112.413 313.239 112.26 312.909 112.26C312.259 112.26 311.602 112.416 309.645 112.416C308.829 112.416 307.849 112.26 306.872 112.26C306.545 112.26 306.382 112.26 306.382 112.72C306.382 113.398 307.812 113.155 308.556 113.665C309.126 114.055 309.089 114.909 308.962 115.587C308.836 116.254 308.554 116.916 308.339 117.314L301.156 133.853C300.996 134.313 300.829 134.923 300.506 134.923C300.016 134.923 299.689 134.156 298.872 132.017L291.523 116.088C291.304 115.603 291.193 115.082 291.196 114.556C291.196 113.617 292.032 113.318 292.512 113.028C292.857 112.819 292.749 112.257 292.346 112.257V112.257C291.689 112.257 290.222 112.413 289.076 112.413C287.769 112.413 286.463 112.257 285.323 112.257C284.833 112.257 284.672 112.413 284.672 112.717C284.672 113.633 286.796 112.867 287.936 115.168L298.056 137.834ZM337.236 116.241C337.234 116.241 337.232 116.239 337.232 116.236C337.232 113.633 337.074 113.789 341.152 113.789C342.785 113.789 347.028 113.633 348.168 114.859C348.825 115.778 348.168 117.617 349.148 117.617C349.315 117.617 349.965 117.311 349.965 113.023C349.965 112.564 349.798 112.257 349.475 112.257C348.335 112.257 344.415 112.413 343.598 112.413C341.965 112.413 339.685 112.257 332.012 112.257C330.705 112.257 330.539 112.413 330.539 112.717V112.717C330.539 113.636 332.231 113.256 332.975 113.796C333.968 114.516 333.968 115.882 333.968 117.154V134.92C333.968 136.605 333.808 137.831 332.828 138.294C331.522 138.903 331.032 138.753 331.032 139.21C331.032 139.519 331.198 139.67 331.688 139.67C333.321 139.67 334.951 139.519 336.585 139.519C339.848 139.363 342.951 139.67 346.051 139.67C347.848 139.67 348.831 139.67 350.138 138.294C351.114 137.374 352.261 135.998 352.261 134.616C352.261 134.46 352.094 134.156 351.931 134.156C351.281 134.156 349.974 138.14 340.344 138.14C336.914 138.14 337.241 137.221 337.241 134.923V127.73C337.241 127.114 337.081 126.504 338.058 126.504H344.101C347.531 126.504 346.224 129.872 347.364 129.872C347.691 129.872 347.854 129.716 347.854 129.412V126.351V122.367C347.854 122.061 347.688 121.757 347.364 121.757C346.387 121.757 347.531 124.819 343.284 124.819H338.874C337.084 124.819 337.241 124.819 337.241 123.437V116.246C337.241 116.243 337.239 116.241 337.236 116.241V116.241ZM388.799 133.012C386.174 129.263 388.817 123.419 388.817 118.843V118.843C388.817 111.338 379.677 112.26 379.027 112.26C376.904 112.26 374.457 112.416 372.168 112.416C370.044 112.416 370.211 112.26 369.554 112.26C369.064 112.26 368.738 112.416 368.738 112.72C368.738 113.946 372.168 112.413 372.168 116.088V135.845C372.168 138.756 369.228 138.296 369.228 139.213C369.228 139.369 369.394 139.673 369.554 139.673C371.188 139.673 372.824 139.522 374.291 139.522C377.721 139.522 378.694 139.673 379.027 139.673C379.354 139.673 379.844 139.673 379.844 139.366C379.844 137.984 375.434 139.21 375.434 135.845V127.73C375.434 127.27 375.274 126.654 376.58 126.654C381.15 126.654 380.494 126.504 382.127 128.646L386.697 135.385C388.17 137.681 389.8 139.673 392.907 139.673C393.233 139.673 395.514 139.673 395.514 139.213C395.514 138.296 393.557 139.673 390.46 135.385L388.799 133.012ZM375.431 114.859C375.431 113.327 376.411 113.483 377.878 113.483C381.964 113.483 385.717 115.015 385.717 119.762C385.717 124.66 381.797 125.275 380.001 125.275C378.044 125.275 375.431 125.426 375.431 124.816V114.859ZM413.63 137.834C413.797 138.444 417.55 139.976 420.647 139.976C429.953 139.976 432.4 135.079 432.4 131.705C432.4 121.138 415.75 125.275 415.75 118.077C415.75 114.399 419.18 113.023 422.443 113.023C425.722 113.023 428.585 114.424 429.934 117.222C430.201 117.776 430.364 118.39 430.731 118.883C430.846 119.036 430.969 119.146 431.093 119.146C431.583 119.146 431.583 118.996 431.583 118.693L430.933 113.33C430.933 112.87 430.767 112.87 430.443 112.87C430.12 112.87 429.953 113.179 429.627 113.179C429.137 113.179 427.67 111.798 422.767 111.798C417.87 111.798 413.467 114.249 413.467 119.146C413.467 129.259 430.283 125.119 430.283 132.474C430.283 136.605 426.523 138.597 422.61 138.597C416.894 138.597 414.287 134.613 413.793 132.777C413.627 132.011 413.627 131.552 413.137 131.552C412.653 131.552 412.487 132.011 412.653 132.777L413.63 137.834ZM454.771 135.382C454.77 135.382 454.769 135.383 454.769 135.384C454.768 139.21 451.506 137.984 451.506 139.06C451.506 139.366 451.672 139.67 452.323 139.67C452.973 139.67 453.789 139.519 456.402 139.519C458.036 139.519 459.832 139.67 460.812 139.67C461.462 139.67 461.629 139.519 461.629 139.21C461.629 138.14 458.033 138.903 458.033 136.305V115.478C458.033 112.567 460.972 113.486 460.972 112.567C460.972 112.26 460.812 112.26 460.156 112.26C458.849 112.26 457.543 112.416 456.402 112.416C454.769 112.416 453.306 112.26 451.833 112.26C451.506 112.26 451.343 112.26 451.343 112.567C451.343 113.486 454.606 112.723 454.772 115.478V135.381C454.772 135.382 454.772 135.382 454.771 135.382V135.382ZM491.015 136.302C491.013 136.302 491.012 136.303 491.012 136.305C491.009 138.597 487.742 138.138 487.742 139.06C487.742 139.519 487.742 139.67 488.232 139.67C488.399 139.67 489.212 139.519 493.785 139.519C495.092 139.519 496.232 139.67 497.215 139.67C497.538 139.67 497.542 139.22 497.542 139.21C497.542 139.21 497.542 139.21 497.542 139.209C497.541 137.984 494.278 139.209 494.278 135.998V116.241C494.278 114.093 493.952 114.249 495.911 114.249H501.788C506.034 114.249 503.745 117.311 505.218 117.311C505.868 117.311 505.708 116.851 505.708 116.391L505.541 113.33C505.541 112.413 505.215 112.26 504.401 112.26C503.588 112.26 499.665 112.416 492.158 112.416C486.932 112.416 483.668 112.26 480.571 112.26C479.749 112.26 479.749 113.179 479.749 113.636L479.265 117.47C479.265 117.62 479.425 117.924 479.749 117.924C480.239 117.924 480.239 117.47 480.405 117.007C481.222 114.859 481.222 114.249 483.835 114.249H489.159C490.069 114.249 491.018 114.513 491.035 115.422C491.04 115.713 491.018 115.973 491.018 116.085V136.298C491.018 136.3 491.017 136.302 491.015 136.302V136.302ZM532.308 124.972C532.634 125.426 533.124 126.192 533.124 126.964V136.305C533.124 139.063 530.028 138.14 530.028 139.21C530.028 139.67 530.188 139.67 530.678 139.67C531.004 139.67 532.474 139.519 534.431 139.519C535.904 139.519 538.351 139.67 538.841 139.67C539.491 139.67 539.818 139.67 539.818 139.21C539.818 137.984 536.388 139.06 536.388 135.689V126.192C536.388 125.738 536.718 125.426 537.534 124.512L543.244 116.088C543.901 115.171 544.384 113.946 545.534 113.33C545.861 113.179 546.511 113.023 546.511 112.72C546.511 112.416 546.351 112.26 546.027 112.26C544.881 112.26 543.737 112.416 542.431 112.416C541.451 112.416 540.474 112.26 539.491 112.26C539.001 112.26 538.674 112.26 538.674 112.72C538.674 113.636 541.771 112.87 541.771 114.862C541.771 115.141 541.712 115.405 541.619 115.647C541.27 116.561 540.526 117.27 539.996 118.092L536.548 123.437C536.221 123.896 536.058 124.209 535.731 124.209C535.565 124.209 535.241 123.899 534.915 123.437L530.805 117.143C530.282 116.342 529.489 115.669 529.242 114.744C529.212 114.632 529.195 114.517 529.195 114.402C529.195 113.333 531.158 113.182 531.158 112.567C531.158 112.26 530.668 112.26 530.342 112.26C530.015 112.26 528.869 112.416 527.562 112.416C524.622 112.416 523.972 112.26 522.832 112.26C522.505 112.26 522.175 112.567 522.175 112.72C522.175 113.486 524.299 113.026 525.279 114.556L532.308 124.972ZM454.603 8.27102C458.689 8.27102 462.119 11.4858 462.119 15.3164C462.119 19.3002 458.689 22.515 454.603 22.515C450.363 22.515 447.093 19.3002 447.093 15.3164C447.091 14.3906 447.284 13.4736 447.66 12.6179C448.037 11.7623 448.59 10.9848 449.288 10.3302C449.986 9.67561 450.814 9.15674 451.726 8.80337C452.638 8.44999 453.616 8.26907 454.603 8.27102ZM526.431 83.7693C526.105 86.8367 524.475 88.8227 518.271 90.5082C513.729 91.9278 513.958 94.1366 517.911 94.5755C518.579 94.6497 519.26 94.598 519.927 94.5087C532.529 92.82 536.859 93.1441 548.631 94.3359C553.367 94.3359 552.551 91.4305 549.611 90.2047C543.065 87.7774 541.625 87.6146 540.273 82.2542C540.066 81.4343 539.978 80.5879 539.972 79.7424L539.491 14.8567C539.491 11.0291 540.964 6.58555 536.718 7.65812C528.718 10.5664 528.061 10.8758 520.718 13.3245C516.798 14.8567 518.271 16.5392 521.045 17.4586C524.964 18.9908 525.291 21.136 525.615 23.8911L526.431 83.7693ZM485.135 83.3155C484.805 86.5273 483.172 88.5192 476.969 90.2047C472.483 91.4706 472.521 93.6292 476.448 94.216C477.225 94.3321 478.018 94.2811 478.797 94.1776C491.271 92.519 495.615 92.8401 507.335 94.0294C511.905 93.8791 511.248 91.124 508.312 89.7421C501.619 87.3156 500.312 87.1521 498.974 81.7971C498.769 80.9733 498.679 80.1234 498.672 79.2743L498.192 14.5473C498.192 11.0107 499.449 6.94838 496.291 7.07618C495.707 7.09981 495.142 7.29936 494.595 7.50505C487.205 10.2835 486.352 10.6433 479.419 12.8619C475.505 14.3941 476.972 16.2299 479.745 16.996C483.665 18.5282 483.992 20.8236 484.155 23.4284L485.135 83.3155ZM447.424 57.2792C447.425 57.2792 447.426 57.2784 447.426 57.2775C447.112 54.0756 446.657 51.5678 443.108 50.4057C442.724 50.2798 442.317 50.2243 441.922 50.1375C439.404 49.5847 438.42 47.3673 442.363 45.9435C450.382 43.5816 451.736 43.0686 457.661 38.652C458.123 38.3077 458.6 37.9568 459.157 37.8084C460.627 37.4165 461.996 38.1554 461.733 40.2128C461.634 40.9853 461.402 41.7384 461.318 42.5126C461.128 44.2641 461.105 45.4954 460.969 47.7822V82.24C461.299 87.9093 466.029 88.8227 468.969 89.9012C471.909 90.9708 472.232 94.3388 468.642 94.3388C456.148 92.7111 453.001 92.5142 441.378 94.7348C440.621 94.8795 439.845 94.99 439.083 94.8691C435.891 94.3627 435.696 91.7265 440.4 90.2076C445.46 88.5222 447.259 87.6058 447.423 83.4687V57.2807C447.423 57.2799 447.423 57.2792 447.424 57.2792V57.2792ZM332.012 50.997C334.951 21.5927 355.028 9.34064 383.271 7.19845C413.14 7.35168 417.383 9.18741 416.893 24.8104C417.06 30.4767 413.14 31.7025 410.367 25.4233C407.241 19.8483 404.711 16.5232 397.902 13.6967C397.293 13.4441 396.649 13.2556 396.002 13.1335C370.707 8.36175 352.24 23.7686 351.108 49.7771C349.318 86.8426 393.554 97.7127 402.694 83.7752C404.518 80.5025 404.647 71.9381 404.522 64.3509C404.504 63.2169 404.387 62.0498 403.794 61.0827C401.638 57.5628 396.898 58.0134 392.41 57.7418C386.694 58.2015 384.737 52.2287 392.244 52.2287C399.47 52.2287 413.005 52.9692 430.523 51.3924C431.122 51.3384 431.732 51.3098 432.327 51.4052C436.827 52.127 436.751 56.1015 430.61 56.8225C428.045 57.2466 422.842 57.2794 421.413 60.6509C421.163 61.2387 421.126 61.9049 421.112 62.5432C420.643 84.298 425.777 86.4689 407.917 92.506C384.734 97.5595 359.761 95.264 345.718 82.5494C339.355 77.1865 331.522 65.2409 332.012 50.997ZM272.263 66.0071C274.876 41.6562 296.426 35.8366 307.522 35.8366C320.748 36.1431 324.992 40.2802 325.152 44.4143C325.152 48.5484 322.055 50.6935 318.625 49.7741C311.761 48.1636 312.796 41.5188 304.496 40.3994C303.692 40.291 302.867 40.3229 302.074 40.492C291.859 42.6696 285.719 53.808 287.609 67.0796C289.347 80.3092 302.788 90.3677 319.399 83.2379C320.41 82.8039 321.466 82.3403 322.561 82.4541C325.168 82.7253 324.963 85.3216 322.055 87.1461C290.222 105.518 270.956 79.482 272.263 66.0071ZM174.155 24.9636C173.53 17.0524 170.965 18.951 164.744 16.986C164.162 16.8022 163.566 16.6457 162.977 16.486C158.285 15.2141 158.146 11.9281 163.382 11.639C172.41 12.3451 177.276 12.5305 184.371 11.5959C185.606 11.4332 186.876 11.3825 188.068 11.7455C190.568 12.5069 191.856 13.9312 192.928 16.6925C199.784 30.3235 209.741 50.6935 216.597 64.3216C217.904 66.7732 218.557 67.2299 220.027 64.0151L240.267 15.6199C242.553 11.4858 245 10.5664 252.023 11.1793C264.263 11.3326 267.203 11.0261 273.243 10.4132C277.742 10.5494 277.985 13.4667 274.43 15.0823C273.46 15.5229 272.374 15.6052 271.31 15.6591C265.197 15.9684 261.662 18.1144 260.13 22.2747C259.78 23.2267 259.704 24.2511 259.725 25.2653L260.836 79.3317C262.09 87.2693 266.35 87.8689 274.048 89.6649C274.704 89.8181 275.363 90.0065 275.94 90.3563C277.74 91.4485 277.769 92.8239 276.607 93.7696C275.527 94.6492 273.994 94.5676 272.608 94.4258C256.898 92.819 250.817 93.0234 234.39 94.4891C229.491 94.9488 229.164 90.9679 234.554 89.8953C238.788 88.9519 240.893 88.1541 242.269 86.7689C243.604 85.4257 243.833 83.3954 243.787 81.5026L242.55 30.7802C242.387 28.6351 240.917 28.6351 240.1 31.0867L215.941 87.5999C213.654 92.4972 212.674 92.4972 210.228 88.6695L181.661 30.7802C180.845 28.7883 179.702 29.4012 179.702 30.627L179.865 81.7774C180.681 87.7502 185.088 88.0566 194.065 90.6644C194.788 90.8907 195.313 91.224 195.637 91.6129C197.195 93.4795 193.248 94.5409 190.824 94.3556C176.723 93.2779 173.088 93.4186 158.312 95.2582C155.914 95.2582 154.756 92.292 157.61 91.4467C158.172 91.2803 158.761 91.1967 159.327 91.0456C166.459 89.1424 169.011 88.7298 170.24 85.2873C170.487 84.5965 170.578 83.8605 170.622 83.1283L174.155 24.9636Z" fill="#CF4037"/>
<path fill-rule="evenodd" clip-rule="evenodd" d="M3.23833 65.5475C-1.60772 49.6341 0.268177 34.6552 0.821944 17.5506C0.972069 12.9136 3.60707 8.62154 7.9522 6.99542C25.0655 0.590969 42.3151 0 60.7005 0C76.5821 0 98.2328 1.64794 113.67 7.31279C117.565 8.74215 120.021 12.4675 120.331 16.6051C121.568 33.1481 121.775 48.6625 117.016 67.9962C112.114 88.5538 98.2955 116.531 67.5937 138.377C63.8439 141.045 58.8331 141.075 55.0319 138.48C21.7455 115.759 10.3177 89.2247 3.23833 65.5475Z" fill="white"/>
<path fill-rule="evenodd" clip-rule="evenodd" d="M4.87189 65.7006C0.335459 50.4046 2.07731 36.0331 2.61383 19.4745C2.76549 14.7941 5.45041 10.4705 9.85036 8.86745C26.3709 2.84854 42.8293 2.14502 60.5375 2.14502C75.8997 2.14502 96.7186 3.77383 111.755 9.15658C115.718 10.5752 118.216 14.3577 118.5 18.5572C119.581 34.5578 119.667 49.4661 115.223 68.1493C110.483 87.9475 97.1447 115.007 67.5621 136.101C63.8323 138.761 58.848 138.799 55.0584 136.226C22.8907 114.379 11.7854 88.6136 4.87189 65.7006Z" fill="#CF4037"/>
<path fill-rule="evenodd" clip-rule="evenodd" d="M31.2364 47.8598C26.4736 43.393 19.0134 43.5543 14.4481 48.2226L9.11919 53.6717C6.2678 56.5874 5.05337 60.7493 6.11842 64.6859C11.0539 82.9286 22.7953 112.549 55.0246 134.797C58.8155 137.414 63.85 137.345 67.5799 134.641C99.8062 111.286 111.105 81.8954 114.752 63.7491C115.473 60.1615 114.24 56.5037 111.706 53.8629L106.335 48.2639C101.77 43.5049 94.2202 43.3215 89.4293 47.8532L86.9461 50.2021C82.1726 54.7175 74.6554 54.5541 70.0826 49.8356L68.9197 48.6357C64.2334 43.8 56.4862 43.7664 51.758 48.5612L50.4745 49.8629C45.9033 54.4985 38.4697 54.6437 33.721 50.1901L31.2364 47.8598ZM31.4974 21.316C31.1804 21.08 30.4922 21.0364 30.6732 20.685V20.685C30.7505 20.5348 31.0765 20.5166 31.2451 20.5251C31.5101 20.5386 31.8403 20.5904 32.2359 20.7903C33.0581 21.2058 33.7671 21.3741 34.5136 20.8343V20.8343C35.1805 20.3521 35.6902 21.0043 35.3432 21.7506C35.0721 22.3335 34.724 23.0718 34.3544 23.8504C33.0364 26.6273 29.6309 28.2034 26.5747 27.8741C23.9416 27.5903 21.4866 27.4126 22.0144 27.4126C22.4796 27.4126 19.6601 27.512 16.9056 27.7958C14.3516 28.059 11.1839 26.7846 10.0775 24.4677C9.6458 23.5638 9.22161 22.6686 8.88055 21.9466C8.47593 21.09 9.21676 20.3078 9.94983 20.9079V20.9079C10.5399 21.3908 11.0586 21.1235 11.7101 20.7273C12.1521 20.4585 12.5253 20.392 12.729 20.3755C12.8238 20.3679 13.0898 20.4073 13.1817 20.4318V20.4318C13.7459 20.5822 12.9013 21.1716 12.4944 21.5903C11.5185 22.5944 11.4281 23.596 11.8058 24.3856C13.3596 27.6342 21.6562 24.7994 20.5019 21.3883C20.3523 20.9462 20.1129 20.5455 19.85 20.2631C19.5901 19.9838 18.7711 20.0619 18.7641 19.6805V19.6805C18.7542 19.1308 19.6898 19.2492 20.2171 19.4047C20.4028 19.4595 20.5414 19.5709 20.5414 19.7602C20.5414 17.5355 20.6759 16.0703 21.6771 15.2456C21.8704 15.0864 22.1485 15.0921 22.345 15.2473C23.2566 15.9672 23.5297 16.951 23.5322 18.4311C23.5326 18.6447 24.4591 19.4435 24.6726 19.4514V19.4514C24.7404 19.4539 24.8068 19.4936 24.8588 19.5373C25.128 19.7633 25.8328 19.7909 24.9511 20.0666C24.8104 20.1106 24.6698 20.1925 24.5354 20.3039C21.1597 23.1024 33.8887 27.0141 32.6542 22.8067C32.5084 22.3098 32.147 21.7997 31.4974 21.316ZM26.7387 25.843C27.0145 25.6098 27.426 25.6391 27.6659 25.9091V25.9091C28.077 26.372 27.6886 27.0962 27.0756 27.0098V27.0098C26.5065 26.9297 26.2999 26.2142 26.7387 25.843V25.843ZM21.0244 25.0516C21.4638 24.262 22.5925 24.2424 23.0592 25.0163V25.0163C23.5318 25.8001 22.9673 26.7997 22.052 26.7997V26.7997C21.1548 26.7997 20.588 25.8355 21.0244 25.0516V25.0516ZM17.4473 25.8423C17.1714 25.6094 16.7601 25.6389 16.5203 25.9089V25.9089C16.109 26.3719 16.4974 27.0963 17.1107 27.01V27.01C17.6803 26.9299 17.8869 26.2135 17.4473 25.8423V25.8423Z" fill="white"/>
<path fill-rule="evenodd" clip-rule="evenodd" d="M15.8565 32.58C15.0415 32.7503 14.1385 32.3601 13.7722 31.6124V31.6124C13.2456 30.5379 13.6763 29.1707 14.8474 28.9247C17.2852 28.4124 20.8008 28.3318 22.341 28.3318C24.6642 28.3318 27.7229 28.5899 29.7274 29.1062C30.7031 29.3576 31.2992 29.8118 30.9744 30.7656V30.7656C30.6008 31.8633 29.1748 32.9131 28.044 32.6564C25.9435 32.1795 23.6086 32.0062 22.0144 32.0062C19.9481 32.0085 17.6819 32.1983 15.8565 32.58ZM29.1944 30.0172C29.6844 30.0172 30.1744 30.6301 30.1744 30.9366C30.1744 31.5495 29.6844 32.0091 29.1944 32.0091C28.7044 32.0091 28.0511 31.5495 28.0511 30.9366C28.0511 30.6301 28.7044 30.0172 29.1944 30.0172ZM25.7677 29.4044C26.2577 29.4044 26.7477 29.864 26.7477 30.3237C26.7477 30.7834 26.2577 31.3963 25.7677 31.3963C25.2778 31.3963 24.6245 30.7834 24.6245 30.3237C24.6245 29.864 25.2746 29.4044 25.7677 29.4044ZM22.0113 29.0979C22.6646 29.0979 23.1514 29.5576 23.1514 30.0172C23.1553 30.1588 23.1284 30.2997 23.0725 30.4313C23.0167 30.5628 22.9329 30.6824 22.8263 30.7827C22.7197 30.883 22.5924 30.9619 22.4523 31.0147C22.3123 31.0675 22.1622 31.0931 22.0113 31.0898C21.6846 31.0898 21.0313 30.6301 21.0313 30.0172C21.0313 29.5576 21.6846 29.0979 22.0113 29.0979ZM18.4212 29.4044C19.0745 29.4044 19.5645 29.864 19.5645 30.3237C19.5645 30.7834 19.0745 31.3963 18.4212 31.3963C17.9313 31.3963 17.4413 30.7834 17.4413 30.3237C17.4413 29.864 17.9281 29.4044 18.4212 29.4044ZM15.1547 30.0172C15.6447 30.0172 16.298 30.6301 16.298 30.9366C16.298 31.5495 15.6447 32.0091 15.1547 32.0091C14.6648 32.0091 14.0115 31.5495 14.0115 30.9366C14.0115 30.6301 14.6648 30.0172 15.1547 30.0172Z" fill="white"/>
<path fill-rule="evenodd" clip-rule="evenodd" d="M22.1746 32.6192C26.2546 32.6192 30.0111 33.3853 30.0111 33.845C30.0111 34.1515 26.7446 34.4579 22.5013 34.4579C18.4213 34.4579 14.8281 34.1515 14.8281 33.845C14.8281 33.3853 18.0946 32.6192 22.1746 32.6192ZM109.034 21.3285C108.72 21.0836 108.02 21.0291 108.214 20.6813V20.6813C108.294 20.5368 108.613 20.5156 108.778 20.5285C108.999 20.5459 109.305 20.6005 109.655 20.7718C110.482 21.1771 111.152 21.4576 111.884 20.8979V20.8979C112.609 20.3432 113.199 21.0698 112.811 21.8962C112.496 22.566 112.091 23.4135 111.669 24.284C110.384 26.9328 107.296 28.2305 104.37 27.9064C101.638 27.6039 98.9348 27.4126 99.3928 27.4126C99.8691 27.4126 96.9577 27.5168 94.1565 27.8165C91.6277 28.087 88.6101 26.8832 87.5136 24.5886C87.0826 23.6867 86.6557 22.7863 86.308 22.0503C85.8765 21.1373 86.5969 20.3132 87.3931 20.9343V20.9343C88.0088 21.4146 88.5515 21.078 89.2199 20.6743C89.5897 20.4508 89.9166 20.3915 90.1048 20.3758C90.2013 20.3677 90.471 20.4077 90.5646 20.433V20.433C91.1279 20.585 90.2848 21.1744 89.8878 21.602C88.9785 22.5816 88.8859 23.558 89.234 24.3368C90.7015 27.6194 99.0264 24.8061 97.8832 21.397C97.7448 20.9841 97.5278 20.6068 97.2862 20.3275C96.9993 19.9958 95.9063 19.9238 96.2274 19.6252V19.6252C96.5466 19.3285 96.9897 19.3365 97.4245 19.3648C97.7025 19.3829 97.9198 19.4951 97.9198 19.7602C97.9198 17.5355 98.0543 16.0703 99.0555 15.2456C99.2488 15.0864 99.5269 15.0921 99.7234 15.2473C100.605 15.9432 100.889 16.8857 100.909 18.2847C100.913 18.5219 101.94 19.4444 102.177 19.4514V19.4514C102.252 19.4536 102.347 19.4981 102.404 19.5475C102.655 19.7642 103.213 19.7951 102.49 20.0666C102.305 20.1186 102.123 20.2232 101.953 20.3669C98.6333 23.171 111.008 27.1613 110.136 22.9043C110.029 22.3811 109.69 21.8402 109.034 21.3285ZM104.143 25.8644C104.404 25.6195 104.813 25.6286 105.063 25.8848V25.8848C105.5 26.3332 105.121 27.0813 104.501 26.9939V26.9939C103.955 26.9169 103.741 26.2418 104.143 25.8644V25.8644ZM98.4478 25.1246C98.8584 24.3198 99.9934 24.2796 100.46 25.0533V25.0533C100.923 25.8209 100.37 26.7997 99.4736 26.7997V26.7997C98.6134 26.7997 98.0568 25.8908 98.4478 25.1246V25.1246ZM94.8256 25.843C94.5498 25.6098 94.1383 25.6391 93.8984 25.9091V25.9091C93.4873 26.372 93.8757 27.0962 94.4887 27.0098V27.0098C95.0578 26.9297 95.2644 26.2142 94.8256 25.843V25.843Z" fill="white"/>
<path fill-rule="evenodd" clip-rule="evenodd" d="M93.6117 32.5359C92.6656 32.723 91.5908 32.2332 91.1439 31.3785V31.3785C90.6036 30.3451 91.0151 29.2118 92.1523 28.954C94.5277 28.4155 98.1471 28.3318 99.7163 28.3318C102.196 28.3318 105.238 28.5966 107.203 29.1263C108.12 29.3735 108.678 29.7817 108.393 30.6876V30.6876C108.045 31.7913 106.669 32.9164 105.54 32.6624C103.4 32.181 101.116 32.0062 99.3896 32.0062C97.5308 32.0084 95.3918 32.1837 93.6117 32.5359ZM106.573 30.0172C107.063 30.0172 107.716 30.6301 107.716 30.9366C107.716 31.5495 107.063 32.0091 106.573 32.0091C106.083 32.0091 105.593 31.5495 105.593 30.9366C105.593 30.6301 106.083 30.0172 106.573 30.0172ZM103.143 29.4044C103.633 29.4044 104.286 29.864 104.286 30.3237C104.286 30.7834 103.633 31.3963 103.143 31.3963C102.653 31.3963 102.163 30.7834 102.163 30.3237C102.163 29.864 102.653 29.4044 103.143 29.4044ZM99.553 29.0979C100.043 29.0979 100.533 29.5576 100.533 30.0172C100.533 30.6301 100.043 31.0898 99.553 31.0898C99.063 31.0898 98.4097 30.6301 98.4097 30.0172C98.4097 29.5576 99.0599 29.0979 99.553 29.0979ZM95.7965 29.4044C96.4498 29.4044 96.9398 29.864 96.9398 30.3237C96.9398 30.7834 96.4498 31.3963 95.7965 31.3963C95.4699 31.3963 94.8165 30.7834 94.8165 30.3237C94.8165 29.864 95.4699 29.4044 95.7965 29.4044ZM92.5331 30.0172C93.0231 30.0172 93.6764 30.6301 93.6764 30.9366C93.6764 31.5495 93.0231 32.0091 92.5331 32.0091C92.0432 32.0091 91.5532 31.5495 91.5532 30.9366C91.5532 30.6301 92.0432 30.0172 92.5331 30.0172Z" fill="white"/>
<path fill-rule="evenodd" clip-rule="evenodd" d="M99.553 32.6189C103.633 32.6189 107.389 33.385 107.389 33.8447C107.389 34.1511 104.123 34.4576 99.8797 34.4576C95.7997 34.4576 92.2065 34.1511 92.2065 33.8447C92.2065 33.385 95.4699 32.6189 99.553 32.6189Z" fill="white"/>
<path fill-rule="evenodd" clip-rule="evenodd" d="M20.1424 74.7887C20.176 74.3488 20.3201 73.9252 20.4793 73.5138C20.6829 72.9877 20.9094 72.3221 21.1115 71.8487C21.2421 71.5429 21.2535 71.1505 21.0579 70.8817V70.8817C20.6663 70.3435 20.3902 69.5135 20.7861 68.9785C20.9757 68.7223 21.0971 68.4858 21.0309 68.2996C21.0112 68.2255 20.9867 68.1626 20.9568 68.1085C20.4516 67.193 19.7249 66.3798 20.7489 66.1686V66.1686C20.8894 66.1397 20.9429 66.1466 21.0693 66.079C21.3589 65.9242 21.5133 65.6163 21.83 65.3077C22.3032 64.8465 22.9321 64.5593 23.5673 64.3772C24.3159 64.1626 25.1218 64.1626 25.9276 64.1626C27.3176 64.2811 30.3678 65.0418 31.1491 67.7901C31.6769 69.647 31.5304 72.0979 33.4095 72.5403C36.4419 73.2543 41.1985 70.718 44.4254 69.5121C45.4793 69.1183 46.1984 70.1182 45.6137 71.0794C45.5781 71.138 45.5423 71.1963 45.5062 71.2543C45.1016 71.9047 45.2713 72.7594 46.034 72.6897V72.6897C46.948 72.6062 47.6013 73.3595 47.1182 74.1398C46.5754 75.0166 45.9658 75.6869 45.3486 76.2428C44.3391 77.1523 43.7178 78.6402 44.7033 79.5756C46.4579 81.2408 49.5373 80.8812 52.7959 80.3895C54.207 80.1765 54.7646 81.2514 53.5301 81.9675V81.9675C52.7025 82.4476 52.7066 83.4502 53.3653 84.1441V84.1441C54.6307 85.4773 53.0533 87.409 51.3251 86.7827C50.1277 86.3487 49.0739 85.9873 48.4601 85.7554C46.0891 84.8928 41.4892 84.7259 38.1716 85.2547C37.0417 85.4348 36.6241 86.6756 37.5629 87.3295V87.3295C38.3043 87.846 38.563 88.8826 37.7912 89.3526C36.8908 89.901 35.765 89.8002 34.693 89.5356C33.146 89.1539 31.5266 89.4014 29.9482 89.6197C29.4893 89.6831 29.0365 89.7041 28.6271 89.6874C27.5852 89.6449 27.1301 88.614 27.8906 87.9006V87.9006C28.4072 87.2948 26.9834 87.0722 25.9612 86.398C25.4458 86.0582 25.1769 85.3479 25.7917 85.2911V85.2911C26.7424 85.2032 27.003 84.1533 26.2921 83.5158C24.0845 81.5361 19.7268 80.227 20.1424 74.7887ZM24.6241 65.8539C24.9508 65.8539 25.1141 66.1604 25.1141 66.4668C25.1141 66.7733 24.9508 67.0797 24.6241 67.0797C24.2975 67.0797 23.9708 66.7733 23.9708 66.4668C23.9708 66.1604 24.2975 65.8539 24.6241 65.8539ZM64.089 75.2745C64.1095 75.0227 64.1686 74.7712 64.2594 74.5354C64.4404 74.0655 64.7411 73.3343 65.0422 72.763C65.2446 72.3792 65.1415 71.7676 64.8291 71.4664V71.4664C64.391 71.0439 64.2604 70.3943 64.6443 69.9219C64.8362 69.6857 64.9944 69.4598 65.0015 69.2663C65.0067 69.1272 64.9324 68.9913 64.8384 68.8886C64.8253 68.8743 64.8114 68.8608 64.7966 68.8482C64.0768 68.23 63.5485 67.336 64.4409 67.0136C64.6046 66.9545 64.774 66.9236 64.9434 66.9236V66.9236C66.3918 66.9236 67.1355 65.1886 68.5786 65.0652C68.6341 65.0605 68.6898 65.0558 68.7458 65.0511C69.5847 64.9806 70.4366 64.9433 71.2486 65.1655C72.6374 65.5453 74.4342 66.4334 75.0626 68.3311C75.7158 70.3036 75.5372 72.9748 77.5806 73.3516C80.585 73.9054 85.0407 71.5685 88.2284 70.3609C89.4043 69.9155 90.1058 70.97 89.4345 72.0331C89.403 72.083 89.3719 72.1327 89.3412 72.1823C88.9834 72.7597 89.1543 73.4961 89.8332 73.4717V73.4717C90.822 73.436 91.5504 74.18 91.0295 75.0213C90.5056 75.8676 89.889 76.5244 89.263 77.0874C88.2221 78.0235 87.6517 79.5879 88.7396 80.4688C90.5655 81.9474 93.7055 81.5966 96.9164 81.1257C98.3186 80.9201 99.0051 82.0177 97.7475 82.6712C97.6511 82.7212 97.5547 82.7715 97.4588 82.8227C96.6585 83.2501 96.5873 84.1895 97.2143 84.8452V84.8452C98.3994 86.0845 96.8043 88.1008 95.1943 87.5105C94.0494 87.0908 93.0675 86.7476 92.5359 86.5245C89.8545 85.6464 85.1962 85.4892 81.897 86.0527C80.867 86.2286 80.564 87.4702 81.4289 88.0563V88.0563C82.1951 88.5755 82.4358 89.5507 81.6856 90.0926C80.7411 90.7748 79.6165 90.6752 78.5544 90.3723C77.1403 89.9689 75.6458 90.0981 74.1985 90.3581C73.5311 90.478 72.8712 90.5136 72.3103 90.4839C71.4688 90.4393 70.8532 89.9023 71.3552 89.2255V89.2255C71.5613 88.9478 72.1484 88.4385 71.8977 88.2002C71.5476 87.8675 70.5971 87.6057 69.8948 87.0773C69.4885 86.7716 69.1541 86.1405 69.6466 86.0141V86.0141C70.6457 85.7575 70.9873 84.8452 70.1966 84.1826C67.8564 82.2215 63.636 80.8543 64.089 75.2745ZM68.3732 66.7733C68.8632 66.7733 69.0265 66.9265 69.0265 67.233C69.0265 67.5394 68.8632 67.8459 68.3732 67.8459C68.0466 67.8459 67.8833 67.5394 67.8833 67.233C67.8833 66.9265 68.0434 66.7733 68.3732 66.7733ZM43.0072 104.805C43.0382 104.467 43.15 104.14 43.2774 103.825C43.4804 103.324 43.72 102.64 43.9721 102.092C44.1637 101.675 44.074 101.068 43.7623 100.732V100.732C43.3707 100.309 43.1718 99.6675 43.5441 99.2276C43.7765 98.953 43.9625 98.6971 43.8839 98.476C43.8637 98.3997 43.841 98.3353 43.8142 98.2799C43.3779 97.3755 42.7821 96.6015 43.7183 96.2384V96.2384C43.8622 96.1826 43.9676 96.1956 44.1125 96.1425C44.5543 95.9806 44.6667 95.333 45.5171 94.7986C46.1274 94.5124 46.8642 94.4044 47.6087 94.3273C48.4961 94.2355 49.4019 94.1962 50.258 94.4471C51.705 94.8712 53.5432 95.878 54.0504 98.077C54.4676 99.8863 54.3874 102.203 56.1912 102.643C59.1938 103.375 63.9556 100.961 67.2404 99.7437C68.3494 99.3329 69.0313 100.365 68.4221 101.379C68.3954 101.423 68.3688 101.468 68.3423 101.512C67.9792 102.122 68.2353 102.921 68.943 102.874V102.874C69.8736 102.811 70.4889 103.537 70 104.332C69.4812 105.175 68.876 105.832 68.2564 106.401C67.2772 107.301 66.7295 108.769 67.6971 109.681C69.4497 111.334 72.5434 111.022 75.8169 110.553C77.2244 110.351 77.7675 111.378 76.5148 112.051V112.051C75.691 112.493 75.7223 113.522 76.3579 114.207C76.3772 114.228 76.3964 114.249 76.4156 114.27C77.7203 115.683 76.0593 117.582 74.2501 116.929C73.0892 116.51 72.0718 116.162 71.4733 115.938C68.9356 115.057 64.3183 114.898 60.9349 115.459C59.8816 115.633 59.4693 116.774 60.3551 117.37V117.37C61.1239 117.887 61.5052 118.978 60.7171 119.466C59.7959 120.036 58.6943 119.947 57.6283 119.669C56.0528 119.257 54.3613 119.562 52.749 119.79C52.1738 119.871 51.6032 119.878 51.1143 119.824C50.3273 119.737 49.7891 119.233 50.2847 118.615V118.615C50.4901 118.359 51.1259 117.9 50.9664 117.613C50.7435 117.211 49.7699 116.961 49.0044 116.519C48.4829 116.218 48.1344 115.465 48.7337 115.406V115.406C49.6975 115.31 49.9861 114.306 49.2691 113.654C46.954 111.553 42.5062 110.265 43.0072 104.805ZM47.6404 96.0215C47.8037 96.0215 48.1303 96.1776 48.1303 96.6373C48.1303 96.7876 47.8037 97.0911 47.6404 97.0911C47.1504 97.0911 46.8237 96.7846 46.8237 96.6373C46.8237 96.1776 47.1504 96.0215 47.6404 96.0215Z" fill="#CF4037"/>
<path fill-rule="evenodd" clip-rule="evenodd" d="M47.4777 15.1267C47.4777 12.5618 50.2997 10.855 52.701 9.95387V9.95387C52.9495 9.85776 53.1968 9.76534 53.4424 9.67737C57.3428 8.28045 60.0475 11.8336 60.0475 15.9767V24.7733C60.0475 27.9776 56.6371 30.9704 53.5176 31.7029V31.7029V31.7029C50.024 32.3592 47.4777 29.3194 47.4777 25.7646V15.1267ZM55.3142 26.1897C55.3142 25.4236 55.9675 25.2704 56.2941 25.2704C56.6208 25.2704 57.1108 25.4236 57.1108 26.1897C57.1108 27.1091 56.6208 27.4155 56.2941 27.4155C55.9675 27.4155 55.3142 27.1061 55.3142 26.1897ZM54.6609 26.1897C54.6609 27.722 55.8042 27.8723 56.2941 27.8723C56.6208 27.8723 57.7609 27.719 57.7609 26.1897C57.7609 24.8107 56.6208 24.6575 56.2941 24.6575C55.8042 24.6575 54.6609 24.8107 54.6609 26.1897ZM53.3543 25.2395C53.3543 25.686 52.757 25.8352 52.547 25.4412L52.3551 25.081C52.2664 24.9147 52.0932 24.8107 51.9047 24.8107V24.8107C51.6229 24.8107 51.3944 25.0392 51.3944 25.3211V27.5456C51.3944 27.726 51.5406 27.8723 51.721 27.8723V27.8723C51.9014 27.8723 52.0477 27.726 52.0477 27.5456V27.4023C52.0477 26.9272 52.672 26.7521 52.9191 27.1578L53.232 27.6716C53.308 27.7962 53.4433 27.8723 53.5893 27.8723V27.8723C53.8203 27.8723 54.0076 27.685 54.0076 27.454V25.1374C54.0076 24.957 53.8613 24.8107 53.6809 24.8107V24.8107C53.5005 24.8107 53.3543 24.957 53.3543 25.1374V25.2395ZM50.0909 27.855C50.0909 28.0354 50.2372 28.1817 50.4176 28.1817V28.1817C50.598 28.1817 50.7442 28.0354 50.7442 27.855V25.4438C50.7442 25.2634 50.598 25.1172 50.4176 25.1172V25.1172C50.2372 25.1172 50.0909 25.2634 50.0909 25.4438V27.855ZM58.2509 18.7667C58.2509 18.4676 58.0084 18.2251 57.7092 18.2251H57.6642C57.4349 18.2251 57.2367 18.3853 57.1889 18.6096V18.6096C57.0831 19.105 56.3848 19.1284 56.2461 18.6412L56.231 18.588C56.1698 18.3732 55.9736 18.2251 55.7503 18.2251H55.7061C55.3977 18.2251 55.1477 18.475 55.1477 18.7834V20.9629C55.1477 21.1433 55.294 21.2895 55.4744 21.2895H55.5172C55.6739 21.2895 55.801 21.1624 55.801 21.0056V21.0056C55.801 20.6735 56.2737 20.6116 56.3592 20.9325L56.3946 21.0654C56.4298 21.1975 56.5495 21.2895 56.6863 21.2895H56.8757C57.0124 21.2895 57.1321 21.1975 57.1674 21.0654L57.2028 20.9326C57.2883 20.6116 57.7609 20.6735 57.7609 21.0056V21.0445C57.7609 21.1798 57.8706 21.2895 58.0059 21.2895V21.2895C58.1412 21.2895 58.2509 21.1798 58.2509 21.0445V18.7667ZM52.3743 20.0637C52.3743 19.1444 52.8643 18.9912 53.191 18.9912C53.5176 18.9912 54.0076 19.1444 54.0076 20.0637C54.0076 20.8298 53.5176 21.1363 53.191 21.1363C52.8643 21.1334 52.3743 20.8269 52.3743 20.0637ZM51.721 20.0637C51.721 21.4427 52.701 21.596 53.191 21.596C53.5176 21.596 54.6609 21.4427 54.6609 20.0637C54.6609 18.6847 53.5176 18.5315 53.191 18.5315C52.701 18.5315 51.721 18.6847 51.721 20.0637ZM49.2743 19.9509C49.2743 19.5901 49.5668 19.2976 49.9276 19.2976V19.2976C50.2543 19.2976 50.5809 19.4508 50.5809 20.3702C50.5809 20.8299 50.4144 21.2895 49.9276 21.2895V21.2895C49.5668 21.2895 49.2743 20.997 49.2743 20.6362V19.9509ZM48.621 20.5929C48.621 21.3145 49.206 21.8995 49.9276 21.8995V21.8995C51.0709 21.8995 51.2342 20.8269 51.2342 20.3672C51.2342 19.7543 51.0709 18.835 50.0909 18.835V18.835C49.2791 18.835 48.621 19.4931 48.621 20.3049V20.5929ZM54.6609 13.0257C54.6609 13.5008 54.0366 13.6759 53.7895 13.2702L53.4765 12.7564C53.4006 12.6318 53.2652 12.5557 53.1193 12.5557V12.5557C52.8883 12.5557 52.701 12.743 52.701 12.974V15.222C52.701 15.3573 52.8107 15.467 52.946 15.467V15.467C53.0813 15.467 53.191 15.3573 53.191 15.222V15.0089C53.191 14.5538 53.7826 14.3771 54.0322 14.7576L54.3719 15.2755C54.4503 15.395 54.5837 15.467 54.7266 15.467V15.467C54.9609 15.467 55.1509 15.2771 55.1509 15.0428V12.8007C55.1509 12.6654 55.0412 12.5557 54.9059 12.5557V12.5557C54.7706 12.5557 54.6609 12.6654 54.6609 12.8007V13.0257ZM51.0709 15.2936C51.0709 15.474 51.2171 15.6202 51.3975 15.6202V15.6202C51.5779 15.6202 51.7242 15.474 51.7242 15.2936V13.0356C51.7242 12.8552 51.5779 12.709 51.3975 12.709V12.709C51.2171 12.709 51.0709 12.8552 51.0709 13.0356V15.2936ZM46.8244 12.0624C46.8244 11.1256 45.7584 10.5875 45.0047 11.1439V11.1439C44.7131 11.3591 44.541 11.7 44.541 12.0624V31.3365C44.541 32.3162 45.6939 32.8409 46.4326 32.1974V32.1974C46.6815 31.9806 46.8244 31.6666 46.8244 31.3365V12.0624Z" fill="white"/>
<path fill-rule="evenodd" clip-rule="evenodd" d="M47.6382 34.1514C46.8617 34.1514 46.5358 33.1601 47.1608 32.6994V32.6994C47.3606 32.5521 47.6159 32.5091 47.8608 32.5498C49.5995 32.8382 52.6561 32.2905 54.1707 32.0063C55.906 31.8145 57.0044 31.5028 58.0628 31.5215C58.8461 31.5354 58.7626 32.7201 58.4265 33.4276V33.4276C58.214 33.875 57.8492 34.1514 57.3539 34.1514H47.6382ZM73.0822 34.1514C73.845 34.1514 74.1807 33.1898 73.5836 32.7151V32.7151C73.3862 32.5582 73.1277 32.5063 72.8788 32.5462C71.0314 32.8426 68.0977 32.2916 66.5771 32.0063C64.6031 31.8003 63.5132 31.4558 62.5147 31.5314C61.8257 31.5835 61.8581 32.5572 62.1676 33.175V33.175C62.4195 33.6778 62.8616 34.1514 63.4239 34.1514H73.0822ZM73.9236 11.9451C73.9236 11.0169 75.032 10.5369 75.7089 11.172V11.172C75.9225 11.3724 76.0437 11.6522 76.0437 11.9451V31.2185C76.0437 32.1266 74.9763 32.6143 74.2897 32.0198V32.0198C74.0572 31.8185 73.9236 31.5261 73.9236 31.2185V11.9451Z" fill="white"/>
<path fill-rule="evenodd" clip-rule="evenodd" d="M73.1075 14.9665C73.1072 12.4782 70.3551 10.8832 68.0468 9.95387V9.95387C67.7137 9.83235 67.387 9.71672 67.067 9.60855C63.4268 8.37801 61.0301 11.5646 61.0301 15.4071V25.2567C61.0301 28.1761 64.2278 31.0363 67.07 31.7029V31.7029V31.7029C70.5844 32.3211 73.1096 29.3331 73.109 25.7647L73.1075 14.9665ZM63.6402 26.4125C63.6402 27.1341 64.2252 27.7191 64.9468 27.7191V27.7191C66.0901 27.7191 66.2534 26.7997 66.2534 26.1868C66.2534 25.5739 66.0901 24.8078 64.9468 24.8078V24.8078C64.2252 24.8078 63.6402 25.3928 63.6402 26.1144V26.4125ZM64.2904 25.9237C64.2904 25.5629 64.5829 25.2704 64.9437 25.2704V25.2704C65.2703 25.2704 65.597 25.4236 65.597 26.1898C65.597 26.8026 65.4336 27.2623 64.9437 27.2623V27.2623C64.5829 27.2623 64.2904 26.9698 64.2904 26.609V25.9237ZM67.0669 26.6494C67.0669 28.1817 68.2102 28.3349 68.7001 28.3349C69.0268 28.3349 70.1701 28.1817 70.1701 26.6494C70.1701 25.2704 69.0299 25.1172 68.7001 25.1172C68.2102 25.1172 67.0669 25.2704 67.0669 26.6494ZM67.8835 26.6494C67.8835 25.8833 68.2102 25.7301 68.7001 25.7301C69.0268 25.7301 69.5168 25.8833 69.5168 26.6494C69.5168 27.5688 69.0268 27.722 68.7001 27.722C68.2102 27.7191 67.8835 27.5688 67.8835 26.6494ZM65.2703 21.288C65.2703 20.9504 65.5441 20.6766 65.8817 20.6766H66.4338C66.603 20.6766 66.7402 20.5394 66.7402 20.3702V20.3702C66.7402 20.2009 66.603 20.0637 66.4338 20.0637H65.5767C65.4075 20.0637 65.2703 19.9265 65.2703 19.7573V19.7573C65.2703 19.588 65.4075 19.4508 65.5767 19.4508H66.6737C66.8007 19.4508 66.9036 19.3479 66.9036 19.221V19.221C66.9036 19.0941 66.8007 18.9912 66.6737 18.9912H65.7603C65.1289 18.9912 64.617 19.503 64.617 20.1344V21.5728C64.617 21.7532 64.7633 21.8995 64.9437 21.8995V21.8995C65.1241 21.8995 65.2703 21.7532 65.2703 21.5728V21.288ZM67.7202 21.5728C67.7202 21.7532 67.8664 21.8995 68.0468 21.8995V21.8995C68.2272 21.8995 68.3735 21.7532 68.3735 21.5728V19.3178C68.3735 19.1374 68.2272 18.9912 68.0468 18.9912V18.9912C67.8664 18.9912 67.7202 19.1374 67.7202 19.3178V21.5728ZM64.3122 13.6313C64.5708 13.6313 64.7788 13.4107 64.6473 13.1881C64.4498 12.8538 64.0404 12.5587 63.4737 12.5587C62.4938 12.5587 62.0038 13.1716 62.0038 14.0909C62.0038 15.1635 62.4938 15.7764 63.4737 15.7764C63.97 15.7764 64.372 15.5112 64.6082 15.115C64.7238 14.9211 64.5589 14.7038 64.3332 14.7038V14.7038C64.2063 14.7038 64.0937 14.7766 64.0202 14.8801C63.886 15.069 63.7302 15.1635 63.4737 15.1635C62.8204 15.1635 62.6571 14.7038 62.6571 14.0909C62.6571 13.3278 63.1471 13.1716 63.4737 13.1716C63.8314 13.1716 63.928 13.3349 64.0176 13.4826C64.0793 13.5844 64.1933 13.6313 64.3122 13.6313V13.6313ZM65.2703 14.5506C65.2703 15.9296 66.4136 16.0828 66.9036 16.0828C67.2302 16.0828 68.3735 15.9296 68.3735 14.5506C68.3735 13.1716 67.2302 13.0184 66.9036 13.0184C66.4136 13.0184 65.2703 13.1716 65.2703 14.5506ZM66.0869 14.5506C66.0869 13.6313 66.5769 13.4781 66.9036 13.4781C67.2302 13.4781 67.7202 13.6313 67.7202 14.5506C67.7202 15.3167 67.2302 15.6232 66.9036 15.6232C66.5769 15.6202 66.0869 15.3138 66.0869 14.5506ZM70.8202 13.4472C70.8202 13.8937 70.223 14.0429 70.013 13.6489L69.821 13.2887C69.7323 13.1223 69.5592 13.0184 69.3706 13.0184V13.0184C69.0888 13.0184 68.8603 13.2468 68.8603 13.5287V15.7533C68.8603 15.9337 69.0066 16.0799 69.187 16.0799V16.0799C69.3674 16.0799 69.5136 15.9337 69.5136 15.7533V15.6099C69.5136 15.1349 70.1379 14.9597 70.385 15.3654L70.698 15.8792C70.7739 16.0038 70.9093 16.0799 71.0552 16.0799V16.0799C71.2862 16.0799 71.4735 15.8926 71.4735 15.6616V13.345C71.4735 13.1646 71.3273 13.0184 71.1469 13.0184V13.0184C70.9665 13.0184 70.8202 13.1646 70.8202 13.345V13.4472ZM61.2936 33.1547C61.0293 32.6366 60.2461 32.7375 59.7901 33.0985C59.6714 33.1925 59.5722 33.2729 59.4944 33.35C59.1151 33.7258 59.7403 34.1545 60.2743 34.1545V34.1545C60.9036 34.1545 61.5795 33.7154 61.2936 33.1547V33.1547Z" fill="white"/>
</svg>
