<svg width="173" height="150" viewBox="0 0 173 150" fill="none" xmlns="http://www.w3.org/2000/svg">
<path fill-rule="evenodd" clip-rule="evenodd" d="M85.7012 117.444C88.1232 119.181 90.9629 119.921 94.0282 120.059C95.296 120.116 96.6002 120.062 97.8477 119.865C99.8264 119.554 101.8 119.162 103.724 118.659C107.644 117.634 111.031 115.862 113.56 113C115 111.369 116.183 109.605 116.943 107.655C117.57 106.046 118.159 104.421 118.628 102.775C118.998 101.477 119.182 100.138 119.406 98.8125C119.557 97.9359 119.647 97.05 119.74 96.1652C119.892 94.7297 120.05 93.2965 120.159 91.8574C120.236 90.8566 120.234 89.8512 120.278 88.8492C120.293 88.5434 120.35 88.2398 120.384 87.9363C120.412 87.6539 120.577 87.5566 120.909 87.5613C122.077 87.5766 123.248 87.6023 124.414 87.5566C125.721 87.5062 127.037 87.457 128.324 87.2707C130.154 87.0047 131.975 86.6684 133.768 86.2629C135.887 85.7812 137.832 84.9199 139.706 83.9402C141.884 82.7977 143.874 81.4582 145.484 79.732C146.888 78.2297 147.553 76.4883 147.214 74.5887C146.722 71.8289 144.047 70.0207 140.937 69.8977C139.81 69.8531 138.666 69.9562 137.544 70.0793C136.186 70.2293 134.848 70.4941 133.494 70.6688C132.559 70.7906 131.611 70.8445 130.679 70.9289L130.653 70.8234C132.396 67.9676 134.213 65.1445 135.862 62.25C137.128 60.0281 138.209 57.7277 139.327 55.4426C141.179 51.6598 142.656 47.7609 143.881 43.7965C145.052 40.002 146.055 36.1664 146.373 32.2289C146.5 30.6574 146.588 29.0789 146.576 27.5051C146.567 26.2488 146.411 24.9914 146.266 23.7398C146.101 22.3055 145.601 20.9461 144.909 19.6383C143.998 17.9133 142.583 16.4988 141.095 15.1559C139.904 14.0801 138.593 13.1004 137.294 12.1207C135.441 10.7238 133.357 9.60703 131.195 8.6168C128.736 7.4918 126.153 6.61055 123.458 6.01523C121.828 5.65547 120.163 5.33789 118.514 5.05312C117.925 4.95 117.33 4.6875 116.737 4.6875H105.562C105.158 4.6875 104.758 4.91719 104.351 4.95586C101.677 5.21484 99.033 5.67656 96.4651 6.36797C95.5055 6.62461 94.6296 6.47461 93.7173 6.40078C93.0172 6.34453 92.3293 6.18867 91.6292 6.1582C88.9652 6.04336 86.2986 5.87695 83.6333 5.90156C81.0816 5.925 78.5555 6.29063 76.0862 6.89766C74.0197 7.40859 71.9964 8.02852 70.142 8.97188C69.35 9.375 68.7202 9.29883 67.8998 9.09492C65.1412 8.40469 62.3651 7.75781 59.566 7.21523C57.8212 6.87656 56.025 6.70547 54.2422 6.54609C52.5325 6.39141 50.8133 6.3 49.0941 6.26836C47.4155 6.23672 45.7261 6.23789 44.0542 6.3668C41.3929 6.57188 38.7831 7.04062 36.2448 7.79766C33.4268 8.63906 30.8426 9.85664 28.5139 11.4551C26.1487 13.0781 24.2511 15.0574 22.7279 17.3203C21.1209 19.7074 20.0166 22.2633 19.3327 24.9457C18.9611 26.4 19.0976 27.8953 18.8421 29.3719C18.7637 29.8289 18.9219 30.2883 18.9219 30.7477V37.1754C18.9219 37.602 18.7772 38.0297 18.8394 38.4586C18.9921 39.4887 18.9394 40.527 19.1408 41.55C19.4571 43.1695 19.7423 44.7832 20.1261 46.391C20.6627 48.6375 21.1749 50.8816 21.7696 53.1176C22.2021 54.7453 22.6711 56.3637 23.186 57.9727C23.97 60.4313 24.7349 62.8934 25.6229 65.3227C26.4487 67.5809 27.3894 69.8063 28.3287 72.0328C29.6289 75.1125 31.1805 78.0926 33.0457 80.9473C34.6608 83.4211 36.503 85.7379 38.9763 87.6422C40.6077 88.8984 42.4201 89.8629 44.5299 90.3457C46.1896 90.723 47.8791 90.7687 49.5753 90.4676C51.5445 90.1184 53.2894 89.3824 54.8396 88.282C55.018 88.1566 55.2113 88.0594 55.4235 88.2914C56.2263 89.1727 57.2995 89.7609 58.4226 90.2684C61.4528 91.6395 64.7547 92.0508 68.1079 92.2172C68.9216 92.257 69.7406 92.1562 70.5583 92.1375C72.1545 92.0988 73.7034 91.8293 75.2266 91.4473C76.0267 91.2469 76.8066 90.9914 77.6202 90.7547C77.6621 91.5059 77.7162 92.2277 77.7432 92.9508L77.8554 96.8918C77.877 97.4918 77.9041 98.0918 77.9676 98.6894C78.1325 100.229 78.2933 101.769 78.5055 103.304C78.6515 104.363 78.8055 105.428 79.0921 106.461C79.6705 108.545 80.4518 110.573 81.4465 112.541C82.421 114.47 83.8252 116.1 85.7012 117.444ZM80.8478 97.7941C80.7518 95.9437 80.6802 94.0922 80.6329 92.2406C80.5761 89.9648 80.5572 87.6879 80.5207 85.4121L80.5139 85.3254C79.1799 86.0203 77.8649 86.7797 76.4741 87.4066C74.8428 88.1414 73.0722 88.5668 71.2381 88.6875C69.8014 88.7812 68.3431 88.8668 66.9131 88.7684C64.5668 88.6031 62.2205 88.2856 60.1202 87.2824C59.2687 86.8758 58.3794 86.3801 57.7914 85.732C56.3845 84.1746 57.0589 82.207 59.1809 81.2602C60.6473 80.6039 62.2476 80.3309 63.837 80.0121C65.2169 79.7355 66.5928 79.4203 67.9403 79.0395C69.273 78.6609 70.1136 77.7234 70.9449 76.8035L72.2613 75.3363L70.6786 75.1934C69.1081 75.0668 67.6092 74.6906 66.1765 74.1398C64.952 73.6699 64.9331 73.6184 64.033 74.4645C62.5327 75.8766 61.073 77.3238 59.6012 78.7605C58.5186 79.8176 57.4441 80.8805 56.3642 81.941C55.2992 82.9898 54.299 84.0973 53.1488 85.0723C51.4432 86.5207 49.3861 87.3914 46.9316 87.293C45.3571 87.2297 43.9163 86.7516 42.6188 85.9699C39.9441 84.3551 38.1424 82.0934 36.5003 79.7203C34.3986 76.6781 32.7835 73.4379 31.4035 70.1098C30.448 67.8082 29.487 65.5055 28.6545 63.1711C27.7476 60.634 26.9515 58.0676 26.1689 55.4988C25.577 53.5617 25.0526 51.6082 24.5525 49.6512C23.9835 47.4258 23.4374 45.1945 22.9549 42.9539C22.6292 41.441 22.4413 39.9059 22.1778 38.3836C21.8223 36.3293 21.7574 34.2586 21.8872 32.1973C22.0021 30.3398 22.3089 28.4883 22.6143 26.6437C23.0374 24.0914 24.0078 21.6832 25.4026 19.4086C26.2581 18.0152 27.3164 16.7484 28.5423 15.5719C30.5561 13.6395 32.993 12.2438 35.7042 11.1949C37.5978 10.4625 39.5994 10.023 41.6389 9.67734C44.6664 9.16641 47.721 9.1875 50.7755 9.24141C52.1108 9.26602 53.4421 9.47578 54.7761 9.5918C57.6495 9.83906 60.4648 10.3641 63.245 11.0098C65.2724 11.4809 67.2578 12.0926 69.2662 12.6223C69.4663 12.675 69.7622 12.6703 69.9285 12.5777C72.6519 11.0355 75.6267 10.0184 78.7934 9.43594C79.9949 9.21563 81.2357 9.11836 82.4642 9.05039C83.9564 8.96953 85.4633 8.89219 86.9528 8.96836C88.7436 9.05742 90.529 9.28594 92.309 9.49688C93.174 9.6 94.0174 9.85898 94.8824 9.9293C95.2987 9.96328 95.7379 9.70195 96.1758 9.61289C98.4113 9.16406 100.637 8.66602 102.893 8.31328C104.572 8.05078 106.288 7.92656 107.994 7.84219C109.9 7.74727 111.816 7.67812 113.719 7.75781C116.125 7.85859 118.513 8.15508 120.87 8.63086C123.792 9.22031 126.593 10.0758 129.257 11.2641C131.248 12.1535 133.138 13.1824 134.843 14.448C135.959 15.2789 137.102 16.098 138.109 17.0238C139.353 18.1652 140.621 19.3055 141.402 20.7668C141.99 21.8695 142.409 23.0109 142.525 24.2168C142.668 25.718 142.843 27.2238 142.828 28.7273C142.813 30.1641 142.586 31.5996 142.426 33.034C142.06 36.3012 141.242 39.498 140.246 42.6527C139.426 45.2578 138.464 47.8348 137.423 50.3824C136.465 52.7297 135.358 55.0336 134.24 57.3293C133.414 59.0262 132.523 60.7055 131.558 62.3461C129.728 65.4539 127.825 68.5301 125.624 71.4598C125.244 71.9648 124.883 72.4828 124.513 72.9996C125.474 73.5609 126.562 73.759 127.656 73.8621C128.698 73.9594 129.761 74.0191 130.801 73.9512C132.468 73.8434 134.129 73.6371 135.786 73.4367C137.427 73.2375 139.034 72.8332 140.721 72.9398C142.402 73.0465 143.608 74.1551 143.493 75.5215C143.42 76.3863 142.962 77.1281 142.299 77.7621C139.17 80.7551 135.243 82.5691 130.75 83.4633C129.043 83.8031 127.283 83.9777 125.536 84.1195C124.048 84.2391 122.541 84.259 121.047 84.2109C119.95 84.1758 118.862 83.9578 117.74 83.8172C117.626 84.7066 117.52 85.6336 117.39 86.557L116.867 90.0996C116.709 91.2223 116.586 92.3496 116.422 93.4723C116.263 94.5621 116.064 95.6461 115.896 96.7348C115.741 97.7484 115.626 98.768 115.45 99.7805C115.184 101.332 114.929 102.887 114.579 104.427C114.16 106.267 113.519 108.048 112.469 109.709C111.19 111.735 109.378 113.278 107.069 114.421C104.691 115.598 102.089 116.211 99.4547 116.725C97.5869 117.089 95.6663 117.148 93.7755 116.999C90.4979 116.742 87.7002 115.527 85.585 113.323C83.5671 111.219 82.2007 108.81 81.7128 106.08C81.4776 104.783 81.31 103.475 81.1775 102.168C81.0262 100.711 80.9261 99.2531 80.8478 97.7941ZM84.5321 79.098C84.5524 80.0707 84.4362 81.0434 84.4416 82.016C84.4645 86.543 84.5024 91.0711 84.547 95.5992C84.5551 96.3387 84.597 97.0805 84.6578 97.8187C84.7862 99.3656 84.9133 100.914 85.0863 102.456C85.2106 103.552 85.3795 104.644 85.5782 105.731C85.8621 107.27 86.6703 108.641 87.5866 109.952C88.376 111.08 89.4045 112.036 90.7574 112.697C93.0578 113.818 95.5325 113.912 98.0275 113.5C99.7129 113.222 101.37 112.773 103.005 112.31C104.619 111.854 106.077 111.11 107.301 110.082C108.448 109.119 109.262 107.944 109.81 106.646C110.874 104.132 111.208 101.482 111.647 98.8547C111.812 97.8703 111.955 96.8836 112.105 95.898C112.277 94.7766 112.45 93.6562 112.615 92.5348C112.739 91.698 112.85 90.8625 112.968 90.0269C113.137 88.827 113.314 87.6281 113.474 86.4281C113.597 85.5 113.7 84.5684 113.811 83.6379C113.952 82.4484 114.102 81.2625 114.225 80.0707C114.316 79.1684 114.279 78.2484 114.464 77.3613C114.803 75.7359 115.69 74.3531 117.352 73.4578C118.047 73.0852 118.833 72.8391 119.604 72.5227L119.471 72.348C118.759 71.5465 118.029 70.7578 117.33 69.9469C116.233 68.6742 115.444 67.2551 114.65 65.8289C113.899 64.4766 112.98 63.1969 112.189 61.8598C110.809 59.5277 109.404 57.2016 108.132 54.8262C106.533 51.8379 105.273 48.7465 104.877 45.4371C104.708 44.0379 104.665 42.6387 104.993 41.2523C105.516 39.0375 106.849 37.3055 109.093 36.1172C111.174 35.0156 113.492 34.6594 115.867 34.548C117.34 34.4789 118.823 34.5352 120.351 34.5352L120.301 34.3113C119.35 32.5863 118.462 30.832 117.42 29.1492C115.952 26.7727 114.071 24.6305 111.978 22.6418C110.429 21.1711 108.749 19.807 106.91 18.5988C105.102 17.4117 103.196 16.3512 101.162 15.4852C98.737 14.4504 96.2096 13.6512 93.5606 13.1414C91.0129 12.6516 88.4516 12.3516 85.8377 12.327C83.6104 12.3059 81.3965 12.3949 79.2259 12.8297C75.9497 13.4871 72.9533 14.6566 70.3488 16.5504C68.8932 17.6086 67.6214 18.7957 66.5117 20.1176C65.2048 21.6703 64.1533 23.3508 63.2531 25.1098C62.0178 27.525 61.1704 30.0363 60.5892 32.6191C60.2999 33.9082 60.0729 35.2055 59.8418 36.5027C59.7607 36.9586 59.7553 37.4215 59.7066 37.943L60.696 37.4965L61.661 37.1215C64.9277 35.8266 68.3107 34.9934 71.9464 35.0883C73.4925 35.1281 74.9685 35.3941 76.3443 35.9813C78.9799 37.1086 80.5207 39.0246 81.1911 41.448C81.6533 43.1215 81.9709 44.8277 82.2791 46.5305C82.5196 47.8594 82.767 49.2023 82.794 50.543C82.8332 52.5023 82.7197 54.4664 82.5967 56.4246C82.4926 58.0934 82.0912 59.7352 81.4181 61.2926C80.1963 64.1238 78.8339 66.9094 77.5621 69.7242C77.1418 70.6547 76.8187 71.6168 76.4227 72.6398L78.0284 72.641C78.223 72.6445 78.4217 72.6492 78.6096 72.6879C80.0706 72.9867 81.3397 73.5609 82.3791 74.5359C83.7685 75.8297 84.4956 77.3438 84.5321 79.098ZM56.6264 65.6742C55.7965 63.9703 55.2978 62.1926 55.1478 60.3563C55.0072 58.6289 55.2438 56.9109 55.4492 55.1906C55.6465 53.5254 55.8141 51.852 55.8709 50.1809C55.9668 47.4305 55.7533 44.6871 55.6019 41.9391C55.5114 40.3031 55.7303 38.6473 55.8979 37.0078C56.0493 35.5312 56.2385 34.0512 56.5615 32.5957C57.1008 30.1535 57.8185 27.7465 58.8389 25.4133C59.8053 23.2008 60.919 21.048 62.4868 19.1086C63.564 17.7773 64.7831 16.5363 65.9549 15.2355L65.6062 15.1277C61.7907 14.0777 57.9117 13.2551 53.9206 12.8977C52.0351 12.7277 50.1416 12.6293 48.2508 12.5309C47.6696 12.5016 47.0803 12.5695 46.4978 12.6176C45.0557 12.7383 43.5946 12.7852 42.1755 13.0195C39.7603 13.418 37.4423 14.0883 35.2974 15.1793C33.3701 16.159 31.7522 17.4234 30.3966 18.9422C28.9005 20.6191 27.8908 22.5152 27.1677 24.5355C26.3136 26.9203 25.9054 29.3754 25.7959 31.8516C25.7 34.023 25.6526 36.2063 26.0851 38.3695C26.4055 39.9785 26.6204 41.6063 26.9745 43.2105C27.4583 45.3961 27.9773 47.5781 28.5774 49.7414C29.433 52.8398 30.2899 55.9406 31.3049 59.0016C32.2753 61.9324 33.3687 64.8375 34.5581 67.7086C35.5285 70.0512 36.6517 72.3504 37.8343 74.618C38.6047 76.0957 39.5372 77.5184 40.5158 78.9012C41.5551 80.3707 42.7391 81.7652 44.342 82.8316C46.368 84.1769 47.9345 84.3867 49.9943 82.909C50.8755 82.2773 51.6202 81.4945 52.3879 80.7504C53.6057 79.5691 54.7815 78.3527 55.9952 77.1656C57.5401 75.6551 59.1038 74.1598 60.6568 72.6539C60.9852 72.3363 61.3028 72.0082 61.6218 71.6871L61.0906 71.2852C59.1646 69.6773 57.6698 67.8141 56.6264 65.6742ZM115.204 20.6707C116.467 21.9539 117.689 23.2746 118.816 24.648C120.997 27.3059 122.741 30.1746 124.026 33.2449C124.594 34.5984 125.048 35.9648 124.845 37.4449C124.705 38.482 124.714 39.5332 124.61 40.5762C124.522 41.4434 124.363 42.3059 124.234 43.1707C124.04 44.4738 123.759 45.7746 123.675 47.0836C123.594 48.3305 123.679 49.5891 123.769 50.8371C123.86 52.1063 124.057 53.3695 124.191 54.6352C124.342 56.073 124.548 57.5074 124.594 58.9477C124.632 60.1289 124.51 61.316 124.392 62.4973C124.25 63.9188 123.836 65.2945 123.217 66.6129C122.78 67.5434 122.26 68.4434 121.769 69.3738L121.966 69.5543L122.266 69.7559L122.57 69.2871C125.122 65.7984 127.393 62.1762 129.357 58.4156C130.624 55.9945 131.806 53.5383 132.944 51.068C134.716 47.223 136.12 43.2715 137.202 39.2391C137.689 37.4297 138.062 35.5922 138.392 33.7547C138.65 32.318 138.864 30.8648 138.912 29.4152C138.962 27.8777 138.865 26.3285 138.701 24.7957C138.578 23.6379 138.249 22.473 137.413 21.5297C136.067 20.0145 134.616 18.566 132.83 17.4188C131.326 16.4543 129.826 15.4617 128.213 14.6508C125.655 13.3629 122.885 12.5074 119.992 11.9238C117.166 11.3531 114.306 11.107 111.427 11.0543C109.729 11.0227 108.024 11.1809 106.33 11.3203C104.795 11.4445 103.269 11.6578 101.724 11.8336C103.382 12.6422 105.019 13.3617 106.56 14.209C109.804 15.9902 112.712 18.1336 115.204 20.6707ZM73.0628 70.5492C74.1102 67.643 75.5388 64.8656 76.9215 62.0742C78.0446 59.809 78.6569 57.4242 78.861 54.9727C78.9623 53.7645 78.9353 52.541 78.8664 51.3293C78.7893 49.984 78.6663 48.6328 78.4393 47.3004C78.1487 45.5965 77.8189 43.8914 77.354 42.2191C76.8498 40.4098 75.5794 39.1488 73.4006 38.6836C72.0748 38.4012 70.7556 38.4129 69.4135 38.5969C66.1387 39.0434 63.1409 40.0898 60.3486 41.6227C59.7864 41.9309 59.4755 42.1805 59.5742 42.8777C59.7796 44.359 59.8242 45.8637 59.8161 47.3578C59.8053 49.473 59.7012 51.5883 59.6093 53.7023C59.5796 54.3902 59.4647 55.077 59.3782 55.7625C59.2484 56.8125 58.9957 57.8613 59.0038 58.9102C59.0119 59.9906 59.139 61.0957 59.4417 62.1422C60.4027 65.4609 62.4354 68.175 65.7697 70.091C67.82 71.2699 70.088 71.8629 72.5789 71.9766C72.7438 71.4809 72.8965 71.0133 73.0628 70.5492ZM69.1486 42.0855C68.7094 41.2875 68.9608 40.6254 69.9771 40.3184C70.2258 40.2445 70.4799 40.1625 70.7367 40.1414C71.0922 40.1109 71.4503 40.1332 71.8085 40.1332C73.0993 40.1402 74.34 40.2961 75.4037 41.0063C76.0876 41.4633 76.2714 42.0668 75.8281 42.6902C75.1996 43.5727 74.244 44.0156 73.0682 44.1C71.2179 44.2324 69.919 43.4848 69.1486 42.0855ZM120.474 41.7938L120.895 38.6004C120.955 38.1738 120.697 38.0566 120.284 38.0461C118.982 38.0156 117.682 37.9746 116.38 37.9559C114.915 37.9324 113.487 38.1363 112.13 38.6191C110.624 39.157 109.478 40.0172 109.009 41.4387C108.659 42.498 108.566 43.5562 108.69 44.6637C108.878 46.3523 109.31 47.9906 109.991 49.5621C110.902 51.6633 111.854 53.7633 112.993 55.7766C114.535 58.5012 116.279 61.1402 117.917 63.8238C118.354 64.5398 118.724 65.2887 119.179 66.1242C120.135 64.3711 120.6 62.6156 120.653 60.8063C120.697 59.2816 120.558 57.7535 120.455 56.2289C120.392 55.2961 120.239 54.368 120.135 53.4375C119.99 52.1414 119.769 50.8441 119.734 49.5445C119.7 48.2227 119.808 46.8937 119.938 45.573C120.059 44.3098 120.3 43.0547 120.474 41.7938ZM117.543 40.7695C117.059 41.9262 116.026 42.5801 114.685 42.7711C113.437 42.9504 112.342 42.5508 111.528 41.6859C110.948 41.0707 111.17 40.343 112.039 39.9258C113.037 39.4477 114.133 39.327 115.426 39.2543C115.779 39.3094 116.306 39.3574 116.809 39.4805C117.537 39.6586 117.808 40.1367 117.543 40.7695ZM78.8907 76.398C78.1771 75.8918 77.231 75.8625 76.5525 76.418C75.7091 77.1094 74.9671 77.8992 74.2251 78.6773C73.3696 79.5773 72.564 80.5125 71.4612 81.2098C69.8541 82.2234 67.9768 82.643 66.0928 83.0402C64.5952 83.3566 63.0896 83.6508 61.588 83.9531L61.5691 84.1219C62.0151 84.3 62.4462 84.5238 62.9125 84.6516C65.2034 85.2797 67.5349 85.5938 69.9569 85.4156C71.7031 85.2855 73.3682 84.9551 74.9455 84.307C77.1174 83.4152 78.7893 82.0008 80.2098 80.3578C80.4477 80.0836 80.5558 79.6781 80.5829 79.3242C80.6788 78.075 79.9476 77.1457 78.8907 76.398ZM120.715 75.8566C119.592 76.1836 118.678 76.6816 118.406 77.7352C118.221 78.4477 118.154 79.1848 118.082 79.9148C118.068 80.0437 118.254 80.2805 118.394 80.3133C119.259 80.5113 120.13 80.7445 121.013 80.8137C122.102 80.8992 123.207 80.8723 124.302 80.8254C125.483 80.7738 126.672 80.707 127.838 80.5383C130.58 80.1375 133.236 79.4883 135.593 78.1383C136.444 77.652 137.285 77.1551 138.131 76.6605L138.061 76.5563C137.159 76.6723 136.26 76.8141 135.355 76.8973C133.511 77.0684 131.667 77.2488 129.816 77.3414C128.923 77.3859 128.017 77.2371 127.117 77.1738C125.606 77.0672 124.13 76.7766 122.853 76.0758C122.116 75.6727 121.5 75.6281 120.715 75.8566Z" fill="#336791"/>
<path d="M3.83179 120.659C5.30905 120.446 7.24043 120.263 9.70162 120.263C12.7224 120.263 14.9376 120.873 16.3432 121.969C17.6434 122.944 18.4165 124.437 18.4165 126.267C18.4165 128.125 17.7826 129.588 16.5878 130.654C14.9714 132.147 12.3358 132.909 9.34887 132.909C8.43521 132.909 7.59183 132.878 6.89037 132.726V140.954H3.83179V120.659ZM6.89037 130.562C7.55805 130.714 8.40142 130.775 9.4205 130.775C13.1089 130.775 15.3593 129.221 15.3593 126.387C15.3593 123.676 13.1454 122.365 9.7719 122.365C8.43656 122.365 7.41748 122.457 6.89037 122.579V130.562ZM36.9356 133.456C36.9356 138.91 32.5768 141.288 28.4654 141.288C23.8619 141.288 20.3127 138.363 20.3127 133.7C20.3127 128.764 24.0376 125.869 28.7465 125.869C33.6324 125.868 36.9356 128.947 36.9356 133.456ZM23.4416 133.608C23.4416 136.838 25.5852 139.276 28.6073 139.276C31.5591 139.276 33.7716 136.869 33.7716 133.548C33.7716 131.049 32.3322 127.88 28.6762 127.88C25.0202 127.88 23.4416 130.805 23.4416 133.608ZM40.4132 138.209C41.3268 138.727 42.9433 139.276 44.4895 139.276C46.7385 139.276 47.7927 138.301 47.7927 137.082C47.7927 135.802 46.9156 135.101 44.6301 134.37C41.5728 133.426 40.1321 131.963 40.1321 130.196C40.1321 127.819 42.3459 125.869 46.0005 125.869C47.7224 125.869 49.2348 126.296 50.1836 126.783L49.4105 128.733C48.7429 128.368 47.5129 127.88 45.9316 127.88C44.1043 127.88 43.0852 128.794 43.0852 129.891C43.0852 131.11 44.1057 131.658 46.3195 132.39C49.2713 133.365 50.7824 134.644 50.7824 136.838C50.7824 139.428 48.4631 141.256 44.4219 141.256C42.5595 141.256 40.8376 140.86 39.6428 140.251L40.4132 138.209ZM58.4768 121.968V126.203H62.9032V128.245H58.4768V136.197C58.4768 138.025 59.0729 139.061 60.7961 139.061C61.6043 139.061 62.2017 138.97 62.5883 138.878L62.7288 140.889C62.1328 141.103 61.1826 141.255 59.9892 141.255C58.5484 141.255 57.3875 140.859 56.6495 140.128C55.7723 139.335 55.4547 138.025 55.4547 136.289V128.245H52.8192V126.203H55.4547V122.669L58.4768 121.968ZM80.8263 126.205C80.7546 127.271 80.6857 128.459 80.6857 130.257V138.819C80.6857 142.201 79.9126 144.273 78.261 145.553C76.6094 146.894 74.2198 147.321 72.0762 147.321C70.0381 147.321 67.7891 146.894 66.4172 146.102L67.1903 144.06C68.3148 144.67 70.0719 145.218 72.1803 145.218C75.343 145.218 77.6622 143.786 77.6622 140.069V138.424H77.592C76.6432 139.795 74.8159 140.892 72.1803 140.892C67.9634 140.892 64.9413 137.784 64.9413 133.7C64.9413 128.703 68.7014 125.869 72.602 125.869C75.5552 125.869 77.1716 127.21 77.9096 128.429H77.9799L78.1204 126.205H80.8263ZM77.6285 132.024C77.6285 131.567 77.5933 131.171 77.4528 130.805C76.8905 129.251 75.3795 127.972 73.1305 127.972C70.1773 127.972 68.0702 130.135 68.0702 133.548C68.0702 136.442 69.757 138.849 73.0953 138.849C74.9929 138.849 76.7148 137.813 77.3825 136.107C77.5582 135.65 77.6298 135.132 77.6298 134.675L77.6285 132.024ZM85.604 130.805C85.604 129.069 85.5689 127.576 85.4635 126.205H88.1706L88.2747 129.099H88.4153C89.1884 127.119 91.0508 125.869 93.1241 125.869C93.4755 125.869 93.7202 125.9 94.0013 125.961V128.49C93.6864 128.429 93.3688 128.398 92.9484 128.398C90.7697 128.398 89.2222 129.83 88.8018 131.841C88.7316 132.207 88.6613 132.633 88.6613 133.09V140.951H85.604V130.805ZM98.4668 134.065C98.5371 137.691 101.206 139.184 104.299 139.184C106.514 139.184 107.848 138.849 109.008 138.423L109.535 140.342C108.445 140.769 106.583 141.256 103.877 141.256C98.6412 141.256 95.5137 138.27 95.5137 133.822C95.5137 129.373 98.5358 125.868 103.491 125.868C109.043 125.868 110.519 130.103 110.519 132.815C110.519 133.364 110.448 133.79 110.413 134.064L98.4668 134.065ZM107.533 132.146C107.567 130.44 106.724 127.789 103.246 127.789C100.118 127.789 98.748 130.287 98.5006 132.146H107.533ZM114.033 137.722C115.403 138.453 117.406 139.062 119.515 139.062C122.642 139.062 124.47 137.63 124.47 135.558C124.47 133.639 123.205 132.542 120.007 131.476C116.141 130.287 113.752 128.551 113.752 125.656C113.752 122.457 116.809 120.08 121.412 120.08C123.837 120.08 125.594 120.568 126.648 121.086L125.805 123.249C125.032 122.883 123.45 122.274 121.307 122.274C118.074 122.274 116.844 123.95 116.844 125.351C116.844 127.271 118.283 128.215 121.553 129.312C125.559 130.654 127.597 132.329 127.597 135.345C127.597 138.514 124.891 141.256 119.304 141.256C117.02 141.256 114.525 140.677 113.258 139.946L114.033 137.722ZM151.317 143.968C148.119 143.237 144.992 142.414 142.251 141.591C141.759 141.439 141.267 141.287 140.81 141.287C135.187 141.104 130.373 137.508 130.373 130.897C130.373 124.315 135.012 120.08 141.407 120.08C147.838 120.08 152.021 124.407 152.021 130.47C152.021 135.741 149.21 139.123 145.274 140.312V140.433C147.629 140.951 150.194 141.439 152.197 141.744L151.317 143.968ZM148.787 130.592C148.787 126.479 146.328 122.242 141.302 122.242C136.136 122.242 133.606 126.386 133.641 130.836C133.606 135.193 136.382 139.123 141.161 139.123C146.047 139.123 148.787 135.284 148.787 130.592ZM155.989 120.415H159.048V138.727H169.168V140.951H155.989V120.415Z" fill="#336791"/>
</svg>
