<svg width="150" height="161" viewBox="0 0 150 161" fill="none" xmlns="http://www.w3.org/2000/svg">
<path d="M39.943 73.3917L40.2922 73.4542C43.61 74.079 46.7241 75.672 49.2561 78.0464C49.8672 78.6084 50.4493 79.2334 51.0023 79.8888L58.4237 60.7717L60.2281 56.1173C60.3735 56.0861 60.49 56.0548 60.6355 56.0236C63.4004 55.2113 65.5831 53.2746 66.8927 50.8069C68.2024 48.3391 68.639 45.3403 67.8822 42.3727C67.6203 41.4043 67.2711 40.4672 66.8054 39.655C64.4772 35.4692 59.7624 33.2513 55.1641 34.5945C49.6635 36.2189 46.4039 42.3102 47.9173 48.2454C48.1792 49.3387 48.6158 50.3383 49.1397 51.2442L46.986 55.4613L37.9348 73.173C38.6042 73.2355 39.2736 73.298 39.943 73.3917Z" fill="#F46262"/>
<path d="M112.411 44.8402C112.44 46.9019 111.974 48.8387 111.13 50.5567C109.5 53.9616 106.386 56.4293 102.719 57.0229C102.195 57.1166 101.672 57.1479 101.118 57.1479C96.1125 57.2104 91.8637 53.7742 90.2922 48.9948L86.1305 49.3072L71.4913 50.463C72.4514 47.5267 72.5682 44.3404 71.7821 41.2479C71.6661 40.8105 71.5493 40.3732 71.4036 39.9359L86.0717 40.8105L90.2632 41.0605C91.747 36.2498 95.9675 32.7825 100.944 32.72C101.555 32.72 102.137 32.7513 102.719 32.845C106.386 33.4385 109.471 35.9063 111.13 39.3112C111.945 40.998 112.411 42.8722 112.411 44.8402Z" fill="#3B4652"/>
<path d="M114.069 36.0314L120.56 28.5655L130.338 38.9677L135.14 33.751L126.235 22.0681L119.686 13.4778L113.284 20.8186L105.92 29.2527C109.267 30.4398 112.148 32.8451 114.069 36.0314Z" fill="#F46262"/>
<path d="M120.531 61.3651L114.04 53.8992C112.119 57.0855 109.238 59.4908 105.92 60.6778L113.254 69.0807L119.657 76.4218L126.206 67.8312L135.111 56.1483L130.309 50.9316L120.531 61.3651Z" fill="#F46262"/>
<path d="M110.402 117.905H59.0639V93.134H51.5844C51.5844 91.4784 51.3515 89.854 50.8568 88.2918C50.4493 86.9803 49.8964 85.7302 49.1688 84.5432C48.4703 83.3874 47.5972 82.2945 46.5495 81.3574C44.4832 79.4201 42.0675 78.2331 39.5356 77.7645C38.255 77.5147 36.9454 77.4524 35.6648 77.6088C32.056 77.9521 28.5927 79.7641 26.0316 82.9188C23.6451 85.8867 22.4518 89.5411 22.4518 93.1651H15.0305V117.936V147.675H110.402C118.056 147.675 124.256 141.021 124.256 132.805C124.256 124.59 118.056 117.905 110.402 117.905ZM92.8238 134.461H24.7219C23.5869 134.461 22.6847 133.493 22.6847 132.274C22.6847 131.056 23.5869 130.088 24.7219 130.088H92.8238C93.9587 130.088 94.8608 131.056 94.8608 132.274C94.8608 133.493 93.9587 134.461 92.8238 134.461ZM108.656 139.115C105.397 139.115 102.748 136.273 102.748 132.774C102.748 129.275 105.397 126.433 108.656 126.433C111.916 126.433 114.564 129.275 114.564 132.774C114.564 136.273 111.916 139.115 108.656 139.115Z" fill="#3B4652"/>
</svg>
