<svg width="226" height="210" viewBox="0 0 226 210" fill="none" xmlns="http://www.w3.org/2000/svg">
<path d="M213.971 1.95703L213.975 1.95566C215.407 1.46784 216.964 1.36879 218.458 1.67258C219.946 1.975 221.297 2.66121 222.359 3.63722C223.381 4.63589 224.066 5.86992 224.351 7.19102C224.636 8.51705 224.511 9.89196 223.985 11.1603L223.979 11.1741L223.974 11.188L148.553 203.678L148.552 203.681C148.021 205.044 147.05 206.245 145.747 207.113C144.446 207.979 142.882 208.467 141.26 208.5C139.654 208.499 138.092 208.051 136.778 207.224C135.461 206.396 134.46 205.232 133.887 203.896L133.886 203.893L101.874 129.708L161.152 74.694L162.336 73.5945L161.152 72.495L147.859 60.1582L146.837 59.2097L145.816 60.1598L86.7217 115.177L6.60536 85.4873L6.59382 85.483L6.5822 85.4789C5.06284 84.9441 3.77321 83.9993 2.87234 82.788C1.97278 81.5784 1.5 80.1572 1.5 78.713C1.5 77.2688 1.97278 75.8476 2.87234 74.638C3.77143 73.4291 5.05775 72.4856 6.57322 71.9502C6.57621 71.9492 6.5792 71.9481 6.5822 71.9471L213.971 1.95703Z" fill="#7A859C" stroke="#3A92FA" stroke-width="3"/>
</svg>
