<svg width="139" height="167" viewBox="0 0 139 167" fill="none" xmlns="http://www.w3.org/2000/svg">
<path d="M95.3445 120.79V153.347H43.6743V120.79C43.67 115.621 45.7652 110.644 49.5339 106.872C53.3026 103.1 58.462 100.815 63.9633 100.481V92.0957H75.0555V100.481C80.556 100.817 85.7141 103.102 89.4823 106.874C93.2506 110.646 95.3465 115.621 95.3445 120.79Z" fill="#FFC9B0"/>
<path d="M95.3538 154.217H43.6743C43.4254 154.217 43.1867 154.125 43.0107 153.96C42.8347 153.795 42.7358 153.571 42.7358 153.337V120.781C42.7398 115.533 44.8146 110.472 48.5606 106.573C52.3066 102.674 57.4588 100.212 63.0248 99.6625V92.0865C63.0248 91.8531 63.1236 91.6293 63.2996 91.4643C63.4756 91.2992 63.7143 91.2065 63.9632 91.2065H75.0555C75.3044 91.2065 75.5431 91.2992 75.7191 91.4643C75.8951 91.6293 75.9939 91.8531 75.9939 92.0865V99.6625C81.56 100.214 86.7121 102.676 90.4592 106.574C94.2063 110.473 96.2839 115.532 96.2922 120.781V153.337C96.2922 153.571 96.1934 153.795 96.0174 153.96C95.8414 154.125 95.6027 154.217 95.3538 154.217ZM44.6127 152.458H94.4154V120.781C94.4057 115.836 92.3949 111.079 88.7891 107.471C85.1833 103.863 80.2514 101.673 74.9898 101.343C74.7525 101.328 74.5303 101.228 74.3683 101.065C74.2063 100.901 74.1165 100.686 74.1171 100.463V92.9576H64.9016V100.463C64.9022 100.686 64.8124 100.901 64.6504 101.065C64.4884 101.228 64.2662 101.328 64.0289 101.343C58.7666 101.669 53.8331 103.858 50.228 107.467C46.6228 111.077 44.6155 115.836 44.6127 120.781V152.458Z" fill="#093F68"/>
<path d="M31.2588 66.0324C26.1162 64.2022 26.4259 60.5241 25.6282 55.7902C24.8576 51.107 24.3813 46.3855 24.2018 41.6499C23.9015 33.4491 22.8974 17.241 37.2367 20.4175C36.9833 20.3559 41.9945 10.0433 42.5294 9.13698C44.5095 5.8021 45.2884 4.92218 48.7606 3.6815C57.3427 0.676379 66.6731 0.0831475 75.6092 1.97446C89.376 4.75499 113.259 15.3756 114.892 30.8621C116.056 41.9315 111.42 56.0541 108.811 66.9387L101.942 65.8124C99.0607 65.3373 95.4571 66.006 92.5573 66.0852L71.086 66.7187C60.3597 66.9915 42.9423 70.1768 31.2588 66.0324Z" fill="#725858"/>
<path d="M46.7334 69.0154C41.1028 69.0154 35.5661 68.505 30.9208 66.8508C25.9847 65.0909 25.5342 61.7472 25.0087 57.858C24.9242 57.2333 24.8304 56.5909 24.7272 55.9222C23.9491 51.2043 23.4697 46.4474 23.2914 41.6764V41.0252C23.0474 34.6634 22.6814 25.0459 27.9835 20.9719C30.1701 19.2913 33.0792 18.7633 36.6453 19.3881C36.9737 18.5697 37.6306 17.1619 38.8318 14.6453C40.033 12.1288 41.45 9.23383 41.7597 8.70588C43.8431 5.18621 44.7721 4.18311 48.4883 2.85444C57.2373 -0.211554 66.749 -0.823044 75.8624 1.0946C88.1559 3.58477 114.122 14.1086 115.877 30.7566C116.816 39.8637 114 50.8539 111.438 60.5594C110.847 62.8559 110.284 65.0117 109.787 67.0795C109.735 67.3012 109.593 67.4954 109.392 67.6216C109.191 67.7479 108.946 67.7964 108.708 67.7571C104.166 67.0092 102.505 66.7364 101.848 66.5868C99.8064 66.3727 97.7445 66.3993 95.7103 66.666C94.6311 66.7628 93.6176 66.8508 92.6416 66.8772L71.1702 67.5107C68.4863 67.5899 65.3426 67.8451 62.0205 68.1266C57.2439 68.5754 51.9511 69.0154 46.7334 69.0154ZM33.8487 20.8839C32.1517 20.828 30.4886 21.3395 29.1566 22.327C24.577 25.8467 24.943 35.3146 25.1589 40.9636V41.6148C25.3357 46.3293 25.8057 51.0302 26.5665 55.6934C26.6791 56.371 26.773 57.0309 26.8574 57.6732C27.3642 61.4041 27.702 63.8327 31.5496 65.2405C40.0893 68.2762 52.1106 67.2643 61.7765 66.4636C65.1361 66.182 68.2986 65.9181 71.0389 65.8389L92.5102 65.2053C93.4486 65.2053 94.3871 65.0909 95.4663 65.0029C97.663 64.7192 99.8893 64.6985 102.092 64.9413L108.079 65.9181C108.529 64.0878 109.017 62.1872 109.543 60.1898C112.039 50.6163 114.864 39.7757 113.935 30.9766C112.424 16.6515 90.4738 5.91655 75.3932 2.86324C66.6477 1.01854 57.5189 1.5963 49.1171 4.52628C45.8982 5.67897 45.2976 6.3477 43.3645 9.5946C42.7639 10.5977 38.5878 19.2737 38.1937 20.4792C38.2027 20.5346 38.2027 20.5909 38.1937 20.6463C38.1358 20.8723 37.9848 21.0676 37.7738 21.1896C37.5628 21.3116 37.3089 21.3504 37.0676 21.2975C36.015 21.0447 34.935 20.9059 33.8487 20.8839Z" fill="#093F68"/>
<path d="M37.8466 76.5649C43.7913 76.5649 48.6104 72.6726 48.6104 67.8713C48.6104 63.07 43.7913 59.1777 37.8466 59.1777C31.9019 59.1777 27.0828 63.07 27.0828 67.8713C27.0828 72.6726 31.9019 76.5649 37.8466 76.5649Z" fill="#FFC9B0"/>
<path d="M37.8468 77.4448C31.3904 77.4448 26.1445 73.1508 26.1445 67.8713C26.1445 62.5918 31.3904 58.2979 37.8468 58.2979C44.3032 58.2979 49.5491 62.5918 49.5491 67.8713C49.5491 73.1508 44.2938 77.4448 37.8468 77.4448ZM37.8468 60.0577C32.4227 60.0577 28.0214 63.5773 28.0214 67.8713C28.0214 72.1653 32.4227 75.685 37.8468 75.685C43.2709 75.685 47.6722 72.1653 47.6722 67.8713C47.6722 63.5773 43.2334 60.0577 37.8468 60.0577Z" fill="#093F68"/>
<path d="M100.6 76.5649C106.544 76.5649 111.363 72.6726 111.363 67.8713C111.363 63.07 106.544 59.1777 100.6 59.1777C94.6548 59.1777 89.8357 63.07 89.8357 67.8713C89.8357 72.6726 94.6548 76.5649 100.6 76.5649Z" fill="#FFC9B0"/>
<path d="M100.6 77.4448C94.1433 77.4448 88.8975 73.1508 88.8975 67.8713C88.8975 62.5918 94.1433 58.2979 100.6 58.2979C107.056 58.2979 112.302 62.5918 112.302 67.8713C112.302 73.1508 107.047 77.4448 100.6 77.4448ZM100.6 60.0577C95.1756 60.0577 90.7743 63.5773 90.7743 67.8713C90.7743 72.1653 95.1756 75.685 100.6 75.685C106.024 75.685 110.425 72.1653 110.425 67.8713C110.425 63.5773 106.014 60.0577 100.6 60.0577Z" fill="#093F68"/>
<path d="M69.5094 96.2136C60.8995 96.2136 52.6421 93.0073 46.5531 87.2996C40.4641 81.5919 37.042 73.8504 37.0396 65.7773C37.0396 61.6329 37.0396 57.4885 37.0396 53.3441C37.0396 46.1288 38.9164 40.4357 41.3751 33.5372C43.5608 36.2938 46.337 38.5914 49.5256 40.2825C52.7142 41.9736 56.2447 43.0209 59.8904 43.3571C58.2045 40.1596 57.4379 36.6049 57.6663 33.0444C65.5492 38.4823 78.7811 40.0838 88.4282 40.2597C89.5918 40.2597 101.97 39.9694 101.97 37.62V65.7773C101.97 73.8495 98.5498 81.5911 92.4623 87.299C86.3748 93.007 78.1184 96.2136 69.5094 96.2136Z" fill="#FFC9B0"/>
<path d="M69.5096 97.0933C60.6538 97.084 52.1635 93.7819 45.9007 87.9113C39.6378 82.0406 36.1137 74.0806 36.1013 65.7771V53.3439C36.1013 46.1462 37.9219 40.4795 40.4838 33.2554C40.5389 33.1018 40.6382 32.9655 40.7707 32.8615C40.9031 32.7575 41.0637 32.6898 41.2346 32.6659C41.4105 32.6344 41.5923 32.6509 41.7586 32.7133C41.9249 32.7756 42.0687 32.8813 42.173 33.0178C46.0913 37.9639 51.9057 41.2893 58.3891 42.2921C57.1169 39.3437 56.5623 36.1663 56.7656 32.9914C56.7755 32.8322 56.8314 32.6785 56.9273 32.5468C57.0232 32.415 57.1554 32.3102 57.3099 32.2435C57.4607 32.1792 57.627 32.1535 57.7918 32.1689C57.9566 32.1844 58.1141 32.2405 58.2484 32.3315C66.5535 38.0685 80.7708 39.2124 88.4753 39.3708C94.913 39.5204 100.619 38.1653 101.06 37.5406C101.051 37.4881 101.051 37.4347 101.06 37.3822C101.104 37.1805 101.222 36.9995 101.393 36.8709C101.564 36.7423 101.779 36.6741 101.998 36.6783C102.247 36.6783 102.486 36.771 102.662 36.936C102.838 37.101 102.937 37.3248 102.937 37.5582V65.7155C102.939 69.8338 102.076 73.9122 100.398 77.7179C98.7193 81.5236 96.2578 84.982 93.1538 87.8957C90.0498 90.8094 86.3642 93.1213 82.3073 94.6995C78.2504 96.2776 73.9017 97.091 69.5096 97.0933ZM41.7225 35.3672C39.4985 41.7114 37.9688 46.9293 37.9688 53.3439V65.7771C38.1114 73.5288 41.4957 80.9178 47.3926 86.3524C53.2895 91.787 61.2271 94.8323 69.4955 94.8323C77.7639 94.8323 85.7015 91.787 91.5984 86.3524C97.4953 80.9178 100.88 73.5288 101.022 65.7771V39.582C97.2684 41.0955 88.5128 41.1306 88.4002 41.1394C80.8928 40.9723 67.3793 39.8988 58.558 34.6809C58.6209 37.5598 59.3611 40.3901 60.7258 42.9697C60.8007 43.1108 60.8338 43.2683 60.8216 43.4255C60.8094 43.5828 60.7524 43.7341 60.6565 43.8636C60.5605 43.9931 60.4293 44.096 60.2764 44.1617C60.1235 44.2273 59.9546 44.2533 59.7874 44.2368C52.7688 43.5827 46.2938 40.4036 41.7225 35.3672Z" fill="#093F68"/>
<path d="M69.4156 73.8812C68.4346 73.8794 67.4554 73.8029 66.4877 73.6524C66.2388 73.6116 66.0174 73.4797 65.8722 73.2858C65.727 73.0919 65.6699 72.8519 65.7135 72.6185C65.757 72.3851 65.8977 72.1776 66.1045 72.0414C66.3113 71.9053 66.5673 71.8517 66.8161 71.8926C68.2925 72.1156 69.7974 72.1156 71.2737 71.8926C71.4614 71.0831 70.3353 68.0649 68.7399 65.2316C68.6832 65.1288 68.6487 65.0165 68.6383 64.9011C68.6279 64.7858 68.6418 64.6696 68.6793 64.5593C68.7168 64.449 68.7771 64.3467 68.8567 64.2582C68.9363 64.1698 69.0338 64.0969 69.1435 64.0437C69.2531 63.9906 69.3729 63.9582 69.4959 63.9484C69.619 63.9387 69.7428 63.9518 69.8605 63.9869C69.9781 64.022 70.0872 64.0785 70.1816 64.1532C70.2759 64.2279 70.3537 64.3192 70.4103 64.4221C71.4614 66.3139 73.8169 70.9071 72.9535 72.7021C72.8575 72.918 72.7091 73.11 72.5201 73.2627C72.3312 73.4155 72.1068 73.5248 71.8649 73.582C71.0636 73.7706 70.2417 73.8709 69.4156 73.8812Z" fill="#093F68"/>
<path d="M69.6032 86.6487C67.5043 86.6487 65.4911 85.8675 64.006 84.4766C62.5209 83.0858 61.6853 81.1991 61.6829 79.231C61.6829 78.9976 61.7817 78.7738 61.9577 78.6088C62.1337 78.4438 62.3724 78.3511 62.6213 78.3511C62.8702 78.3511 63.1089 78.4438 63.2849 78.6088C63.4609 78.7738 63.5597 78.9976 63.5597 79.231C63.5597 80.7339 64.1965 82.1752 65.3298 83.2379C66.4632 84.3006 68.0004 84.8977 69.6032 84.8977C71.2061 84.8977 72.7433 84.3006 73.8766 83.2379C75.01 82.1752 75.6467 80.7339 75.6467 79.231C75.6467 78.9976 75.7456 78.7738 75.9216 78.6088C76.0976 78.4438 76.3363 78.3511 76.5852 78.3511C76.8341 78.3511 77.0728 78.4438 77.2488 78.6088C77.4247 78.7738 77.5236 78.9976 77.5236 79.231C77.5186 81.1984 76.6823 83.0837 75.1977 84.4741C73.7132 85.8644 71.7015 86.6464 69.6032 86.6487Z" fill="#093F68"/>
<path d="M118.186 140.245H21.0112C13.408 140.245 7.24438 146.024 7.24438 153.153C7.24438 160.282 13.408 166.061 21.0112 166.061H118.186C125.789 166.061 131.953 160.282 131.953 153.153C131.953 146.024 125.789 140.245 118.186 140.245Z" fill="#68E1FD"/>
<path d="M118.186 166.941H21.0109C17.1109 166.941 13.3705 165.488 10.6127 162.902C7.85497 160.317 6.30566 156.809 6.30566 153.153C6.30566 149.496 7.85497 145.989 10.6127 143.403C13.3705 140.817 17.1109 139.364 21.0109 139.364H118.186C122.086 139.364 125.826 140.817 128.584 143.403C131.342 145.989 132.891 149.496 132.891 153.153C132.891 156.809 131.342 160.317 128.584 162.902C125.826 165.488 122.086 166.941 118.186 166.941ZM21.0109 141.124C17.6086 141.124 14.3457 142.391 11.9399 144.647C9.5341 146.903 8.18253 149.962 8.18253 153.153C8.18253 156.343 9.5341 159.402 11.9399 161.658C14.3457 163.914 17.6086 165.181 21.0109 165.181H118.186C121.588 165.181 124.851 163.914 127.257 161.658C129.663 159.402 131.014 156.343 131.014 153.153C131.014 149.962 129.663 146.903 127.257 144.647C124.851 142.391 121.588 141.124 118.186 141.124H21.0109Z" fill="#093F68"/>
<path d="M63.9634 100.481C63.9634 100.481 36.5799 100.481 21.8934 113.908C9.98471 124.802 1.51066 144.521 1.51066 144.521C1.51066 144.521 -1.19203 160.702 4.94533 161.547C10.2381 162.286 11.1108 148.348 11.1108 148.348C11.1108 148.348 13.8511 156.32 15.2212 153.909C16.5913 151.499 14.6487 145.453 14.6487 145.453C14.6487 145.453 24.7463 131.111 29.72 126.852C35.1897 122.137 42.0287 119.05 49.3708 117.982" fill="#FFC9B0"/>
<path d="M5.34873 162.462C5.16755 162.475 4.98561 162.475 4.80443 162.462C4.23808 162.379 3.69596 162.188 3.21168 161.9C2.72739 161.613 2.31128 161.235 1.98913 160.79C-1.37046 156.505 0.525172 144.952 0.600247 144.433L0.656551 144.239C1.01316 143.43 9.33707 124.221 21.3021 113.319C29.0536 106.236 40.2678 102.892 48.3102 101.343C53.4825 100.322 58.7446 99.7538 64.029 99.645C64.2779 99.645 64.5166 99.7377 64.6925 99.9027C64.8685 100.068 64.9674 100.292 64.9674 100.525C64.9674 100.758 64.8685 100.982 64.6925 101.147C64.5166 101.312 64.2779 101.405 64.029 101.405C63.7662 101.405 36.8144 101.563 22.6159 114.604C11.3265 124.837 3.06832 143.315 2.4208 144.758C1.89528 147.988 1.107 156.672 3.49062 159.717C3.67103 159.973 3.90573 160.193 4.18015 160.361C4.45458 160.529 4.76289 160.642 5.08597 160.694C5.33639 160.725 5.5911 160.705 5.83252 160.635C6.07393 160.565 6.29628 160.447 6.48422 160.289C9.01799 158.362 10.0034 151.006 10.1723 148.34C10.184 148.133 10.2732 147.936 10.4243 147.785C10.5754 147.634 10.7786 147.537 10.9981 147.512C11.2146 147.489 11.4333 147.536 11.6165 147.647C11.7997 147.758 11.9361 147.925 12.0022 148.12C12.5764 149.955 13.4163 151.708 14.4985 153.329C15.1929 151.666 14.4328 147.856 13.7571 145.753C13.7169 145.629 13.7062 145.499 13.7256 145.371C13.7451 145.244 13.7943 145.121 13.8697 145.014C14.2826 144.424 24.0799 130.53 29.0817 126.245C34.6883 121.384 41.7249 118.217 49.2768 117.155C49.4 117.144 49.5245 117.155 49.6431 117.189C49.7616 117.222 49.872 117.277 49.9678 117.351C50.0637 117.424 50.1432 117.515 50.2017 117.617C50.2603 117.72 50.2967 117.832 50.3091 117.947C50.3214 118.063 50.3093 118.18 50.2736 118.291C50.2378 118.402 50.179 118.505 50.1006 118.595C50.0221 118.685 49.9256 118.76 49.8165 118.815C49.7073 118.869 49.5877 118.904 49.4645 118.915C42.3301 119.98 35.6847 122.981 30.3486 127.547C25.938 131.331 17.2105 143.474 15.6715 145.656C16.1219 147.169 17.3888 152.026 16.0562 154.376C15.9264 154.656 15.7066 154.892 15.4274 155.049C15.1482 155.207 14.8235 155.279 14.4985 155.256C13.4568 155.168 12.4714 153.821 11.6268 152.106C11.1013 155.379 9.98459 159.858 7.66666 161.626C7.02579 162.156 6.20323 162.453 5.34873 162.462Z" fill="#093F68"/>
<path d="M75.0554 100.481C75.0554 100.481 102.439 100.481 117.125 113.908C129.034 124.802 137.508 144.521 137.508 144.521C137.508 144.521 140.211 160.702 134.073 161.547C128.781 162.286 127.908 148.348 127.908 148.348C127.908 148.348 125.168 156.32 123.798 153.909C122.428 151.499 124.37 145.453 124.37 145.453C124.37 145.453 114.273 131.111 109.299 126.852C103.829 122.137 96.9901 119.05 89.6481 117.982" fill="#FFC9B0"/>
<path d="M133.67 162.462C132.818 162.456 131.997 162.166 131.352 161.644C129.034 159.884 127.918 155.397 127.392 152.123C126.547 153.883 125.562 155.185 124.52 155.273C124.195 155.298 123.87 155.227 123.59 155.069C123.311 154.911 123.091 154.675 122.963 154.394C121.63 152.044 122.897 147.187 123.347 145.674C121.79 143.491 113.081 131.349 108.67 127.565C103.334 122.999 96.6887 119.998 89.5544 118.933C89.3055 118.91 89.0767 118.794 88.9183 118.613C88.7599 118.431 88.6849 118.198 88.7098 117.965C88.7347 117.732 88.8574 117.517 89.051 117.369C89.2446 117.22 89.4932 117.15 89.742 117.173C97.2939 118.234 104.331 121.401 109.937 126.263C114.939 130.548 124.736 144.442 125.149 145.031C125.225 145.139 125.274 145.261 125.293 145.389C125.313 145.517 125.302 145.647 125.262 145.77C124.586 147.873 123.826 151.683 124.52 153.346C125.603 151.725 126.442 149.973 127.017 148.137C127.048 147.904 127.176 147.692 127.374 147.547C127.572 147.403 127.823 147.338 128.072 147.367C128.321 147.397 128.548 147.517 128.702 147.703C128.856 147.889 128.925 148.124 128.893 148.357C129.062 150.997 130.048 158.38 132.582 160.307C132.77 160.464 132.992 160.582 133.234 160.652C133.475 160.722 133.729 160.742 133.98 160.711C134.303 160.66 134.611 160.546 134.886 160.378C135.16 160.21 135.395 159.991 135.575 159.735C137.968 156.69 137.17 148.014 136.645 144.776C135.951 143.315 127.692 124.837 116.431 114.533C102.195 101.519 75.2808 101.335 75.018 101.335C74.7691 101.335 74.5304 101.242 74.3544 101.077C74.1785 100.912 74.0796 100.688 74.0796 100.455C74.0796 100.221 74.1785 99.9974 74.3544 99.8324C74.5304 99.6674 74.7691 99.5747 75.018 99.5747C80.3024 99.6834 85.5645 100.252 90.7368 101.273C98.7792 102.822 109.993 106.165 117.745 113.249C129.663 124.151 137.987 143.359 138.344 144.169L138.4 144.362C138.475 144.855 140.371 156.435 137.011 160.72C136.689 161.165 136.273 161.542 135.788 161.83C135.304 162.118 134.762 162.309 134.196 162.392C134.023 162.427 133.847 162.451 133.67 162.462Z" fill="#093F68"/>
<path d="M76.7353 46.5771H31.5591V60.9374C31.5591 66.2169 36.8331 70.4757 43.3552 70.4757H54.1096C57.8634 70.4757 61.2042 67.7039 63.372 65.3546C64.3753 64.3167 65.6034 63.4917 66.9742 62.9348C68.345 62.3779 69.8268 62.1019 71.3205 62.1253C72.8142 62.1019 74.296 62.3779 75.6668 62.9348C77.0376 63.4917 78.2657 64.3167 79.269 65.3546C81.4368 67.7039 84.7777 70.4757 88.5314 70.4757H99.2858C105.855 70.4757 111.091 66.2081 111.091 60.9374V46.5771H76.7353Z" fill="white"/>
<path d="M99.2858 71.3556H88.5313C84.421 71.3556 80.8362 68.4079 78.5652 65.9266C77.6322 65.0042 76.5088 64.2697 75.2632 63.7678C74.0177 63.2658 72.6762 63.007 71.3205 63.007C69.9648 63.007 68.6233 63.2658 67.3777 63.7678C66.1322 64.2697 65.0087 65.0042 64.0758 65.9266C61.8048 68.4079 58.2293 71.3556 54.1096 71.3556H43.3552C36.3263 71.3556 30.6206 66.6833 30.6206 60.9374V46.5772C30.6206 46.3438 30.7195 46.12 30.8955 45.955C31.0715 45.79 31.3102 45.6973 31.559 45.6973H111.091C111.34 45.6973 111.579 45.79 111.755 45.955C111.931 46.12 112.03 46.3438 112.03 46.5772V60.9374C112.03 66.6833 106.315 71.3556 99.2858 71.3556ZM71.3205 61.2454C72.9478 61.2227 74.5618 61.5247 76.0551 62.1315C77.5485 62.7384 78.8871 63.6361 79.9822 64.7651C82.0092 66.9561 85.1248 69.5782 88.5313 69.5782H99.2858C105.273 69.5782 110.153 65.6978 110.153 60.9198V47.4571H32.4975V60.9374C32.4975 65.7154 37.3679 69.5958 43.3552 69.5958H54.1096C57.5161 69.5958 60.6786 66.9561 62.6587 64.7827C63.7525 63.6509 65.0904 62.7502 66.5838 62.1404C68.0771 61.5305 69.6917 61.2254 71.3205 61.2454Z" fill="#093F68"/>
<path d="M98.8542 98.6947C92.9515 98.6947 86.42 95.2191 83.6422 86.9127C83.5227 86.555 83.4795 86.1788 83.515 85.8055C83.5505 85.4322 83.6641 85.0691 83.8493 84.737C84.0344 84.4048 84.2876 84.1102 84.5942 83.8697C84.9008 83.6293 85.255 83.4479 85.6364 83.3358C86.0178 83.2237 86.419 83.1832 86.8172 83.2165C87.2153 83.2498 87.6026 83.3563 87.9568 83.5299C88.311 83.7036 88.6253 83.9409 88.8817 84.2284C89.1381 84.5159 89.3316 84.848 89.4511 85.2056C91.6189 91.6994 96.5175 93.4065 100.027 92.9049C101.776 92.6923 103.375 91.8696 104.505 90.6008C105.636 89.332 106.215 87.7104 106.127 86.0591V30.4836C106.104 30.0953 106.166 29.7067 106.308 29.3415C106.451 28.9764 106.672 28.6423 106.957 28.3598C107.242 28.0773 107.585 27.8522 107.966 27.6984C108.347 27.5447 108.758 27.4653 109.172 27.4653C109.587 27.4653 109.997 27.5447 110.378 27.6984C110.759 27.8522 111.103 28.0773 111.388 28.3598C111.673 28.6423 111.894 28.9764 112.036 29.3415C112.179 29.7067 112.241 30.0953 112.218 30.4836V86.0591C112.294 89.0716 111.19 92.0059 109.115 94.3068C107.04 96.6076 104.137 98.1155 100.956 98.5452C100.261 98.6445 99.558 98.6945 98.8542 98.6947Z" fill="#68E1FD"/>
<path d="M98.8543 99.5743C93.0735 99.5743 85.8007 96.3186 82.7508 87.1763C82.5869 86.707 82.524 86.212 82.5657 85.7197C82.6075 85.2275 82.753 84.748 82.9939 84.3089C83.2347 83.8698 83.5662 83.4799 83.969 83.1618C84.3717 82.8437 84.8379 82.6038 85.3403 82.4559C85.8427 82.308 86.3714 82.255 86.8959 82.3002C87.4203 82.3453 87.9299 82.4876 88.3952 82.7188C88.8605 82.95 89.2723 83.2655 89.6066 83.647C89.9409 84.0285 90.1911 84.4685 90.3427 84.9413C92.3322 90.8984 96.7334 92.4822 99.8865 92.0334C101.417 91.861 102.819 91.1459 103.805 90.0349C104.791 88.9239 105.286 87.5012 105.189 86.0588V30.4833C105.189 29.4938 105.608 28.5449 106.354 27.8452C107.1 27.1455 108.112 26.7524 109.168 26.7524C110.223 26.7524 111.235 27.1455 111.981 27.8452C112.727 28.5449 113.147 29.4938 113.147 30.4833V86.0588C113.223 89.282 112.039 92.42 109.818 94.8807C107.596 97.3414 104.491 98.9546 101.088 99.4159C100.349 99.5218 99.602 99.5748 98.8543 99.5743ZM86.542 84.0878C86.332 84.0869 86.123 84.1165 85.9227 84.1758C85.6571 84.2511 85.41 84.375 85.1958 84.5404C84.9815 84.7057 84.8043 84.9091 84.6743 85.139C84.5443 85.3688 84.4641 85.6206 84.4384 85.8796C84.4127 86.1387 84.4419 86.4 84.5244 86.6484C87.274 94.8844 93.721 97.8145 98.8355 97.8145C100.477 97.8181 102.103 97.5157 103.62 96.9247C105.136 96.3338 106.511 95.4662 107.666 94.3724C108.822 93.2785 109.734 91.9802 110.349 90.553C110.964 89.1258 111.271 87.5981 111.251 86.0588V30.4833C111.251 30.2244 111.197 29.9681 111.091 29.729C110.985 29.4899 110.83 29.2726 110.635 29.0896C110.44 28.9065 110.208 28.7614 109.953 28.6623C109.698 28.5633 109.425 28.5123 109.149 28.5123C108.873 28.5123 108.599 28.5633 108.344 28.6623C108.089 28.7614 107.858 28.9065 107.662 29.0896C107.467 29.2726 107.312 29.4899 107.207 29.729C107.101 29.9681 107.047 30.2244 107.047 30.4833V86.0588C107.139 87.9218 106.481 89.7492 105.203 91.1785C103.926 92.6079 102.122 93.5349 100.149 93.7757C96.2548 94.33 90.8776 92.4822 88.5409 85.4693C88.4061 85.0705 88.14 84.7221 87.7809 84.4739C87.4218 84.2257 86.9881 84.0906 86.542 84.0878Z" fill="#093F68"/>
<path d="M87.8086 140.245H102.899V166.061H87.8086V140.245Z" fill="#FFBC0E"/>
<path d="M102.889 166.941H87.8088C87.5599 166.941 87.3212 166.848 87.1452 166.683C86.9692 166.518 86.8704 166.294 86.8704 166.061V140.244C86.8704 140.011 86.9692 139.787 87.1452 139.622C87.3212 139.457 87.5599 139.364 87.8088 139.364H102.889C103.138 139.364 103.377 139.457 103.553 139.622C103.729 139.787 103.828 140.011 103.828 140.244V166.061C103.828 166.294 103.729 166.518 103.553 166.683C103.377 166.848 103.138 166.941 102.889 166.941ZM88.7472 165.181H101.951V141.124H88.7472V165.181Z" fill="#093F68"/>
<path d="M55.5081 64.1666C57.1666 64.1666 58.5111 62.906 58.5111 61.3509C58.5111 59.7958 57.1666 58.5352 55.5081 58.5352C53.8496 58.5352 52.5051 59.7958 52.5051 61.3509C52.5051 62.906 53.8496 64.1666 55.5081 64.1666Z" fill="#093F68"/>
<path d="M83.5013 64.1666C85.1598 64.1666 86.5043 62.906 86.5043 61.3509C86.5043 59.7958 85.1598 58.5352 83.5013 58.5352C81.8428 58.5352 80.4983 59.7958 80.4983 61.3509C80.4983 62.906 81.8428 64.1666 83.5013 64.1666Z" fill="#093F68"/>
<path d="M61.0635 54.3292H45.4386C44.9409 54.3292 44.4635 54.1438 44.1115 53.8138C43.7595 53.4838 43.5618 53.0361 43.5618 52.5694C43.5618 52.1027 43.7595 51.655 44.1115 51.325C44.4635 50.995 44.9409 50.8096 45.4386 50.8096H61.0635C61.5613 50.8096 62.0387 50.995 62.3907 51.325C62.7427 51.655 62.9404 52.1027 62.9404 52.5694C62.9404 53.0361 62.7427 53.4838 62.3907 53.8138C62.0387 54.1438 61.5613 54.3292 61.0635 54.3292Z" fill="#093F68"/>
<path d="M93.571 54.3292H77.9555C77.4577 54.3292 76.9803 54.1438 76.6283 53.8138C76.2764 53.4838 76.0786 53.0361 76.0786 52.5694C76.0786 52.1027 76.2764 51.655 76.6283 51.325C76.9803 50.995 77.4577 50.8096 77.9555 50.8096H93.6085C94.1063 50.8096 94.5837 50.995 94.9357 51.325C95.2877 51.655 95.4854 52.1027 95.4854 52.5694C95.4854 53.0361 95.2877 53.4838 94.9357 53.8138C94.5837 54.1438 94.1063 54.3292 93.6085 54.3292H93.571Z" fill="#093F68"/>
</svg>
