<svg width="160" height="143" viewBox="0 0 160 143" fill="none" xmlns="http://www.w3.org/2000/svg">
<path d="M13.8614 4.99316C9.27074 4.99316 5.57471 8.28881 5.57471 12.3822V34.5477C5.57471 38.6411 9.27074 41.9367 13.8614 41.9367H21.8153V52.9426H14.0114C9.42074 52.9426 5.72471 56.2382 5.72471 60.3315V82.4971C5.72471 86.5905 9.42074 89.8861 14.0114 89.8861H21.8153V100.736H14.0114C9.42074 100.736 5.72471 104.032 5.72471 108.125V130.29C5.72471 134.384 9.42074 137.679 14.0114 137.679H73.5533C66.2562 132.462 60.4996 125.722 56.6636 117.744C54.0541 112.318 52.5892 106.594 52.2167 100.736H31.2879V89.8861H52.7816C53.4943 85.7317 54.7832 81.6756 56.6636 77.7657C61.853 66.9735 70.5591 58.482 81.8252 52.9426H31.2879V41.9367H128.695V49.4219C129.807 49.7743 130.909 50.1568 132 50.572C140.91 53.9624 148.437 59.0097 154.276 65.4259V60.3315C154.276 56.2382 150.58 52.9426 145.989 52.9426H138.167V41.9367H145.839C150.43 41.9367 154.126 38.6411 154.126 34.5477V12.3822C154.126 8.28881 150.43 4.99316 145.839 4.99316H13.8614ZM154.276 130.1C151.741 132.892 148.887 135.427 145.738 137.679H145.989C150.58 137.679 154.276 134.384 154.276 130.29V130.1Z" fill="url(#paint0_linear_434_744)"/>
<path d="M40.9608 26.3933H17.7996C15.48 26.3933 13.5996 28.07 13.5996 30.1383C13.5996 32.2066 15.48 33.8833 17.7996 33.8833H40.9608C43.2804 33.8833 45.1608 32.2066 45.1608 30.1383C45.1608 28.07 43.2804 26.3933 40.9608 26.3933Z" fill="white"/>
<path d="M41.097 122.136H17.9358C15.6162 122.136 13.7358 123.813 13.7358 125.881C13.7358 127.949 15.6162 129.626 17.9358 129.626H41.097C43.4166 129.626 45.297 127.949 45.297 125.881C45.297 123.813 43.4166 122.136 41.097 122.136Z" fill="white"/>
<path d="M41.097 74.3425H17.9358C15.6162 74.3425 13.7358 76.0192 13.7358 78.0875C13.7358 80.1558 15.6162 81.8325 17.9358 81.8325H41.097C43.4166 81.8325 45.297 80.1558 45.297 78.0875C45.297 76.0192 43.4166 74.3425 41.097 74.3425Z" fill="white"/>
<path d="M155.981 80.2955C150.673 69.2545 141.653 61.2247 129.174 56.4765C122.937 54.1033 116.458 52.8911 109.631 52.8911C102.806 52.8911 96.3198 54.0919 90.0896 56.4765C77.7142 61.2121 68.5987 69.2367 63.2811 80.2955C60.6165 85.8359 59.3176 91.6403 59.3176 97.7296C59.3176 103.82 60.6165 109.673 63.2811 115.214C68.5987 126.273 77.7141 134.346 90.0896 139.082C96.3198 141.467 102.806 142.667 109.631 142.667C116.458 142.667 122.937 141.454 129.174 139.082C141.653 134.334 150.673 126.254 155.981 115.214C158.654 109.655 160 103.82 160 97.7296C160 91.6403 158.654 85.8546 155.981 80.2955ZM92.8964 61.2404C88.5476 66.1511 85.3557 72.3883 83.3182 79.9517H70.1619C75.006 71.5533 83.1539 64.8248 92.8964 61.2404ZM65.4278 97.7296C65.4278 93.457 66.1982 89.3321 67.685 85.3539H82.1074C81.3921 89.5279 81.0611 93.654 81.0611 97.7296C81.0611 101.757 81.3923 105.834 82.1074 110.008H67.5746C66.1431 106.03 65.4278 101.905 65.4278 97.7296ZM70.1619 115.41H83.3184C85.3559 123.12 88.548 129.456 92.8965 134.318C82.9882 130.635 74.8405 123.906 70.1619 115.41ZM106.549 136.773C102.97 135.841 99.6127 133.483 96.5853 129.653C93.5577 125.821 91.2455 121.058 89.6494 115.41H106.549V136.773ZM106.549 110.008H88.2729C87.5566 105.637 87.1713 101.56 87.1713 97.7296C87.1713 93.6047 87.5564 89.4788 88.3833 85.3539H106.548L106.549 110.008ZM106.549 79.9519H89.6494C91.3557 74.3528 93.681 69.6464 96.6957 65.8567C99.736 62.0336 102.97 59.6688 106.549 58.7845L106.549 79.9519ZM149.156 79.9519H135.999C133.963 72.3882 130.77 66.1511 126.421 61.2406C136.165 64.8248 144.312 71.5533 149.156 79.9519ZM112.769 58.7845C116.347 59.6688 119.582 62.0336 122.622 65.8567C125.638 69.6464 127.962 74.3528 129.668 79.9519H112.769V58.7845ZM112.769 85.3539H130.934C131.761 89.4788 132.146 93.6047 132.146 97.7296C132.146 101.56 131.761 105.637 131.045 110.008H112.769V85.3539ZM112.769 136.773V115.41H129.668C128.017 121.058 125.674 125.802 122.677 129.653C119.673 133.513 116.403 135.89 112.769 136.773ZM126.421 134.318C130.77 129.456 133.963 123.12 135.999 115.41H149.156C144.477 123.906 136.329 130.635 126.421 134.318ZM151.743 110.008H137.21C137.927 105.834 138.257 101.757 138.257 97.7296C138.257 93.654 137.927 89.5281 137.21 85.3539H151.633C153.119 89.332 153.89 93.4569 153.89 97.7296C153.89 101.905 153.175 106.03 151.743 110.008Z" fill="#99B000"/>
<defs>
<linearGradient id="paint0_linear_434_744" x1="14.5439" y1="142.667" x2="128.505" y2="-6.45672" gradientUnits="userSpaceOnUse">
<stop stop-color="#4E505D"/>
<stop offset="1" stop-color="#7A859C"/>
</linearGradient>
</defs>
</svg>
