<svg id="svg" version="1.1" xmlns="http://www.w3.org/2000/svg" xmlns:xlink="http://www.w3.org/1999/xlink" width="400" height="490.90909090909093" viewBox="0, 0, 400,490.90909090909093"><g id="svgg"><path id="path0" d="M63.223 35.331 C 56.370 35.848,49.662 39.022,44.706 44.092 C 40.157 48.746,37.779 53.494,36.612 60.256 C 36.004 63.780,36.002 426.433,36.610 429.974 C 38.626 441.710,46.771 450.944,57.698 453.882 C 61.954 455.026,54.004 454.936,151.407 454.936 C 235.967 454.936,240.397 454.918,242.148 454.570 C 244.269 454.149,246.083 453.667,246.596 453.390 C 246.791 453.284,247.049 453.197,247.170 453.197 C 247.769 453.197,252.822 450.673,253.299 450.135 C 253.355 450.072,253.951 449.653,254.623 449.204 C 259.583 445.891,264.194 439.006,265.768 432.563 C 266.571 429.275,266.620 427.289,266.557 400.512 L 266.496 374.731 266.027 373.708 C 263.847 368.962,256.734 369.484,255.066 374.512 C 254.780 375.375,254.731 376.652,254.731 383.361 L 254.731 391.202 151.407 391.202 L 48.082 391.202 48.082 246.547 L 48.082 101.893 151.407 101.893 L 254.731 101.893 254.731 182.192 C 254.731 261.947,254.734 262.498,255.140 263.583 C 256.935 268.380,263.844 268.752,266.042 264.170 L 266.496 263.223 266.557 163.478 C 266.621 59.800,266.632 61.201,265.763 57.651 C 264.154 51.070,259.535 44.186,254.537 40.921 C 254.279 40.752,253.964 40.521,253.837 40.407 C 252.074 38.823,246.420 36.489,242.353 35.666 C 240.676 35.327,67.561 35.003,63.223 35.331 M240.000 47.377 C 247.074 48.843,251.535 52.735,253.940 59.540 L 254.627 61.483 254.688 75.857 L 254.750 90.230 151.416 90.230 L 48.082 90.230 48.088 77.084 C 48.096 60.061,48.278 58.841,51.458 54.449 C 52.643 52.812,56.892 49.105,57.583 49.105 C 57.640 49.105,58.172 48.888,58.766 48.623 C 60.433 47.880,60.551 47.842,62.404 47.462 C 64.941 46.941,237.499 46.859,240.000 47.377 M56.738 61.997 C 55.097 62.658,55.572 65.064,57.344 65.064 C 58.945 65.064,59.509 62.822,58.093 62.090 C 57.438 61.751,57.361 61.746,56.738 61.997 M102.404 62.028 C 101.243 62.666,101.034 63.513,101.808 64.434 C 103.002 65.853,105.411 64.417,104.546 62.802 C 104.140 62.043,103.076 61.658,102.404 62.028 M164.910 62.129 C 163.913 62.818,163.791 63.758,164.594 64.562 C 166.000 65.968,168.244 64.027,166.924 62.547 C 166.289 61.835,165.556 61.683,164.910 62.129 M200.984 61.997 C 199.342 62.658,199.817 65.064,201.589 65.064 C 203.190 65.064,203.755 62.822,202.338 62.090 C 201.684 61.751,201.607 61.746,200.984 61.997 M237.765 62.320 C 236.971 62.988,236.922 63.846,237.638 64.562 C 238.641 65.565,240.409 64.858,240.409 63.455 C 240.409 62.782,239.434 61.790,238.772 61.790 C 238.565 61.790,238.111 62.029,237.765 62.320 M128.948 62.461 C 125.271 63.861,125.582 68.487,129.432 69.650 C 132.725 70.645,133.594 71.226,133.334 72.260 C 132.889 74.035,129.214 73.771,128.286 71.898 C 127.959 71.236,127.688 71.232,125.985 71.862 C 124.684 72.343,126.373 74.623,128.579 75.364 C 131.214 76.250,134.781 75.355,135.727 73.569 C 137.208 70.775,135.589 68.558,131.151 67.301 C 129.028 66.699,128.358 65.811,129.309 64.859 C 130.068 64.101,132.192 64.425,132.681 65.375 C 133.133 66.251,133.177 66.276,133.866 66.058 C 134.421 65.882,135.362 65.498,135.619 65.343 C 135.852 65.202,134.435 63.304,133.766 62.862 C 132.819 62.235,130.130 62.011,128.948 62.461 M60.972 68.934 L 60.972 75.499 62.404 75.499 L 63.836 75.499 63.836 72.941 L 63.836 70.384 65.028 70.384 C 66.659 70.384,66.879 70.639,68.069 73.911 L 68.645 75.494 70.213 75.497 L 71.782 75.499 70.792 73.206 C 70.209 71.855,69.531 70.635,69.141 70.236 C 68.777 69.864,68.517 69.535,68.562 69.505 C 68.607 69.474,68.901 69.320,69.214 69.162 C 70.902 68.311,71.233 65.464,69.824 63.904 C 68.700 62.659,68.168 62.516,64.399 62.439 L 60.972 62.370 60.972 68.934 M205.217 68.934 L 205.217 75.499 206.650 75.499 L 208.082 75.499 208.082 72.941 L 208.082 70.384 209.274 70.384 C 210.805 70.384,211.058 70.654,212.097 73.398 L 212.890 75.491 214.459 75.495 L 216.028 75.499 215.038 73.206 C 214.455 71.855,213.777 70.635,213.387 70.236 C 213.023 69.864,212.762 69.535,212.807 69.505 C 212.853 69.474,213.146 69.320,213.460 69.162 C 215.148 68.311,215.478 65.464,214.069 63.904 C 212.945 62.659,212.414 62.516,208.645 62.439 L 205.217 62.370 205.217 68.934 M220.829 63.683 L 220.005 64.962 220.819 65.026 C 221.915 65.112,221.965 65.083,223.204 63.653 L 224.286 62.404 222.969 62.404 L 221.652 62.404 220.829 63.683 M106.803 65.064 L 106.803 66.292 106.189 66.292 C 105.589 66.292,105.575 66.314,105.575 67.315 C 105.575 68.307,105.593 68.338,106.170 68.338 L 106.764 68.338 106.835 71.186 C 106.929 74.976,107.386 75.495,110.639 75.498 L 111.918 75.499 111.918 74.476 L 111.918 73.453 111.012 73.453 C 109.603 73.453,109.463 73.193,109.463 70.574 L 109.463 68.338 110.691 68.338 L 111.918 68.338 111.918 67.325 L 111.918 66.312 110.742 66.251 L 109.565 66.189 109.504 65.013 L 109.442 63.836 108.123 63.836 L 106.803 63.836 106.803 65.064 M242.455 65.064 L 242.455 66.292 241.841 66.292 C 241.241 66.292,241.228 66.314,241.228 67.315 C 241.228 68.307,241.245 68.338,241.822 68.338 L 242.416 68.338 242.487 71.186 C 242.581 74.976,243.038 75.495,246.292 75.498 L 247.570 75.499 247.570 74.476 L 247.570 73.453 246.664 73.453 C 245.255 73.453,245.115 73.193,245.115 70.574 L 245.115 68.338 246.343 68.338 L 247.570 68.338 247.570 67.315 L 247.570 66.292 246.343 66.292 L 245.115 66.292 245.115 65.064 L 245.115 63.836 243.785 63.836 L 242.455 63.836 242.455 65.064 M67.182 65.156 C 68.617 66.486,67.562 68.133,65.278 68.133 L 63.836 68.133 63.836 66.394 L 63.836 64.655 65.239 64.655 C 66.444 64.655,66.717 64.725,67.182 65.156 M211.428 65.156 C 212.862 66.486,211.808 68.133,209.523 68.133 L 208.082 68.133 208.082 66.394 L 208.082 64.655 209.484 64.655 C 210.689 64.655,210.963 64.725,211.428 65.156 M75.439 66.185 C 71.574 67.657,70.958 73.497,74.485 75.231 C 77.128 76.531,82.710 74.542,80.460 73.102 C 80.151 72.904,79.776 72.626,79.627 72.483 C 79.259 72.132,79.118 72.157,78.824 72.628 C 78.122 73.752,76.294 73.905,75.508 72.906 C 74.563 71.705,74.758 71.611,78.188 71.611 L 81.287 71.611 81.159 70.240 C 80.870 67.144,78.091 65.175,75.439 66.185 M84.380 66.284 C 81.382 67.618,81.963 70.614,85.448 71.795 C 86.313 72.088,87.116 72.481,87.232 72.668 C 87.918 73.771,85.323 74.105,84.419 73.030 C 83.912 72.427,83.860 72.412,83.122 72.649 C 82.699 72.785,82.238 72.927,82.097 72.964 C 80.586 73.359,83.694 75.697,85.729 75.695 C 90.707 75.691,91.191 70.499,86.292 69.661 C 85.216 69.476,84.533 68.889,84.829 68.402 C 85.264 67.686,86.797 67.921,87.058 68.743 C 87.212 69.228,89.200 68.622,89.204 68.089 C 89.216 66.610,86.190 65.478,84.380 66.284 M95.791 66.142 C 95.417 66.261,94.832 66.620,94.491 66.939 C 93.721 67.658,93.708 67.657,93.708 66.905 L 93.708 66.292 92.379 66.292 L 91.049 66.292 91.049 72.839 L 91.049 79.386 92.379 79.386 L 93.708 79.386 93.708 76.829 C 93.708 74.519,93.872 73.746,94.188 74.569 C 94.375 75.056,95.878 75.703,96.820 75.703 C 101.042 75.699,101.850 67.618,97.773 66.180 C 96.819 65.843,96.729 65.841,95.791 66.142 M115.851 66.183 C 110.595 67.824,111.697 75.717,117.180 75.699 C 119.203 75.692,122.284 74.030,121.330 73.459 C 121.161 73.358,120.705 73.039,120.317 72.750 L 119.612 72.224 118.925 72.889 C 117.960 73.825,116.615 73.848,115.890 72.941 C 114.886 71.687,115.034 71.611,118.495 71.611 L 121.594 71.611 121.466 70.240 C 121.172 67.099,118.682 65.299,115.851 66.183 M140.556 66.160 C 138.227 66.914,137.195 68.429,137.194 71.100 C 137.191 74.673,139.999 76.563,143.674 75.462 C 144.444 75.231,146.302 73.801,146.087 73.605 C 146.031 73.553,145.580 73.222,145.086 72.869 L 144.188 72.228 143.713 72.740 C 142.653 73.883,141.175 73.898,140.409 72.774 C 139.626 71.624,139.654 71.611,143.045 71.611 L 146.141 71.611 146.040 70.035 C 145.981 69.124,145.840 68.426,145.706 68.381 C 145.578 68.338,145.473 68.191,145.473 68.054 C 145.473 66.770,142.365 65.573,140.556 66.160 M151.650 66.343 C 151.284 66.596,150.804 67.079,150.583 67.417 L 150.182 68.031 150.180 67.161 L 150.179 66.292 148.849 66.292 L 147.519 66.292 147.519 70.895 L 147.519 75.499 148.849 75.499 L 150.179 75.499 150.180 72.788 C 150.181 69.248,150.443 68.687,152.060 68.773 L 153.110 68.829 153.459 67.553 C 153.931 65.827,153.151 65.305,151.650 66.343 M171.560 66.258 C 168.606 67.230,167.296 71.255,169.072 73.900 C 170.677 76.291,175.018 76.259,176.768 73.842 L 177.400 72.970 176.117 72.421 C 174.970 71.931,174.815 71.908,174.652 72.202 C 173.121 74.985,170.316 72.880,171.318 69.700 C 171.937 67.737,174.476 67.741,174.632 69.705 C 174.634 69.725,175.204 69.557,175.900 69.332 C 177.140 68.930,177.161 68.911,176.959 68.374 C 176.236 66.457,173.827 65.512,171.560 66.258 M181.392 66.164 C 178.823 66.993,177.334 70.275,178.343 72.886 C 179.472 75.809,183.188 76.644,186.138 74.638 C 187.312 73.840,187.291 73.717,185.815 72.671 L 185.145 72.197 184.743 72.708 C 183.870 73.818,182.273 73.862,181.380 72.801 C 180.426 71.666,180.544 71.611,183.945 71.611 C 187.502 71.611,187.430 71.656,187.029 69.714 C 186.440 66.861,183.999 65.324,181.392 66.164 M190.553 66.133 C 187.627 67.074,187.970 71.132,191.024 71.705 C 192.592 71.999,193.181 72.361,193.109 72.988 C 192.988 74.042,190.077 73.774,190.077 72.708 C 190.077 72.464,189.960 72.418,189.616 72.524 C 189.363 72.602,188.880 72.731,188.543 72.811 C 186.498 73.299,189.214 75.712,191.790 75.695 C 196.031 75.666,197.277 71.437,193.441 70.089 C 192.941 69.914,192.118 69.624,191.611 69.446 C 190.331 68.996,190.405 67.928,191.716 67.928 C 192.220 67.928,193.146 68.573,193.146 68.924 C 193.146 69.013,193.605 68.940,194.166 68.762 C 195.397 68.373,195.470 68.016,194.512 67.058 C 193.473 66.019,191.987 65.672,190.553 66.133 M219.634 66.197 C 215.843 67.593,215.250 73.520,218.730 75.231 C 221.374 76.531,226.956 74.542,224.706 73.102 C 224.396 72.904,224.022 72.626,223.873 72.483 C 223.505 72.132,223.363 72.157,223.069 72.628 C 222.367 73.752,220.539 73.905,219.753 72.906 C 218.809 71.705,219.003 71.611,222.434 71.611 L 225.532 71.611 225.406 70.263 C 225.114 67.134,222.360 65.194,219.634 66.197 M231.304 66.283 C 230.854 66.487,230.279 66.853,230.026 67.095 L 229.565 67.535 229.565 66.913 L 229.565 66.292 228.235 66.292 L 226.905 66.292 226.905 72.839 L 226.905 79.386 228.235 79.386 L 229.565 79.386 229.565 76.790 L 229.565 74.195 230.128 74.706 C 231.703 76.136,233.981 75.997,235.180 74.396 C 237.953 70.694,235.036 64.588,231.304 66.283 M56.061 70.895 L 56.061 75.499 57.391 75.499 L 58.721 75.499 58.721 70.895 L 58.721 66.292 57.391 66.292 L 56.061 66.292 56.061 70.895 M101.688 70.895 L 101.688 75.499 103.120 75.499 L 104.552 75.499 104.552 70.895 L 104.552 66.292 103.120 66.292 L 101.688 66.292 101.688 70.895 M154.066 66.587 C 154.066 66.829,154.489 68.120,155.242 70.179 C 155.304 70.348,155.739 71.591,156.208 72.941 L 157.062 75.396 158.694 75.455 L 160.326 75.514 160.872 73.921 C 161.173 73.044,161.705 71.545,162.055 70.588 C 162.598 69.105,163.467 66.507,163.476 66.343 C 163.477 66.315,162.893 66.292,162.177 66.292 L 160.875 66.292 160.417 67.775 C 159.390 71.101,158.826 72.681,158.726 72.509 C 158.669 72.409,158.417 71.637,158.167 70.793 C 157.715 69.265,157.279 67.926,156.884 66.854 C 156.641 66.195,154.066 65.951,154.066 66.587 M164.297 70.895 L 164.297 75.499 165.729 75.499 L 167.161 75.499 167.161 70.895 L 167.161 66.292 165.729 66.292 L 164.297 66.292 164.297 70.895 M200.307 70.895 L 200.307 75.499 201.637 75.499 L 202.967 75.499 202.967 70.895 L 202.967 66.292 201.637 66.292 L 200.307 66.292 200.307 70.895 M237.545 70.895 L 237.545 75.499 238.875 75.499 L 240.205 75.499 240.205 70.895 L 240.205 66.292 238.875 66.292 L 237.545 66.292 237.545 70.895 M77.822 68.430 C 78.887 69.417,78.593 69.770,76.704 69.770 L 75.045 69.770 75.186 69.208 C 75.264 68.898,75.343 68.638,75.362 68.628 C 75.381 68.619,75.624 68.457,75.902 68.270 C 76.606 67.795,77.189 67.843,77.822 68.430 M118.131 68.389 C 119.315 69.466,119.099 69.770,117.149 69.770 C 115.147 69.770,114.956 69.565,115.994 68.526 C 116.715 67.806,117.438 67.759,118.131 68.389 M142.775 68.346 C 143.021 68.575,143.223 68.844,143.223 68.943 C 143.223 69.042,143.278 69.268,143.347 69.446 C 143.454 69.726,143.232 69.770,141.710 69.770 C 140.741 69.770,139.949 69.719,139.949 69.657 C 139.949 68.348,141.837 67.472,142.775 68.346 M183.808 68.468 C 184.836 69.496,184.584 69.770,182.613 69.770 L 180.878 69.770 181.113 69.207 C 181.672 67.868,182.878 67.537,183.808 68.468 M222.067 68.430 C 223.132 69.417,222.838 69.770,220.950 69.770 L 219.291 69.770 219.432 69.208 C 219.509 68.898,219.588 68.638,219.607 68.628 C 219.626 68.619,219.870 68.457,220.148 68.270 C 220.852 67.795,221.434 67.843,222.067 68.430 M96.825 68.730 C 98.115 69.882,97.653 72.987,96.111 73.537 C 94.808 74.001,93.708 72.791,93.708 70.895 C 93.708 68.501,95.318 67.383,96.825 68.730 M232.476 68.534 C 233.558 69.386,233.684 71.996,232.696 73.088 C 231.813 74.064,230.234 73.653,229.669 72.298 C 228.628 69.808,230.649 67.098,232.476 68.534 M320.202 108.919 C 320.147 108.975,319.319 109.123,318.363 109.248 C 315.734 109.592,313.592 110.118,309.872 111.332 C 307.909 111.972,300.972 115.317,300.972 115.623 C 300.972 115.724,300.876 115.806,300.759 115.806 C 300.563 115.806,299.570 116.444,299.008 116.931 C 298.878 117.043,298.565 117.274,298.313 117.442 C 297.496 117.990,295.774 119.362,294.936 120.134 C 294.486 120.548,293.879 121.074,293.587 121.303 C 292.733 121.971,289.512 125.724,288.236 127.537 C 287.589 128.456,286.968 129.318,286.855 129.454 C 286.742 129.590,286.650 129.747,286.650 129.802 C 286.650 129.857,286.381 130.301,286.052 130.788 C 285.538 131.550,283.939 134.756,282.912 137.084 C 282.123 138.873,281.253 141.876,280.334 145.985 C 279.499 149.719,279.487 158.374,280.312 162.046 C 281.457 167.142,281.789 168.381,282.369 169.719 C 282.466 169.944,282.730 170.607,282.954 171.192 C 285.456 177.718,292.935 187.527,297.263 189.957 C 297.446 190.060,297.642 190.207,297.698 190.284 C 298.278 191.074,304.716 194.805,307.417 195.916 C 310.315 197.108,315.040 198.427,317.852 198.830 L 318.875 198.977 318.875 289.412 C 318.875 377.966,318.867 379.872,318.483 381.074 C 317.809 383.184,316.597 385.183,315.226 386.444 C 308.766 392.389,299.061 390.294,295.570 382.199 C 294.597 379.943,294.629 381.444,294.628 338.044 C 294.627 311.263,294.554 296.937,294.416 296.061 C 294.214 294.778,293.769 293.125,293.398 292.276 C 293.300 292.051,293.018 291.407,292.773 290.844 C 291.461 287.837,288.264 284.232,285.320 282.439 C 279.281 278.762,271.835 278.438,265.481 281.577 C 261.024 283.778,256.970 288.590,255.605 293.299 C 255.376 294.087,255.068 295.100,254.919 295.550 C 254.704 296.201,254.634 300.729,254.578 317.749 C 254.503 340.597,254.543 339.720,253.496 341.610 C 252.894 342.698,251.961 343.658,250.725 344.460 C 248.527 345.886,252.042 345.789,205.007 345.730 L 162.558 345.678 161.425 345.219 C 160.130 344.695,159.608 344.343,158.581 343.301 C 156.018 340.701,156.116 341.782,156.114 316.002 L 156.113 294.511 188.491 294.519 L 220.870 294.527 221.688 294.084 C 222.716 293.529,223.241 293.034,223.860 292.038 L 224.348 291.253 224.401 249.872 L 224.454 208.491 229.894 208.491 C 236.418 208.491,237.343 208.314,240.094 206.538 C 244.426 203.741,246.191 197.344,243.957 192.532 C 243.022 190.516,242.000 189.388,238.583 186.598 C 238.100 186.205,237.316 185.560,236.839 185.166 C 236.363 184.772,235.577 184.128,235.092 183.734 C 234.608 183.340,233.549 182.465,232.739 181.790 C 231.928 181.115,230.362 179.826,229.259 178.926 C 228.155 178.026,226.622 176.755,225.851 176.103 L 224.450 174.917 224.449 156.666 C 224.448 135.363,224.561 136.241,221.636 134.801 L 220.665 134.322 206.854 134.322 L 193.043 134.322 192.161 134.786 C 189.859 135.996,189.388 137.175,189.258 142.054 L 189.156 145.899 187.495 144.509 C 186.582 143.745,184.935 142.384,183.836 141.483 C 182.737 140.583,181.177 139.294,180.370 138.619 C 179.563 137.944,178.499 137.069,178.006 136.675 C 177.513 136.281,176.725 135.637,176.255 135.243 C 175.786 134.849,175.001 134.205,174.512 133.811 C 174.023 133.417,173.245 132.772,172.784 132.379 C 172.322 131.985,171.540 131.340,171.046 130.946 C 170.552 130.552,169.166 129.402,167.967 128.389 C 166.768 127.376,164.931 125.857,163.885 125.013 C 162.839 124.169,161.599 123.156,161.130 122.762 C 160.662 122.368,159.374 121.309,158.269 120.409 C 157.163 119.509,156.157 118.680,156.032 118.568 C 152.255 115.164,150.094 115.085,146.343 118.211 C 145.432 118.970,143.840 120.281,142.804 121.125 C 139.674 123.675,133.782 128.546,133.275 129.002 C 133.150 129.115,132.193 129.898,131.149 130.742 C 130.106 131.586,128.551 132.861,127.695 133.576 C 126.839 134.291,125.953 135.027,125.727 135.213 C 125.500 135.398,124.534 136.190,123.578 136.972 C 121.484 138.687,118.450 141.201,118.135 141.483 C 118.009 141.596,117.051 142.379,116.006 143.223 C 114.961 144.066,113.395 145.355,112.527 146.087 C 111.659 146.818,110.775 147.556,110.564 147.725 C 109.091 148.906,105.551 151.803,104.952 152.317 C 104.553 152.660,103.862 153.237,103.418 153.598 C 102.973 153.959,101.910 154.834,101.055 155.541 C 100.201 156.249,98.926 157.289,98.221 157.852 C 97.516 158.414,96.227 159.473,95.355 160.205 C 94.484 160.936,92.919 162.225,91.878 163.069 C 90.836 163.913,89.775 164.788,89.520 165.013 C 89.265 165.238,88.207 166.113,87.168 166.957 C 86.129 167.801,84.563 169.090,83.688 169.821 C 82.813 170.552,80.923 172.118,79.486 173.299 C 78.050 174.481,76.215 176.000,75.408 176.675 C 74.601 177.350,73.538 178.225,73.045 178.619 C 72.551 179.013,71.765 179.657,71.298 180.051 C 70.831 180.445,70.052 181.090,69.568 181.483 C 69.084 181.877,68.023 182.752,67.211 183.427 C 66.399 184.102,64.832 185.391,63.730 186.292 C 60.680 188.782,59.541 189.877,58.832 190.997 C 55.271 196.625,57.259 204.328,63.018 207.215 C 65.435 208.427,65.855 208.486,71.969 208.489 L 77.545 208.491 77.545 249.739 C 77.545 295.512,77.421 291.572,78.909 293.061 C 80.514 294.665,77.315 294.527,112.788 294.524 L 144.450 294.520 144.454 317.337 C 144.458 342.120,144.419 341.198,145.605 344.552 C 145.904 345.396,146.365 346.430,146.629 346.850 C 146.894 347.270,147.110 347.662,147.110 347.722 C 147.110 348.040,148.774 350.165,150.049 351.475 C 153.190 354.703,156.986 356.693,161.204 357.322 C 162.634 357.536,248.763 357.472,249.923 357.257 C 256.624 356.013,262.833 351.038,265.027 345.153 C 266.365 341.566,266.253 343.643,266.391 319.795 C 266.522 297.085,266.510 297.363,267.468 295.667 C 270.822 289.728,278.965 290.042,281.990 296.227 L 282.660 297.596 282.772 339.437 C 282.895 385.362,282.796 381.907,284.103 385.780 C 285.617 390.264,289.266 395.029,293.193 397.649 C 308.082 407.581,327.720 399.080,330.683 381.419 C 330.849 380.430,330.946 354.989,331.032 289.514 L 331.151 198.977 331.969 198.845 C 336.921 198.046,340.355 196.955,344.859 194.750 C 353.311 190.613,361.031 183.234,364.844 175.645 C 365.124 175.086,365.457 174.445,365.584 174.220 C 368.195 169.564,370.332 160.512,370.332 154.112 C 370.332 151.047,369.634 145.574,368.916 143.018 C 368.295 140.807,367.597 138.542,367.371 138.005 C 367.230 137.668,366.986 137.076,366.830 136.691 C 366.277 135.323,363.846 130.583,363.570 130.332 C 363.508 130.276,363.237 129.862,362.967 129.412 C 362.267 128.240,360.764 126.208,359.497 124.719 C 358.396 123.426,354.997 120.084,353.862 119.179 C 353.299 118.730,352.791 118.301,352.733 118.224 C 352.511 117.931,347.395 114.599,346.957 114.462 C 346.704 114.383,346.450 114.259,346.394 114.187 C 346.283 114.045,343.733 112.799,342.404 112.237 C 341.954 112.046,341.402 111.810,341.176 111.712 C 340.444 111.394,336.088 110.084,335.038 109.867 C 331.613 109.159,330.038 109.004,325.318 108.914 C 322.560 108.862,320.258 108.864,320.202 108.919 M331.049 121.208 C 335.192 122.085,340.076 124.026,342.813 125.883 C 343.376 126.264,344.266 126.871,344.791 127.230 C 352.886 132.769,358.287 143.545,358.293 154.169 C 358.298 161.807,356.359 167.470,351.264 174.700 C 350.454 175.849,346.693 179.610,345.544 180.420 C 339.671 184.559,336.858 185.769,329.719 187.230 C 320.619 189.092,308.420 184.917,301.159 177.457 C 281.732 157.496,293.441 124.470,321.228 120.849 C 322.812 120.643,329.540 120.889,331.049 121.208 M152.394 128.614 C 153.145 129.244,153.945 129.912,154.171 130.097 C 155.046 130.814,157.897 133.171,159.900 134.834 C 161.052 135.790,162.894 137.309,163.993 138.210 C 165.091 139.110,166.691 140.428,167.547 141.138 C 168.404 141.849,169.244 142.539,169.414 142.673 C 169.585 142.806,170.413 143.485,171.256 144.182 C 172.098 144.878,173.478 146.015,174.322 146.709 C 176.291 148.327,177.136 149.026,179.055 150.621 C 179.914 151.334,181.516 152.655,182.616 153.555 C 183.716 154.455,185.280 155.744,186.091 156.419 C 189.130 158.947,190.582 160.120,191.427 160.731 C 193.531 162.251,196.016 162.059,197.839 160.237 C 199.431 158.645,199.488 158.315,199.488 150.756 L 199.488 144.246 206.957 144.246 L 214.425 144.246 214.425 160.790 C 214.425 180.769,214.294 179.747,217.132 181.981 C 217.837 182.536,218.506 183.089,218.619 183.209 C 218.731 183.329,219.514 183.980,220.358 184.655 C 221.202 185.330,221.992 185.974,222.114 186.087 C 222.235 186.199,223.239 187.028,224.343 187.928 C 225.448 188.829,227.061 190.164,227.927 190.895 C 228.793 191.627,230.362 192.916,231.412 193.760 C 234.569 196.296,234.885 196.612,234.885 197.237 C 234.885 198.353,234.876 198.355,226.203 198.465 L 218.197 198.568 217.182 199.090 C 215.912 199.745,214.939 200.997,214.648 202.354 C 214.491 203.088,214.425 215.421,214.425 244.000 L 214.425 284.604 194.015 284.603 C 182.790 284.603,169.670 284.542,164.859 284.468 L 156.113 284.332 156.113 281.049 L 156.113 277.766 157.796 276.223 C 163.745 270.771,179.679 254.876,182.843 251.236 C 183.389 250.608,184.665 249.175,185.678 248.051 C 186.691 246.928,188.210 245.160,189.054 244.123 C 189.898 243.085,190.798 241.986,191.053 241.681 C 191.651 240.968,194.200 237.386,194.500 236.838 C 195.941 234.210,196.461 233.089,196.927 231.611 C 201.245 217.905,194.740 204.215,181.176 198.464 C 175.826 196.195,167.294 196.195,161.944 198.464 C 160.290 199.165,157.719 200.481,157.042 200.973 C 154.880 202.544,152.866 204.225,152.054 205.137 L 151.033 206.282 149.120 204.368 C 146.190 201.438,142.040 198.874,138.693 197.925 C 134.721 196.799,134.443 196.759,130.435 196.742 C 111.936 196.666,99.310 214.211,105.121 231.918 C 106.135 235.008,109.686 240.469,113.848 245.339 C 114.193 245.743,114.890 246.563,115.396 247.162 C 117.274 249.382,121.265 253.823,123.668 256.367 C 124.785 257.549,129.920 262.759,135.079 267.945 L 144.460 277.374 144.404 280.835 L 144.348 284.297 138.517 284.422 C 135.309 284.491,122.535 284.560,110.128 284.575 L 87.570 284.604 87.570 244.223 C 87.570 222.014,87.511 203.413,87.439 202.887 C 87.247 201.484,86.236 199.945,85.013 199.195 L 83.990 198.568 75.912 198.505 C 67.050 198.437,67.110 198.446,67.110 197.216 C 67.110 196.604,67.627 196.110,71.911 192.634 C 73.020 191.734,74.136 190.813,74.389 190.588 C 74.643 190.363,75.695 189.488,76.727 188.645 C 77.759 187.801,79.272 186.558,80.089 185.882 C 80.905 185.207,82.475 183.918,83.577 183.018 C 84.679 182.118,86.282 180.799,87.138 180.087 C 89.977 177.727,90.321 177.443,91.867 176.173 C 92.711 175.479,94.259 174.204,95.308 173.338 C 98.155 170.989,99.977 169.491,102.201 167.673 C 103.302 166.772,104.411 165.852,104.664 165.627 C 104.917 165.402,105.977 164.527,107.018 163.683 C 108.060 162.839,109.625 161.550,110.497 160.818 C 111.368 160.087,112.932 158.798,113.972 157.954 C 115.012 157.110,116.524 155.867,117.333 155.192 C 118.141 154.517,119.205 153.642,119.696 153.248 C 120.187 152.854,120.971 152.210,121.439 151.816 C 121.906 151.422,122.685 150.777,123.170 150.384 C 124.087 149.638,125.199 148.721,128.511 145.976 C 129.591 145.080,131.377 143.611,132.478 142.711 C 133.580 141.811,135.182 140.493,136.039 139.783 C 136.895 139.072,137.735 138.382,137.905 138.248 C 138.272 137.960,140.619 136.024,143.532 133.606 C 144.684 132.650,146.527 131.130,147.628 130.230 C 148.728 129.330,149.913 128.343,150.262 128.037 C 151.050 127.344,150.799 127.276,152.394 128.614 M306.394 129.785 C 304.793 130.412,303.836 131.741,303.836 133.336 C 303.836 133.993,307.988 145.720,309.545 149.463 C 309.639 149.688,310.061 150.793,310.483 151.918 C 310.905 153.043,311.324 154.148,311.414 154.373 C 311.504 154.598,311.826 155.473,312.130 156.317 C 312.434 157.161,312.763 158.036,312.861 158.261 C 312.960 158.486,314.425 162.399,316.118 166.957 C 317.811 171.514,319.272 175.427,319.366 175.652 C 319.541 176.071,320.955 179.826,321.216 180.563 C 322.695 184.740,327.283 185.213,328.683 181.332 C 328.876 180.796,329.108 180.174,329.199 179.949 C 329.414 179.413,330.625 176.184,331.578 173.606 C 331.993 172.481,332.448 171.284,332.588 170.946 C 332.728 170.609,333.966 167.294,335.340 163.581 C 337.679 157.258,338.622 154.739,339.019 153.760 C 339.229 153.241,340.417 150.074,341.399 147.417 C 341.814 146.292,342.269 145.095,342.408 144.757 C 343.956 141.018,346.394 133.930,346.393 133.173 C 346.390 130.920,343.965 129.074,341.841 129.710 C 341.354 129.856,337.489 132.293,333.041 135.258 L 325.109 140.547 317.184 135.266 C 308.178 129.265,307.980 129.165,306.394 129.785 M309.934 132.938 C 310.913 133.583,311.760 134.163,311.816 134.227 C 311.872 134.291,312.286 134.564,312.737 134.834 C 313.187 135.103,313.601 135.375,313.657 135.437 C 313.714 135.500,315.095 136.425,316.726 137.494 C 318.358 138.562,319.739 139.488,319.795 139.550 C 319.852 139.612,320.266 139.884,320.716 140.153 C 321.166 140.423,321.581 140.699,321.637 140.767 C 321.693 140.835,322.107 141.113,322.558 141.384 C 323.008 141.655,323.475 141.973,323.596 142.090 C 323.716 142.206,324.131 142.470,324.516 142.675 L 325.217 143.048 333.666 137.406 C 342.377 131.589,342.722 131.406,343.672 132.072 C 344.586 132.712,344.280 134.352,342.411 138.824 C 342.270 139.161,341.813 140.358,341.396 141.483 C 340.418 144.121,339.224 147.303,339.016 147.826 C 338.562 148.967,337.612 151.505,335.340 157.647 C 333.966 161.361,332.727 164.675,332.587 165.013 C 332.446 165.350,332.081 166.317,331.775 167.161 C 331.470 168.005,331.146 168.880,331.056 169.105 C 330.966 169.330,330.547 170.435,330.125 171.560 C 329.703 172.685,329.284 173.790,329.195 174.015 C 328.925 174.694,328.070 176.972,327.352 178.926 C 326.475 181.310,326.246 181.649,325.401 181.808 C 324.104 182.051,323.896 181.736,322.049 176.739 C 321.121 174.228,320.247 171.898,320.107 171.560 C 319.967 171.223,319.518 170.049,319.108 168.951 C 318.698 167.854,318.028 166.059,317.618 164.962 C 317.209 163.864,316.759 162.691,316.619 162.353 C 316.479 162.015,315.054 158.194,313.453 153.862 C 311.851 149.529,310.426 145.708,310.286 145.371 C 310.146 145.033,309.690 143.836,309.273 142.711 C 308.544 140.744,307.225 137.221,306.899 136.368 C 306.813 136.143,306.549 135.482,306.313 134.898 C 305.049 131.782,306.768 130.851,309.934 132.938 M134.114 207.163 C 139.543 208.514,144.736 213.111,145.899 217.596 C 147.340 223.149,154.523 223.561,155.895 218.169 C 157.042 213.660,161.605 209.124,166.530 207.597 C 181.385 202.991,194.100 219.593,185.392 232.225 C 184.888 232.957,184.285 233.831,184.052 234.169 C 183.350 235.186,180.604 238.576,179.244 240.102 C 175.851 243.912,174.734 245.119,170.742 249.287 C 166.955 253.241,154.587 265.455,151.668 268.123 L 150.599 269.100 148.599 267.245 C 144.367 263.322,128.392 246.870,126.116 244.092 C 125.793 243.698,124.792 242.542,123.890 241.522 C 116.002 232.601,113.922 228.862,113.883 223.529 C 113.802 212.515,123.640 204.556,134.114 207.163 M254.688 415.908 L 254.625 428.747 253.939 430.691 C 251.894 436.484,248.181 440.270,242.660 442.189 L 240.716 442.864 151.509 442.864 L 62.302 442.864 60.767 442.374 C 54.002 440.214,49.169 434.565,48.289 427.789 C 48.182 426.965,48.092 421.066,48.088 414.680 L 48.082 403.069 151.417 403.069 L 254.751 403.069 254.688 415.908 M149.565 411.992 C 141.158 413.575,137.749 423.827,143.574 430.009 C 149.436 436.230,159.823 433.508,161.923 425.201 C 163.783 417.845,156.998 410.593,149.565 411.992 " stroke="none" fill="#74748c" fill-rule="evenodd"></path><path id="path1" d="M62.404 47.473 C 54.922 49.182,49.692 54.643,48.402 62.097 C 48.136 63.635,48.083 66.108,48.082 77.084 L 48.082 90.230 151.407 90.230 L 254.731 90.230 254.731 76.777 C 254.731 60.614,254.753 60.813,252.516 56.422 C 250.551 52.567,246.803 49.510,241.944 47.799 L 240.716 47.367 151.918 47.338 C 103.079 47.322,62.798 47.383,62.404 47.473 M57.956 61.976 C 59.628 62.612,59.195 65.064,57.411 65.064 C 55.946 65.064,55.135 63.564,56.015 62.480 C 56.556 61.813,57.133 61.663,57.956 61.976 M104.159 62.388 C 104.897 63.126,104.931 63.886,104.255 64.562 C 102.883 65.933,100.532 64.290,101.580 62.692 C 102.248 61.672,103.317 61.546,104.159 62.388 M167.008 62.427 C 167.501 63.022,167.461 64.015,166.921 64.590 C 165.622 65.973,163.201 64.256,164.231 62.684 C 164.873 61.704,166.298 61.572,167.008 62.427 M202.202 61.976 C 203.350 62.413,203.621 63.685,202.762 64.608 C 201.865 65.570,199.898 64.880,199.898 63.603 C 199.898 62.226,200.934 61.494,202.202 61.976 M240.152 62.558 C 240.746 63.285,240.733 63.664,240.084 64.434 C 238.746 66.024,236.373 64.416,237.354 62.584 C 237.857 61.644,239.394 61.630,240.152 62.558 M133.263 62.507 C 134.389 62.982,135.980 65.043,135.536 65.452 C 135.023 65.924,132.992 66.494,132.992 66.166 C 132.992 65.987,132.679 65.528,132.297 65.146 C 131.118 63.967,129.100 64.291,129.108 65.658 C 129.113 66.474,129.308 66.638,130.847 67.118 C 135.161 68.462,136.628 69.922,136.163 72.404 C 135.366 76.651,127.321 77.082,125.674 72.966 C 125.258 71.926,125.231 71.990,126.215 71.699 C 128.094 71.144,128.032 71.138,128.409 71.932 C 128.915 72.998,129.575 73.350,131.069 73.350 C 133.739 73.350,134.089 71.045,131.520 70.383 C 128.985 69.731,128.106 69.331,127.309 68.465 C 124.183 65.074,128.680 60.574,133.263 62.507 M67.361 62.482 C 70.131 63.133,71.587 65.660,70.476 67.887 C 70.148 68.543,69.076 69.565,68.715 69.565 C 68.603 69.565,68.774 69.786,69.095 70.057 C 69.709 70.573,69.886 70.866,70.588 72.532 C 70.826 73.095,71.105 73.739,71.209 73.964 C 71.313 74.189,71.490 74.627,71.602 74.936 L 71.806 75.499 70.224 75.499 C 68.443 75.499,68.661 75.696,67.726 73.248 C 66.695 70.550,66.529 70.384,64.873 70.384 L 63.836 70.384 63.836 72.941 L 63.836 75.499 62.404 75.499 L 60.972 75.499 60.972 68.849 L 60.972 62.199 63.581 62.203 C 65.040 62.204,66.705 62.327,67.361 62.482 M211.606 62.482 C 214.376 63.133,215.832 65.660,214.721 67.887 C 214.389 68.553,213.320 69.565,212.949 69.565 C 212.830 69.565,212.986 69.765,213.296 70.009 C 213.606 70.252,214.178 71.150,214.566 72.003 C 214.954 72.857,215.356 73.739,215.458 73.964 C 215.560 74.189,215.735 74.627,215.847 74.936 L 216.051 75.499 214.469 75.499 C 212.688 75.499,212.907 75.696,211.971 73.248 C 210.941 70.550,210.775 70.384,209.118 70.384 L 208.082 70.384 208.082 72.941 L 208.082 75.499 206.650 75.499 L 205.217 75.499 205.217 68.849 L 205.217 62.199 207.826 62.203 C 209.286 62.204,210.951 62.327,211.606 62.482 M224.450 62.347 C 224.450 63.061,221.840 65.064,220.910 65.064 L 219.915 65.064 220.374 64.297 C 221.579 62.281,221.686 62.199,223.131 62.199 C 223.856 62.199,224.450 62.266,224.450 62.347 M109.668 64.962 L 109.668 66.087 110.793 66.087 L 111.918 66.087 111.918 67.212 L 111.918 68.338 110.786 68.338 L 109.655 68.338 109.712 70.742 L 109.770 73.146 110.844 73.208 L 111.918 73.269 111.918 74.384 L 111.918 75.499 110.271 75.499 C 107.207 75.499,106.803 74.987,106.803 71.107 L 106.803 68.338 106.189 68.338 C 105.582 68.338,105.575 68.326,105.575 67.212 C 105.575 66.098,105.582 66.087,106.189 66.087 C 106.797 66.087,106.803 66.076,106.803 64.962 L 106.803 63.836 108.235 63.836 L 109.668 63.836 109.668 64.962 M245.320 64.962 L 245.320 66.087 246.445 66.087 L 247.570 66.087 247.570 67.212 L 247.570 68.338 246.439 68.338 L 245.307 68.338 245.364 70.742 L 245.422 73.146 246.496 73.208 L 247.570 73.269 247.570 74.384 L 247.570 75.499 245.923 75.499 C 242.836 75.499,242.455 75.021,242.455 71.157 L 242.455 68.338 241.841 68.338 C 241.234 68.338,241.228 68.326,241.228 67.212 C 241.228 66.098,241.234 66.087,241.841 66.087 C 242.449 66.087,242.455 66.076,242.455 64.962 L 242.455 63.836 243.887 63.836 L 245.320 63.836 245.320 64.962 M63.836 66.417 L 63.836 68.179 65.293 68.097 C 68.889 67.894,68.548 64.655,64.931 64.655 L 63.836 64.655 63.836 66.417 M208.082 66.417 L 208.082 68.179 209.539 68.097 C 213.134 67.894,212.793 64.655,209.177 64.655 L 208.082 64.655 208.082 66.417 M78.798 66.325 C 80.349 67.198,81.228 68.712,81.228 70.512 L 81.228 71.611 78.159 71.611 C 74.749 71.611,74.501 71.735,75.584 72.903 C 76.495 73.886,78.145 73.705,78.761 72.553 L 79.040 72.032 80.083 72.781 C 80.656 73.193,81.171 73.568,81.228 73.614 C 81.536 73.868,79.487 75.269,78.334 75.593 C 73.829 76.857,70.601 72.786,72.703 68.491 C 73.772 66.305,76.831 65.218,78.798 66.325 M87.918 66.423 C 88.539 66.779,89.569 68.248,89.351 68.466 C 89.141 68.677,87.161 69.112,87.161 68.948 C 87.161 68.215,85.035 67.775,84.775 68.454 C 84.594 68.924,84.850 69.092,86.762 69.760 C 89.844 70.836,90.734 72.645,89.082 74.474 C 87.129 76.635,82.713 76.081,81.918 73.575 C 81.595 72.557,83.643 72.125,84.491 73.032 C 85.301 73.899,86.873 73.959,87.081 73.131 C 87.252 72.450,87.136 72.360,85.398 71.832 C 83.354 71.211,82.619 70.513,82.500 69.082 C 82.295 66.612,85.504 65.037,87.918 66.423 M98.779 66.628 C 100.869 68.223,101.061 73.160,99.101 74.919 C 97.767 76.116,95.339 76.029,94.331 74.747 L 93.913 74.216 93.913 76.801 L 93.913 79.386 92.481 79.386 L 91.049 79.386 91.049 72.737 L 91.049 66.087 92.481 66.087 L 93.913 66.087 93.920 66.752 C 93.925 67.308,93.967 67.366,94.175 67.107 C 95.223 65.805,97.402 65.578,98.779 66.628 M119.272 66.388 C 120.735 67.144,121.370 68.213,121.493 70.121 L 121.588 71.611 118.479 71.611 L 115.369 71.611 115.501 72.072 C 115.981 73.746,118.619 74.072,119.210 72.531 C 119.380 72.089,119.602 72.146,120.614 72.890 C 121.618 73.628,121.701 73.834,121.176 74.281 C 117.445 77.461,112.532 75.658,112.532 71.109 C 112.532 67.184,116.049 64.721,119.272 66.388 M143.998 66.474 C 145.340 67.159,146.284 68.958,146.289 70.844 L 146.292 71.611 143.120 71.611 C 141.376 71.611,139.949 71.662,139.949 71.724 C 139.949 73.375,142.125 74.044,143.518 72.821 L 144.231 72.195 145.159 72.834 C 146.301 73.620,146.315 73.898,145.251 74.670 C 141.751 77.205,137.318 75.480,137.117 71.506 C 136.903 67.267,140.457 64.668,143.998 66.474 M156.742 66.265 C 156.875 66.410,158.027 70.027,158.363 71.355 C 158.678 72.599,158.857 72.453,159.491 70.435 C 159.800 69.450,160.238 68.069,160.464 67.366 L 160.876 66.087 162.265 66.087 L 163.654 66.087 163.470 66.729 C 163.251 67.494,162.688 69.095,162.437 69.668 C 162.339 69.893,161.856 71.274,161.364 72.737 L 160.470 75.396 158.873 75.457 C 157.995 75.490,157.200 75.440,157.106 75.346 C 156.952 75.192,155.562 71.359,154.435 67.980 C 153.947 66.515,153.760 66.398,153.565 67.435 C 153.327 68.706,153.037 69.167,152.619 68.943 C 150.988 68.070,150.384 69.045,150.384 72.547 L 150.384 75.499 148.951 75.499 L 147.519 75.499 147.519 70.793 L 147.519 66.087 148.951 66.087 L 150.384 66.087 150.384 66.819 L 150.384 67.551 150.930 66.902 C 151.230 66.545,151.667 66.181,151.901 66.094 C 152.378 65.916,156.558 66.064,156.742 66.265 M175.181 66.412 C 176.344 67.010,177.472 68.558,177.041 68.966 C 176.416 69.558,174.322 69.802,174.322 69.282 C 174.322 68.720,173.362 68.087,172.723 68.227 C 171.695 68.453,171.371 69.011,171.285 70.702 C 171.141 73.564,173.364 74.472,174.694 72.094 C 174.932 71.669,177.310 72.697,177.228 73.189 C 177.104 73.927,175.479 75.226,174.208 75.602 C 169.481 77.003,166.160 71.143,169.589 67.450 C 170.964 65.968,173.426 65.511,175.181 66.412 M185.132 66.577 C 186.290 67.308,186.989 68.586,187.145 70.257 L 187.271 71.611 184.173 71.611 C 180.808 71.611,180.619 71.689,181.373 72.765 C 182.149 73.873,183.631 73.813,184.623 72.635 L 185.094 72.075 186.051 72.783 C 187.225 73.653,187.239 73.897,186.156 74.681 C 181.446 78.093,176.019 73.510,178.670 68.359 C 179.834 66.096,182.991 65.225,185.132 66.577 M194.107 66.616 C 194.761 67.115,195.526 68.276,195.330 68.472 C 194.830 68.973,193.217 69.066,192.876 68.614 C 192.433 68.027,190.965 67.918,190.758 68.456 C 190.580 68.922,191.035 69.249,192.430 69.659 C 194.891 70.383,195.959 71.514,195.715 73.140 C 195.236 76.332,189.555 76.848,188.019 73.839 L 187.642 73.100 188.125 72.880 C 189.341 72.326,189.952 72.365,190.443 73.030 C 190.984 73.760,192.454 73.938,192.955 73.333 C 193.387 72.813,192.952 72.403,191.419 71.886 C 188.286 70.829,187.431 68.995,189.145 67.001 C 190.186 65.789,192.761 65.589,194.107 66.616 M223.135 66.375 C 224.491 67.064,225.227 68.337,225.411 70.315 L 225.532 71.611 222.434 71.611 C 218.992 71.611,218.745 71.733,219.829 72.903 C 220.740 73.886,222.390 73.705,223.007 72.553 L 223.286 72.032 224.328 72.781 C 224.902 73.193,225.417 73.568,225.473 73.614 C 225.782 73.868,223.732 75.269,222.579 75.593 C 218.009 76.875,214.703 72.561,217.009 68.325 C 218.156 66.217,221.025 65.304,223.135 66.375 M233.454 66.084 C 234.310 66.322,235.390 67.258,235.601 67.946 C 235.685 68.217,235.855 68.567,235.979 68.721 C 236.401 69.246,236.248 72.628,235.761 73.555 C 234.508 75.943,231.956 76.545,230.169 74.876 L 229.565 74.312 229.565 76.849 L 229.565 79.386 228.133 79.386 L 226.701 79.386 226.701 72.737 L 226.701 66.087 228.133 66.087 L 229.565 66.087 229.565 66.783 L 229.565 67.479 230.200 66.885 C 231.145 66.003,232.214 65.739,233.454 66.084 M58.721 70.793 L 58.721 75.499 57.391 75.499 L 56.061 75.499 56.061 70.793 L 56.061 66.087 57.391 66.087 L 58.721 66.087 58.721 70.793 M104.552 70.793 L 104.552 75.499 103.120 75.499 L 101.688 75.499 101.688 70.793 L 101.688 66.087 103.120 66.087 L 104.552 66.087 104.552 70.793 M167.161 70.793 L 167.161 75.499 165.729 75.499 L 164.297 75.499 164.297 70.793 L 164.297 66.087 165.729 66.087 L 167.161 66.087 167.161 70.793 M202.967 70.793 L 202.967 75.499 201.637 75.499 L 200.307 75.499 200.307 70.793 L 200.307 66.087 201.637 66.087 L 202.967 66.087 202.967 70.793 M240.205 70.793 L 240.205 75.499 238.772 75.499 L 237.340 75.499 237.340 70.929 C 237.340 65.711,237.218 66.087,238.909 66.087 L 240.205 66.087 240.205 70.793 M75.513 68.727 C 74.834 69.680,74.939 69.770,76.726 69.770 C 78.170 69.770,78.363 69.726,78.363 69.399 C 78.363 68.138,76.281 67.648,75.513 68.727 M94.529 68.714 C 93.022 70.220,93.834 73.657,95.696 73.657 C 96.464 73.657,97.333 72.653,97.494 71.579 C 97.879 69.008,96.025 67.217,94.529 68.714 M116.047 68.395 C 115.927 68.540,115.734 68.908,115.618 69.214 L 115.407 69.770 117.038 69.770 C 118.477 69.770,118.670 69.726,118.670 69.399 C 118.670 68.406,116.673 67.642,116.047 68.395 M140.847 68.290 C 140.722 68.372,140.466 68.739,140.279 69.105 L 139.938 69.770 141.683 69.770 C 143.593 69.770,143.607 69.760,143.020 68.798 C 142.612 68.128,141.488 67.865,140.847 68.290 M181.498 68.672 C 180.744 69.631,180.901 69.770,182.733 69.770 C 184.161 69.770,184.374 69.725,184.267 69.446 C 184.199 69.268,184.143 69.045,184.143 68.949 C 184.143 68.040,182.159 67.832,181.498 68.672 M219.758 68.727 C 219.080 69.680,219.184 69.770,220.972 69.770 C 222.415 69.770,222.609 69.726,222.609 69.399 C 222.609 68.138,220.527 67.648,219.758 68.727 M230.793 68.279 C 229.106 68.907,229.124 72.762,230.817 73.463 C 232.849 74.304,234.260 70.536,232.552 68.829 C 231.886 68.163,231.462 68.030,230.793 68.279 M48.082 112.225 L 48.082 122.353 70.281 122.353 L 92.481 122.353 92.481 112.225 L 92.481 102.097 70.281 102.097 L 48.082 102.097 48.082 112.225 M98.619 112.225 L 98.619 122.353 119.905 122.353 L 141.191 122.353 143.752 120.256 C 145.161 119.102,146.792 117.772,147.377 117.300 C 149.958 115.215,152.153 115.315,155.002 117.648 C 155.757 118.266,157.030 119.308,157.830 119.963 C 158.629 120.619,159.604 121.424,159.994 121.754 L 160.705 122.353 182.143 122.353 L 203.581 122.353 203.581 112.225 L 203.581 102.097 151.100 102.097 L 98.619 102.097 98.619 112.225 M209.719 112.225 L 209.719 122.353 232.225 122.353 L 254.731 122.353 254.731 112.225 L 254.731 102.097 232.225 102.097 L 209.719 102.097 209.719 112.225 M48.082 145.575 L 48.082 162.660 70.281 162.660 L 92.481 162.660 92.481 145.575 L 92.481 128.491 70.281 128.491 L 48.082 128.491 48.082 145.575 M98.619 142.941 C 98.619 156.671,98.637 157.377,98.977 157.114 C 99.549 156.673,102.598 154.187,102.711 154.070 C 102.767 154.011,103.498 153.411,104.334 152.736 C 105.170 152.061,106.045 151.352,106.278 151.160 C 106.510 150.968,107.124 150.461,107.640 150.034 C 108.157 149.608,108.976 148.936,109.460 148.542 C 109.944 148.148,111.001 147.274,111.808 146.598 C 112.615 145.923,114.183 144.634,115.294 143.734 C 116.404 142.834,117.460 141.959,117.641 141.790 C 117.821 141.621,118.654 140.931,119.491 140.256 C 121.306 138.792,121.406 138.710,123.398 137.051 C 125.051 135.674,128.426 132.893,130.921 130.851 C 131.752 130.172,132.716 129.363,133.064 129.054 L 133.697 128.491 116.158 128.491 L 98.619 128.491 98.619 142.941 M168.389 128.575 C 168.389 128.658,169.842 129.887,172.890 132.381 C 173.734 133.072,174.793 133.945,175.243 134.321 C 175.693 134.697,177.488 136.173,179.233 137.601 C 182.085 139.936,183.812 141.364,187.955 144.821 L 189.258 145.908 189.258 142.322 C 189.258 135.049,190.199 134.220,198.453 134.220 L 203.581 134.220 203.581 131.355 L 203.581 128.491 185.985 128.491 C 176.307 128.491,168.389 128.529,168.389 128.575 M209.719 131.355 L 209.719 134.220 215.002 134.220 C 221.224 134.220,221.650 134.307,223.108 135.865 C 224.506 137.360,224.450 136.754,224.450 150.295 L 224.450 162.660 239.591 162.660 L 254.731 162.660 254.731 145.575 L 254.731 128.491 232.225 128.491 L 209.719 128.491 209.719 131.355 M48.082 199.898 L 48.082 225.882 62.711 225.882 L 77.340 225.882 77.340 217.201 L 77.340 208.519 71.355 208.441 C 64.034 208.346,63.372 208.161,60.460 205.395 C 58.030 203.087,56.985 200.599,56.991 197.136 C 56.997 192.850,58.367 190.492,62.994 186.800 C 64.050 185.958,65.201 185.025,65.552 184.727 C 66.425 183.984,67.997 182.674,68.464 182.300 C 69.810 181.222,73.471 178.230,74.081 177.708 C 75.493 176.502,76.020 176.064,77.136 175.169 C 77.754 174.672,78.348 174.186,78.455 174.089 C 78.564 173.991,71.908 173.913,63.366 173.913 L 48.082 173.913 48.082 199.898 M224.450 174.386 C 224.450 174.722,224.846 175.182,225.815 175.972 C 226.566 176.584,227.329 177.223,227.511 177.391 C 227.692 177.560,228.522 178.251,229.354 178.926 C 230.186 179.601,231.058 180.312,231.290 180.506 C 231.523 180.699,232.450 181.468,233.350 182.214 C 234.251 182.961,235.171 183.725,235.396 183.912 C 235.621 184.100,237.013 185.238,238.489 186.441 C 243.900 190.852,244.815 192.433,244.799 197.340 L 244.790 200.205 243.964 201.944 C 242.657 204.698,240.631 206.633,237.749 207.881 C 236.663 208.351,236.411 208.371,230.537 208.446 L 224.450 208.523 224.450 217.203 L 224.450 225.882 239.591 225.882 L 254.731 225.882 254.731 199.898 L 254.731 173.913 239.591 173.913 L 224.450 173.913 224.450 174.386 M48.082 242.204 L 48.082 247.272 50.253 249.109 C 51.446 250.120,53.183 251.591,54.111 252.379 C 55.040 253.166,56.792 254.639,58.004 255.652 C 59.216 256.665,60.361 257.632,60.548 257.801 C 60.734 257.969,61.528 258.644,62.311 259.299 C 64.392 261.041,65.557 262.026,67.436 263.632 C 68.357 264.419,70.102 265.893,71.313 266.905 C 72.524 267.918,74.215 269.345,75.070 270.077 C 75.925 270.808,76.785 271.533,76.982 271.688 C 77.322 271.954,77.340 271.109,77.340 254.552 L 77.340 237.136 62.711 237.136 L 48.082 237.136 48.082 242.204 M224.450 264.061 C 224.450 293.953,224.563 291.567,223.075 293.100 C 221.676 294.541,221.215 294.629,215.124 294.629 L 209.719 294.629 209.719 302.506 L 209.719 310.384 232.123 310.384 L 254.527 310.384 254.530 304.706 C 254.537 293.862,255.635 290.226,260.408 285.237 L 261.074 284.541 261.074 275.979 L 261.074 267.417 260.123 267.417 C 258.274 267.417,256.216 266.027,255.293 264.154 L 254.834 263.223 254.777 250.179 L 254.720 237.136 239.585 237.136 L 224.450 237.136 224.450 264.061 M48.082 282.853 L 48.082 310.384 80.614 310.384 C 98.506 310.384,113.146 310.350,113.146 310.308 C 113.146 310.232,110.488 307.935,108.022 305.882 C 106.637 304.728,103.645 302.206,99.847 298.989 C 98.665 297.988,97.017 296.598,96.183 295.899 L 94.668 294.629 87.999 294.627 C 77.650 294.624,77.340 294.348,77.340 285.125 L 77.340 279.990 75.803 278.681 C 74.957 277.961,73.974 277.135,73.619 276.845 C 73.263 276.555,72.218 275.673,71.297 274.885 C 70.376 274.097,68.582 272.578,67.312 271.509 C 65.234 269.761,64.311 268.981,60.853 266.053 C 60.300 265.584,59.202 264.662,58.414 264.003 C 57.627 263.343,56.714 262.576,56.385 262.297 C 54.433 260.639,52.194 258.731,50.627 257.391 C 49.639 256.547,48.663 255.736,48.457 255.589 C 48.094 255.331,48.082 256.202,48.082 282.853 M122.468 294.627 L 104.271 294.731 105.715 295.959 C 106.510 296.634,108.148 298.015,109.357 299.028 C 110.565 300.041,112.311 301.514,113.237 302.302 C 114.163 303.090,115.415 304.148,116.019 304.655 C 117.031 305.503,118.202 306.492,119.488 307.586 C 119.770 307.826,120.633 308.553,121.406 309.203 L 122.812 310.384 133.529 310.384 L 144.246 310.384 144.246 302.404 L 144.246 294.425 142.455 294.474 C 141.471 294.501,132.476 294.570,122.468 294.627 M156.113 302.372 L 156.113 310.384 179.847 310.384 L 203.581 310.384 203.581 302.506 L 203.581 294.629 183.562 294.629 C 172.552 294.629,161.872 294.569,159.828 294.495 L 156.113 294.360 156.113 302.372 M48.082 331.151 L 48.082 345.780 61.074 345.780 L 74.066 345.780 74.066 331.151 L 74.066 316.522 61.074 316.522 L 48.082 316.522 48.082 331.151 M80.205 331.151 L 80.205 345.780 112.360 345.780 L 144.515 345.780 144.381 341.023 C 144.307 338.407,144.246 331.824,144.246 326.394 L 144.246 316.522 112.225 316.522 L 80.205 316.522 80.205 331.151 M156.117 326.905 C 156.122 340.101,156.292 341.150,158.779 343.373 C 160.134 344.583,160.169 344.607,161.432 345.173 L 162.558 345.678 183.069 345.735 L 203.581 345.793 203.581 331.157 L 203.581 316.522 179.847 316.522 L 156.113 316.522 156.117 326.905 M209.719 331.151 L 209.719 345.780 228.198 345.780 C 240.456 345.780,247.076 345.706,247.862 345.561 C 250.349 345.101,252.529 343.371,253.767 340.874 L 254.425 339.549 254.484 328.035 L 254.543 316.522 232.131 316.522 L 209.719 316.522 209.719 331.151 M259.836 352.383 C 257.421 354.659,254.970 356.019,251.355 357.088 C 249.958 357.501,249.439 357.513,229.821 357.587 L 209.719 357.662 209.719 374.432 L 209.719 391.202 232.216 391.202 L 254.714 391.202 254.774 382.864 C 254.833 374.659,254.841 374.513,255.296 373.663 C 256.262 371.853,257.967 370.692,260.066 370.414 L 261.074 370.280 261.074 360.792 C 261.074 355.574,261.051 351.306,261.023 351.308 C 260.995 351.311,260.461 351.794,259.836 352.383 M48.082 374.118 L 48.082 391.202 61.074 391.202 L 74.066 391.202 74.066 374.118 L 74.066 357.033 61.074 357.033 L 48.082 357.033 48.082 374.118 M80.205 374.118 L 80.205 391.203 112.276 391.152 L 144.348 391.100 144.400 374.066 L 144.452 357.033 112.329 357.033 L 80.205 357.033 80.205 374.118 M155.499 374.101 L 155.499 391.202 179.540 391.202 L 203.581 391.202 203.581 374.425 L 203.581 357.647 183.069 357.632 C 170.165 357.623,162.140 357.540,161.432 357.410 C 160.813 357.296,159.225 357.157,157.903 357.101 L 155.499 356.999 155.499 374.101 M48.082 414.629 C 48.082 427.120,48.156 428.214,49.215 431.326 C 50.153 434.086,52.764 437.710,54.948 439.287 C 56.295 440.258,56.669 440.512,56.760 440.512 C 56.816 440.512,57.303 440.771,57.843 441.087 C 58.887 441.700,60.053 442.117,62.199 442.645 C 63.962 443.078,239.352 443.032,241.125 442.598 C 246.922 441.179,251.971 436.533,253.775 430.958 C 254.700 428.098,254.731 427.572,254.731 415.025 L 254.731 403.069 151.407 403.069 L 48.082 403.069 48.082 414.629 M154.285 412.187 C 161.732 414.331,164.708 423.219,160.000 429.256 C 154.035 436.905,142.088 433.744,140.732 424.158 C 139.651 416.513,146.942 410.073,154.285 412.187 " stroke="none" fill="#fcfcfc" fill-rule="evenodd"></path><path id="path2" d="M107.792 47.212 C 131.911 47.241,171.317 47.241,195.362 47.212 C 219.406 47.184,199.673 47.160,151.509 47.160 C 103.345 47.160,83.672 47.184,107.792 47.212 M249.412 52.276 C 249.794 52.670,250.152 52.992,250.208 52.992 C 250.264 52.992,249.998 52.670,249.616 52.276 C 249.235 51.882,248.876 51.560,248.820 51.560 C 248.764 51.560,249.030 51.882,249.412 52.276 M130.588 62.136 C 130.785 62.187,131.107 62.187,131.304 62.136 C 131.501 62.084,131.340 62.042,130.946 62.042 C 130.552 62.042,130.391 62.084,130.588 62.136 M62.242 62.351 C 62.996 62.390,64.285 62.391,65.106 62.352 C 65.927 62.313,65.309 62.281,63.734 62.280 C 62.159 62.280,61.487 62.312,62.242 62.351 M206.487 62.351 C 207.242 62.390,208.531 62.391,209.352 62.352 C 210.172 62.313,209.555 62.281,207.980 62.280 C 206.404 62.280,205.733 62.312,206.487 62.351 M222.995 62.352 L 224.302 62.425 223.711 63.080 L 223.120 63.734 223.785 63.133 C 224.715 62.292,224.637 62.194,223.069 62.239 L 221.688 62.278 222.995 62.352 M109.548 65.012 L 109.565 66.189 110.743 66.206 L 111.920 66.223 110.804 66.145 L 109.687 66.067 109.609 64.951 L 109.532 63.834 109.548 65.012 M245.154 65.013 L 245.115 66.292 246.394 66.253 L 247.673 66.214 246.506 66.141 L 245.340 66.067 245.266 64.901 L 245.192 63.734 245.154 65.013 M56.619 66.235 C 56.983 66.280,57.627 66.281,58.052 66.236 C 58.476 66.192,58.179 66.155,57.391 66.154 C 56.604 66.153,56.256 66.189,56.619 66.235 M92.327 66.239 C 93.705 66.310,93.708 66.312,93.708 66.915 C 93.708 67.247,93.782 67.519,93.872 67.519 C 93.962 67.519,93.998 67.197,93.952 66.803 L 93.868 66.087 92.407 66.127 L 90.946 66.167 92.327 66.239 M102.353 66.236 C 102.775 66.280,103.465 66.280,103.887 66.236 C 104.309 66.192,103.964 66.156,103.120 66.156 C 102.276 66.156,101.931 66.192,102.353 66.236 M105.831 66.228 C 106.028 66.279,106.350 66.279,106.547 66.228 C 106.744 66.177,106.583 66.134,106.189 66.134 C 105.795 66.134,105.634 66.177,105.831 66.228 M148.787 66.238 L 150.156 66.310 150.234 67.170 L 150.312 68.031 150.348 67.059 L 150.384 66.087 148.900 66.127 L 147.417 66.167 148.787 66.238 M153.725 66.386 C 153.725 66.559,153.802 66.701,153.896 66.701 C 153.990 66.701,154.066 66.609,154.066 66.496 C 154.066 66.225,156.662 66.230,156.796 66.501 C 156.853 66.617,156.877 66.594,156.848 66.450 C 156.764 66.033,153.725 65.970,153.725 66.386 M161.483 66.236 C 161.905 66.280,162.596 66.280,163.018 66.236 C 163.440 66.192,163.095 66.156,162.251 66.156 C 161.407 66.156,161.061 66.192,161.483 66.236 M164.962 66.236 C 165.384 66.280,166.074 66.280,166.496 66.236 C 166.918 66.192,166.573 66.156,165.729 66.156 C 164.885 66.156,164.540 66.192,164.962 66.236 M200.865 66.235 C 201.228 66.280,201.873 66.281,202.297 66.236 C 202.722 66.192,202.425 66.155,201.637 66.154 C 200.849 66.153,200.502 66.189,200.865 66.235 M226.749 72.788 L 226.797 79.488 226.854 72.899 L 226.911 66.310 228.289 66.239 L 229.668 66.167 228.184 66.127 L 226.701 66.087 226.749 72.788 M237.432 66.348 C 237.377 66.491,237.359 68.632,237.391 71.105 L 237.451 75.601 237.498 70.956 L 237.545 66.310 238.926 66.239 L 240.307 66.167 238.919 66.127 C 237.954 66.099,237.502 66.166,237.432 66.348 M241.483 66.228 C 241.680 66.279,242.003 66.279,242.199 66.228 C 242.396 66.177,242.235 66.134,241.841 66.134 C 241.448 66.134,241.286 66.177,241.483 66.228 M85.371 68.069 C 85.568 68.121,85.890 68.121,86.087 68.069 C 86.284 68.018,86.123 67.976,85.729 67.976 C 85.335 67.976,85.174 68.018,85.371 68.069 M141.432 68.069 C 141.629 68.121,141.951 68.121,142.148 68.069 C 142.345 68.018,142.184 67.976,141.790 67.976 C 141.396 67.976,141.235 68.018,141.432 68.069 M182.353 68.069 C 182.550 68.121,182.872 68.121,183.069 68.069 C 183.266 68.018,183.105 67.976,182.711 67.976 C 182.317 67.976,182.156 68.018,182.353 68.069 M191.355 68.069 C 191.552 68.121,191.875 68.121,192.072 68.069 C 192.269 68.018,192.107 67.976,191.714 67.976 C 191.320 67.976,191.159 68.018,191.355 68.069 M109.540 70.588 C 109.540 71.882,109.574 72.412,109.614 71.765 C 109.655 71.118,109.655 70.059,109.614 69.412 C 109.574 68.765,109.540 69.294,109.540 70.588 M245.192 70.588 C 245.192 71.882,245.226 72.412,245.266 71.765 C 245.307 71.118,245.307 70.059,245.266 69.412 C 245.226 68.765,245.192 69.294,245.192 70.588 M146.145 70.691 C 146.147 71.253,146.187 71.459,146.234 71.148 C 146.281 70.837,146.280 70.377,146.231 70.125 C 146.182 69.873,146.144 70.128,146.145 70.691 M72.084 71.100 C 72.085 71.775,72.123 72.026,72.169 71.659 C 72.214 71.291,72.213 70.739,72.167 70.431 C 72.120 70.124,72.083 70.425,72.084 71.100 M150.260 72.737 C 150.260 74.312,150.292 74.929,150.331 74.109 C 150.370 73.288,150.370 71.999,150.331 71.244 C 150.291 70.490,150.259 71.161,150.260 72.737 M216.329 71.100 C 216.331 71.775,216.369 72.026,216.414 71.659 C 216.460 71.291,216.459 70.739,216.412 70.431 C 216.365 70.124,216.328 70.425,216.329 71.100 M171.100 70.895 C 171.102 71.345,171.144 71.505,171.193 71.251 C 171.242 70.996,171.240 70.628,171.189 70.432 C 171.138 70.237,171.098 70.445,171.100 70.895 M229.416 70.997 C 229.416 71.504,229.456 71.711,229.505 71.458 C 229.554 71.205,229.554 70.790,229.505 70.537 C 229.456 70.284,229.416 70.491,229.416 70.997 M233.300 70.895 C 233.302 71.345,233.344 71.505,233.393 71.251 C 233.442 70.996,233.440 70.628,233.389 70.432 C 233.337 70.237,233.297 70.445,233.300 70.895 M110.540 73.395 C 110.851 73.442,111.311 73.441,111.563 73.392 C 111.815 73.344,111.560 73.305,110.997 73.307 C 110.435 73.308,110.229 73.348,110.540 73.395 M246.192 73.395 C 246.503 73.442,246.963 73.441,247.215 73.392 C 247.467 73.344,247.212 73.305,246.650 73.307 C 246.087 73.308,245.881 73.348,246.192 73.395 M93.788 76.829 C 93.788 78.292,93.821 78.863,93.860 78.099 C 93.900 77.335,93.900 76.138,93.860 75.439 C 93.820 74.740,93.788 75.366,93.788 76.829 M76.473 75.848 C 76.727 75.897,77.096 75.895,77.291 75.844 C 77.487 75.793,77.279 75.753,76.829 75.755 C 76.379 75.757,76.218 75.799,76.473 75.848 M85.269 75.848 C 85.522 75.896,85.936 75.896,86.189 75.848 C 86.442 75.799,86.235 75.759,85.729 75.759 C 85.223 75.759,85.015 75.799,85.269 75.848 M116.780 75.848 C 117.034 75.897,117.403 75.895,117.598 75.844 C 117.794 75.793,117.586 75.753,117.136 75.755 C 116.685 75.757,116.525 75.799,116.780 75.848 M130.488 75.848 C 130.743 75.897,131.111 75.895,131.307 75.844 C 131.502 75.793,131.294 75.753,130.844 75.755 C 130.394 75.757,130.234 75.799,130.488 75.848 M141.330 75.848 C 141.583 75.896,141.997 75.896,142.251 75.848 C 142.504 75.799,142.297 75.759,141.790 75.759 C 141.284 75.759,141.077 75.799,141.330 75.848 M172.532 75.844 C 172.729 75.896,173.051 75.896,173.248 75.844 C 173.445 75.793,173.284 75.751,172.890 75.751 C 172.496 75.751,172.335 75.793,172.532 75.844 M182.251 75.848 C 182.504 75.896,182.918 75.896,183.171 75.848 C 183.425 75.799,183.217 75.759,182.711 75.759 C 182.205 75.759,181.997 75.799,182.251 75.848 M191.253 75.848 C 191.506 75.896,191.921 75.896,192.174 75.848 C 192.427 75.799,192.220 75.759,191.714 75.759 C 191.207 75.759,191.000 75.799,191.253 75.848 M220.718 75.848 C 220.973 75.897,221.341 75.895,221.537 75.844 C 221.733 75.793,221.524 75.753,221.074 75.755 C 220.624 75.757,220.464 75.799,220.718 75.848 M70.230 102.046 L 92.481 102.099 92.481 112.226 L 92.481 122.353 70.281 122.353 L 48.082 122.353 48.082 125.422 L 48.082 128.491 70.281 128.491 L 92.481 128.491 92.481 145.487 L 92.481 162.483 93.113 162.033 C 93.461 161.785,94.466 160.973,95.346 160.229 C 96.227 159.484,97.324 158.570,97.783 158.198 L 98.619 157.522 98.619 143.004 L 98.619 128.487 116.245 128.493 L 133.871 128.500 136.143 126.610 C 137.392 125.571,139.030 124.211,139.782 123.588 L 141.150 122.455 119.885 122.403 L 98.619 122.351 98.619 112.224 L 98.619 102.097 151.100 102.097 L 203.581 102.097 203.581 112.225 L 203.581 122.353 182.148 122.359 L 160.716 122.365 161.345 122.922 C 161.691 123.228,162.835 124.169,163.886 125.013 C 164.938 125.857,166.496 127.144,167.349 127.873 C 168.202 128.603,168.774 129.040,168.619 128.845 C 168.354 128.510,169.279 128.491,185.960 128.491 L 203.581 128.491 203.581 131.355 L 203.581 134.220 206.650 134.220 L 209.719 134.220 209.719 131.355 L 209.719 128.491 232.225 128.491 L 254.731 128.491 254.731 125.422 L 254.731 122.353 232.225 122.353 L 209.719 122.353 209.719 112.226 L 209.719 102.099 232.276 102.046 C 244.683 102.017,208.292 101.993,151.407 101.993 C 94.522 101.993,57.992 102.017,70.230 102.046 M150.435 115.952 C 150.744 115.999,151.251 115.999,151.560 115.952 C 151.870 115.905,151.616 115.867,150.997 115.867 C 150.379 115.867,150.125 115.905,150.435 115.952 M48.082 168.286 L 48.082 173.913 63.409 173.913 L 78.735 173.913 80.237 172.673 C 81.063 171.991,82.597 170.725,83.646 169.860 C 86.658 167.374,88.629 165.747,89.514 165.015 C 89.964 164.643,90.747 163.997,91.253 163.579 C 91.760 163.162,92.212 162.784,92.259 162.740 C 92.306 162.696,82.385 162.660,70.213 162.660 L 48.082 162.660 48.082 168.286 M224.450 168.286 L 224.450 173.913 239.591 173.913 L 254.731 173.913 254.731 168.286 L 254.731 162.660 239.591 162.660 L 224.450 162.660 224.450 168.286 M60.142 189.207 L 59.437 189.974 60.253 189.258 C 60.702 188.864,61.109 188.519,61.157 188.491 C 61.205 188.463,61.155 188.440,61.046 188.440 C 60.937 188.440,60.530 188.785,60.142 189.207 M56.950 197.136 C 56.951 198.036,56.987 198.379,57.030 197.897 C 57.073 197.416,57.072 196.680,57.029 196.261 C 56.985 195.842,56.949 196.235,56.950 197.136 M77.340 217.187 L 77.340 225.882 62.711 225.882 L 48.082 225.882 48.082 231.509 L 48.082 237.136 62.711 237.136 L 77.340 237.136 77.340 254.552 C 77.340 271.109,77.322 271.954,76.982 271.688 C 76.785 271.533,75.925 270.808,75.070 270.077 C 74.215 269.345,72.524 267.918,71.313 266.905 C 70.102 265.893,68.357 264.419,67.436 263.632 C 66.514 262.844,65.304 261.816,64.747 261.347 C 64.190 260.878,63.274 260.106,62.711 259.632 C 62.148 259.158,61.237 258.391,60.686 257.927 C 60.136 257.464,58.926 256.440,57.998 255.652 C 57.070 254.864,55.320 253.391,54.109 252.379 C 52.898 251.366,51.207 249.939,50.352 249.207 C 49.497 248.476,48.637 247.751,48.440 247.596 C 48.102 247.331,48.082 247.534,48.082 251.279 L 48.082 255.243 50.256 257.084 C 51.451 258.097,53.185 259.570,54.109 260.358 C 56.604 262.486,56.855 262.698,58.414 264.003 C 59.202 264.662,60.300 265.584,60.853 266.053 C 64.311 268.981,65.234 269.761,67.312 271.509 C 68.582 272.578,70.376 274.097,71.299 274.885 C 72.221 275.673,73.424 276.685,73.971 277.136 C 74.519 277.586,75.478 278.399,76.103 278.942 L 77.238 279.931 77.345 285.285 C 77.404 288.230,77.473 272.156,77.499 249.565 C 77.524 226.974,77.499 208.491,77.442 208.491 C 77.386 208.491,77.340 212.404,77.340 217.187 M103.585 223.223 C 103.585 223.729,103.625 223.936,103.674 223.683 C 103.723 223.430,103.723 223.015,103.674 222.762 C 103.625 222.509,103.585 222.716,103.585 223.223 M224.450 231.509 L 224.450 237.136 239.591 237.136 L 254.731 237.136 254.731 231.509 L 254.731 225.882 239.591 225.882 L 224.450 225.882 224.450 231.509 M135.815 294.577 C 136.749 294.615,138.222 294.615,139.089 294.576 C 139.956 294.538,139.192 294.507,137.391 294.507 C 135.591 294.508,134.882 294.539,135.815 294.577 M144.246 302.404 L 144.246 310.384 133.529 310.384 L 122.812 310.384 121.406 309.203 C 120.633 308.553,119.770 307.826,119.488 307.586 C 118.202 306.492,117.031 305.503,116.019 304.655 C 115.415 304.148,114.163 303.090,113.237 302.302 C 112.311 301.514,110.564 300.041,109.354 299.028 C 108.144 298.015,106.484 296.611,105.665 295.908 L 104.176 294.629 99.402 294.631 L 94.629 294.634 95.340 295.194 C 95.731 295.502,96.754 296.353,97.612 297.084 C 98.470 297.816,100.261 299.335,101.592 300.460 C 102.924 301.586,104.720 303.105,105.585 303.836 C 106.449 304.568,108.518 306.317,110.183 307.724 L 113.209 310.281 80.645 310.333 L 48.082 310.385 48.082 313.453 L 48.082 316.522 61.074 316.522 L 74.066 316.522 74.066 331.151 L 74.066 345.780 61.074 345.780 L 48.082 345.780 48.082 351.407 L 48.082 357.033 61.074 357.033 L 74.066 357.033 74.066 374.118 L 74.066 391.202 77.136 391.202 L 80.205 391.202 80.205 374.118 L 80.205 357.033 112.330 357.033 L 144.455 357.033 144.401 374.118 L 144.348 391.202 149.923 391.202 L 155.499 391.202 155.499 374.118 L 155.499 357.033 157.494 357.019 L 159.488 357.004 158.261 356.643 C 155.369 355.794,152.470 353.971,150.049 351.478 C 148.773 350.164,147.110 348.039,147.110 347.722 C 147.110 347.662,146.894 347.270,146.629 346.850 C 146.038 345.911,145.154 343.457,144.770 341.683 L 144.483 340.358 144.466 343.069 L 144.450 345.780 112.327 345.780 L 80.205 345.780 80.205 331.151 L 80.205 316.522 112.223 316.522 L 144.242 316.522 144.297 328.031 C 144.327 334.361,144.374 329.389,144.401 316.982 C 144.428 304.575,144.404 294.425,144.348 294.425 C 144.292 294.425,144.246 298.015,144.246 302.404 M162.609 294.577 C 163.537 294.615,165.056 294.615,165.985 294.577 C 166.913 294.539,166.153 294.508,164.297 294.508 C 162.440 294.508,161.680 294.539,162.609 294.577 M203.581 302.506 L 203.581 310.384 179.847 310.384 L 156.113 310.384 156.113 313.453 L 156.113 316.522 179.847 316.522 L 203.581 316.522 203.581 331.151 L 203.581 345.780 206.650 345.780 L 209.719 345.780 209.719 331.151 L 209.719 316.522 232.123 316.522 L 254.527 316.522 254.527 313.453 L 254.527 310.384 232.123 310.384 L 209.719 310.384 209.719 302.506 L 209.719 294.629 206.650 294.629 L 203.581 294.629 203.581 302.506 M157.954 342.775 C 157.954 342.810,158.253 343.109,158.619 343.440 L 159.284 344.041 158.683 343.376 C 158.123 342.756,157.954 342.617,157.954 342.775 M182.864 357.597 L 203.581 357.649 203.581 374.426 L 203.581 391.202 206.650 391.202 L 209.719 391.202 209.719 374.426 L 209.719 357.649 229.207 357.597 C 239.926 357.568,229.223 357.545,205.422 357.545 C 181.621 357.545,171.471 357.568,182.864 357.597 M150.639 433.499 C 151.061 433.544,151.752 433.544,152.174 433.499 C 152.596 433.455,152.251 433.419,151.407 433.419 C 150.563 433.419,150.217 433.455,150.639 433.499 M249.401 438.005 L 248.696 438.772 249.463 438.067 C 249.885 437.679,250.230 437.334,250.230 437.300 C 250.230 437.144,250.057 437.291,249.401 438.005 " stroke="none" fill="#c4ccd4" fill-rule="evenodd"></path><path id="path3" d="M321.228 120.849 C 317.084 121.389,309.015 124.077,308.576 125.064 C 308.539 125.148,308.422 125.217,308.316 125.217 C 307.648 125.217,303.534 128.361,301.369 130.525 C 293.048 138.847,289.563 151.439,292.589 162.251 C 293.574 165.773,293.707 166.138,294.900 168.593 C 303.692 186.692,326.119 193.027,343.018 182.185 C 343.581 181.824,344.409 181.242,344.859 180.891 C 345.309 180.540,345.929 180.061,346.237 179.825 C 348.177 178.340,351.036 175.131,352.874 172.379 C 358.963 163.256,360.087 149.162,355.423 140.423 C 355.314 140.218,355.046 139.683,354.827 139.233 C 348.881 127.009,334.471 119.124,321.228 120.849 M150.262 128.037 C 149.913 128.343,148.731 129.330,147.633 130.230 C 146.536 131.130,145.431 132.051,145.178 132.276 C 144.924 132.501,143.860 133.376,142.813 134.220 C 141.766 135.064,140.196 136.353,139.324 137.084 C 138.453 137.816,136.890 139.105,135.853 139.949 C 134.206 141.288,132.562 142.647,130.196 144.625 C 129.839 144.922,128.699 145.857,127.662 146.701 C 126.625 147.545,125.062 148.834,124.188 149.565 C 123.314 150.297,121.750 151.586,120.712 152.430 C 119.675 153.274,118.164 154.517,117.355 155.192 C 116.547 155.867,115.481 156.742,114.988 157.136 C 114.495 157.529,113.707 158.174,113.238 158.568 C 112.768 158.962,111.985 159.606,111.497 160.000 C 111.010 160.394,109.951 161.269,109.144 161.944 C 108.338 162.619,106.778 163.908,105.678 164.808 C 104.579 165.708,103.019 166.997,102.212 167.673 C 101.405 168.348,100.341 169.223,99.848 169.616 C 99.354 170.010,98.569 170.655,98.103 171.049 C 97.637 171.442,96.075 172.731,94.633 173.913 C 93.191 175.095,91.346 176.614,90.534 177.289 C 89.722 177.964,88.158 179.253,87.058 180.153 C 85.958 181.054,84.399 182.343,83.592 183.018 C 82.786 183.693,81.727 184.568,81.239 184.962 C 80.752 185.355,79.969 186.000,79.499 186.394 C 79.029 186.788,78.242 187.432,77.748 187.826 C 77.255 188.220,76.191 189.095,75.384 189.770 C 74.577 190.445,73.016 191.734,71.915 192.634 C 67.437 196.294,67.110 196.607,67.110 197.222 C 67.110 198.357,67.095 198.354,75.888 198.465 L 83.990 198.568 84.945 199.140 C 85.910 199.718,86.620 200.516,87.168 201.637 C 87.428 202.169,87.475 207.740,87.522 243.427 L 87.576 284.604 110.131 284.575 C 122.536 284.560,135.309 284.491,138.517 284.422 L 144.348 284.297 144.404 280.851 L 144.460 277.405 136.322 269.290 C 128.764 261.754,123.900 256.720,120.075 252.475 C 117.421 249.529,115.090 246.883,114.567 246.223 C 114.292 245.876,113.187 244.495,112.112 243.154 C 111.037 241.813,109.748 240.118,109.247 239.386 C 108.747 238.655,108.286 238.010,108.223 237.954 C 107.768 237.549,106.037 234.240,105.190 232.156 C 101.329 222.658,105.067 209.145,113.350 202.651 C 115.329 201.099,118.352 199.260,119.816 198.716 C 120.142 198.594,120.895 198.311,121.490 198.087 C 130.600 194.640,141.972 197.220,149.103 204.351 L 150.999 206.247 152.482 204.753 C 155.663 201.545,158.877 199.528,163.274 197.980 C 168.372 196.185,176.496 196.398,181.176 198.450 C 186.701 200.872,189.782 203.238,193.330 207.788 C 193.708 208.273,195.397 211.332,195.921 212.481 C 198.540 218.222,198.955 225.130,197.052 231.291 C 196.631 232.654,195.631 235.084,195.404 235.294 C 195.344 235.350,195.179 235.604,195.038 235.857 C 194.898 236.110,194.668 236.521,194.527 236.770 C 190.972 243.061,177.429 257.631,157.798 276.282 L 156.113 277.884 156.113 281.108 L 156.113 284.332 164.859 284.468 C 169.670 284.542,182.790 284.603,194.015 284.603 L 214.425 284.604 214.425 244.000 C 214.425 215.421,214.491 203.088,214.648 202.354 C 214.939 200.997,215.912 199.745,217.182 199.090 L 218.197 198.568 226.251 198.465 C 233.924 198.368,234.318 198.344,234.595 197.966 C 235.264 197.050,234.875 196.535,231.415 193.760 C 230.363 192.916,228.794 191.627,227.928 190.895 C 227.063 190.164,225.497 188.875,224.449 188.031 C 223.401 187.187,221.882 185.944,221.074 185.269 C 219.683 184.107,219.174 183.686,216.816 181.739 C 214.325 179.684,214.435 180.644,214.430 160.972 L 214.425 144.246 206.957 144.246 L 199.488 144.246 199.488 150.756 C 199.488 158.366,199.432 158.690,197.830 160.246 C 196.896 161.153,195.402 161.841,194.368 161.841 C 192.916 161.841,190.910 160.554,186.579 156.845 C 186.175 156.498,185.667 156.077,185.451 155.908 C 184.991 155.548,182.688 153.648,179.747 151.202 C 178.598 150.246,176.756 148.726,175.655 147.826 C 173.719 146.243,171.051 144.041,168.477 141.902 C 167.794 141.334,166.834 140.547,166.344 140.153 C 165.853 139.760,165.077 139.129,164.619 138.752 C 163.784 138.065,163.489 137.821,160.591 135.412 C 159.734 134.700,158.132 133.381,157.030 132.481 C 155.206 130.990,152.627 128.852,151.456 127.860 C 150.897 127.386,151.024 127.367,150.262 128.037 M308.670 129.797 C 309.106 129.953,312.985 132.433,317.290 135.308 L 325.117 140.536 333.045 135.256 C 337.405 132.353,341.318 129.854,341.741 129.704 C 343.798 128.973,346.390 130.910,346.393 133.180 C 346.394 133.915,342.405 145.278,340.892 148.849 C 340.797 149.074,340.374 150.179,339.952 151.304 C 339.530 152.430,339.111 153.535,339.021 153.760 C 338.931 153.985,338.608 154.859,338.305 155.703 C 337.659 157.497,337.528 157.845,337.192 158.670 C 337.055 159.008,335.662 162.737,334.096 166.957 C 332.531 171.176,331.171 174.813,331.074 175.038 C 330.977 175.263,330.553 176.368,330.131 177.494 C 329.709 178.619,329.291 179.724,329.202 179.949 C 329.113 180.174,328.887 180.772,328.699 181.279 C 327.367 184.873,322.874 184.850,321.479 181.241 C 321.248 180.643,320.716 179.233,320.296 178.107 C 319.877 176.982,319.419 175.785,319.279 175.448 C 319.139 175.110,317.901 171.795,316.527 168.082 C 314.216 161.834,313.266 159.298,312.850 158.261 C 312.759 158.036,312.361 156.977,311.964 155.908 C 310.219 151.205,309.708 149.847,309.540 149.463 C 308.137 146.251,303.836 134.005,303.837 133.224 C 303.839 130.734,306.335 128.964,308.670 129.797 " stroke="none" fill="#acdcdc" fill-rule="evenodd"></path><path id="path4" d="M306.327 132.238 C 305.769 132.833,305.765 133.547,306.313 134.898 C 306.549 135.482,306.813 136.143,306.899 136.368 C 307.225 137.221,308.544 140.744,309.273 142.711 C 309.690 143.836,310.146 145.033,310.286 145.371 C 310.426 145.708,311.851 149.529,313.453 153.862 C 315.054 158.194,316.479 162.015,316.619 162.353 C 316.759 162.691,317.209 163.864,317.618 164.962 C 318.028 166.059,318.698 167.854,319.108 168.951 C 319.518 170.049,319.967 171.223,320.107 171.560 C 320.247 171.898,321.121 174.228,322.049 176.739 C 323.896 181.736,324.104 182.051,325.401 181.808 C 326.246 181.649,326.475 181.310,327.352 178.926 C 328.070 176.972,328.925 174.694,329.195 174.015 C 329.284 173.790,329.703 172.685,330.125 171.560 C 330.547 170.435,330.966 169.330,331.056 169.105 C 331.146 168.880,331.470 168.005,331.775 167.161 C 332.081 166.317,332.446 165.350,332.587 165.013 C 332.727 164.675,333.966 161.361,335.340 157.647 C 337.612 151.505,338.562 148.967,339.016 147.826 C 339.224 147.303,340.418 144.121,341.396 141.483 C 341.813 140.358,342.270 139.161,342.411 138.824 C 344.280 134.352,344.586 132.712,343.672 132.072 C 342.722 131.406,342.377 131.589,333.666 137.406 L 325.217 143.048 324.516 142.675 C 324.131 142.470,323.716 142.206,323.596 142.090 C 323.475 141.973,323.008 141.655,322.558 141.384 C 322.107 141.113,321.693 140.835,321.637 140.767 C 321.581 140.699,321.166 140.423,320.716 140.153 C 320.266 139.884,319.852 139.612,319.795 139.550 C 319.739 139.488,318.358 138.562,316.726 137.494 C 315.095 136.425,313.714 135.500,313.657 135.437 C 313.601 135.375,313.187 135.103,312.737 134.834 C 312.286 134.564,311.872 134.291,311.816 134.227 C 310.364 132.571,307.119 131.396,306.327 132.238 M126.854 207.048 C 118.919 208.862,113.823 215.337,113.883 223.529 C 113.922 228.862,116.002 232.601,123.890 241.522 C 124.792 242.542,125.793 243.698,126.116 244.092 C 128.392 246.870,144.367 263.322,148.599 267.245 L 150.599 269.100 151.668 268.123 C 152.256 267.586,155.821 264.137,159.591 260.460 C 169.845 250.458,177.858 241.999,182.074 236.726 C 182.929 235.657,183.819 234.506,184.052 234.169 C 184.285 233.831,184.888 232.957,185.392 232.225 C 187.057 229.810,187.718 228.030,188.006 225.188 C 189.494 210.504,173.063 201.342,161.364 210.332 C 158.933 212.201,156.541 215.628,155.895 218.169 C 154.523 223.561,147.340 223.149,145.899 217.596 C 144.072 210.554,134.561 205.287,126.854 207.048 " stroke="none" fill="#f45c5c" fill-rule="evenodd"></path></g></svg>