<svg width="208" height="184" viewBox="0 0 208 184" fill="none" xmlns="http://www.w3.org/2000/svg">
<path fill-rule="evenodd" clip-rule="evenodd" d="M139.989 26.3946C138.067 29.5554 134.876 31.5359 130.307 32.2348C132.414 34.2218 135.238 35.4971 138.294 35.8412C122.253 62.3055 126.154 78.8365 141.493 95.7023L135.542 93.9866L139.157 99.74C110.953 116.909 67.5331 118.063 32.3615 107.572L38.9426 102.052L27.0471 104.935C37.8631 91.528 27.5293 65.8004 39.2775 44.5896C50.1256 25.0014 77.3719 16.4446 102.329 18.4569C120.421 19.9149 133.548 27.2035 139.99 26.3946H139.989Z" fill="#494F9B"/>
<path fill-rule="evenodd" clip-rule="evenodd" d="M153.985 119.464C153.254 115.968 144.72 109.555 143.23 105.974C140.146 98.5635 143.069 92.2295 140.018 90.4329C137.894 89.1817 132.562 89.7124 134.462 103.306C128.159 100.997 126.879 105.735 127.044 107.297C124.391 107.428 122.54 111.3 123.82 113.476C122.481 119.877 125.536 121.994 131.067 120.539C134.333 123.814 137.86 124.173 142.765 123.083C142.84 128.812 139.897 131.575 137.895 135.577L131.872 131.097L123.926 141.122C123.926 141.122 134.096 150.64 139.404 149.873C152.14 148.037 154.837 123.543 153.984 119.464H153.985Z" fill="#FFA775"/>
<path d="M137.654 138.552C137.518 138.552 137.388 138.504 137.292 138.419C137.195 138.335 137.14 138.219 137.139 138.099L137.121 135.819C137.121 135.759 137.134 135.7 137.159 135.645C137.184 135.589 137.222 135.539 137.269 135.496C137.317 135.454 137.373 135.42 137.436 135.397C137.498 135.373 137.565 135.361 137.632 135.361H137.636C137.772 135.361 137.902 135.409 137.999 135.493C138.095 135.578 138.15 135.693 138.151 135.813L138.169 138.093C138.17 138.153 138.157 138.212 138.132 138.268C138.106 138.323 138.069 138.374 138.021 138.416C137.974 138.459 137.917 138.493 137.855 138.516C137.793 138.539 137.726 138.551 137.658 138.552H137.654Z" fill="#29263B"/>
<path fill-rule="evenodd" clip-rule="evenodd" d="M106.76 115.78C106.76 115.78 114.253 118.258 116.666 119.428C122.029 122.031 137.776 134.296 137.776 134.296C133.56 136.381 128.291 141.677 126.588 146.66L132.159 170.417C124.85 180.235 83.4746 183.432 77.3943 176.906C74.229 168.244 69.4009 163.486 60.5979 160.566C60.5979 160.566 60.6266 141.055 68.7615 128.734C72.6224 122.887 81.9786 116.582 81.9786 116.582L106.76 115.779V115.78Z" fill="#8ED8AA"/>
<path d="M126.11 146.534C125.992 146.534 125.877 146.498 125.786 146.432C125.694 146.367 125.631 146.275 125.606 146.173C124.612 142.238 123.299 138.372 121.679 134.604C121.634 134.491 121.641 134.368 121.699 134.26C121.757 134.152 121.859 134.068 121.986 134.027C122.112 133.985 122.252 133.989 122.375 134.038C122.498 134.087 122.595 134.176 122.644 134.287C124.286 138.096 125.613 142.004 126.614 145.983C126.628 146.042 126.629 146.102 126.617 146.161C126.604 146.22 126.579 146.276 126.542 146.326C126.505 146.376 126.458 146.42 126.402 146.454C126.346 146.487 126.284 146.511 126.217 146.524C126.182 146.53 126.146 146.534 126.11 146.534Z" fill="#29263B"/>
<path fill-rule="evenodd" clip-rule="evenodd" d="M106.966 114.438L109.972 116.15C109.972 116.15 117.376 127.521 110.448 130.097C104.863 132.171 98.5257 127.644 98.5257 127.644C98.5257 127.644 94.6632 133.753 87.493 132.994C79.168 132.111 77.6704 117.854 77.6704 117.854L81.1032 115.425L106.966 114.438Z" fill="white"/>
<path fill-rule="evenodd" clip-rule="evenodd" d="M78.1045 161.127C72.7522 162.817 64.966 161.981 60.6175 159.59C59.8904 166.582 59.8928 172.786 60.6857 178.138C65.122 180.403 71.3977 180.577 78.7214 178.85C77.3341 172.955 77.2908 167.177 78.1045 161.128V161.127Z" fill="#FFA775"/>
<path d="M78.1376 161.571C78.1143 161.571 78.0915 161.57 78.0686 161.567C78.0016 161.559 77.9367 161.539 77.8785 161.51C77.8198 161.479 77.7686 161.439 77.7275 161.392C77.6867 161.344 77.6567 161.29 77.6393 161.232C77.6218 161.174 77.6176 161.114 77.6268 161.055C78.1676 157.479 79.0724 154.485 80.3096 152.156C80.337 152.101 80.377 152.05 80.4269 152.008C80.4768 151.967 80.5359 151.934 80.6004 151.913C80.6648 151.891 80.7331 151.882 80.8017 151.884C80.8708 151.887 80.9382 151.901 81.0001 151.927C81.0625 151.953 81.1183 151.99 81.164 152.035C81.2102 152.08 81.2456 152.133 81.268 152.191C81.2905 152.248 81.2997 152.309 81.2951 152.369C81.2905 152.43 81.2722 152.489 81.2414 152.544C80.0492 154.789 79.176 157.693 78.6472 161.176C78.6306 161.286 78.5699 161.386 78.4763 161.458C78.3822 161.531 78.262 161.571 78.1376 161.571Z" fill="#29263B"/>
<path fill-rule="evenodd" clip-rule="evenodd" d="M122.346 40.5254C122.346 40.5254 141.981 66.415 140.21 82.5878C138.334 99.7237 114.548 104.14 102.111 104.646C100.23 109.783 102.202 114.475 107.077 116.26C105.641 120.304 102.719 123.807 98.7758 126.215C93.585 124.689 88.0243 121.615 82.0002 116.603C87.0575 114.931 89.9936 107.922 80.1606 94.7303C62.3529 102.142 54.9257 79.083 74.3782 81.6582C69.1296 72.8325 65.2109 64.643 62.8917 54.7254L71.1576 49.0277L70.2694 39.8799L74.1515 47.5292L90.3085 43.15L89.0493 34.6197L94.573 41.5551L110.797 40.0065L108.42 32.7871L115.336 39.8733L122.346 40.5258L122.346 40.5254Z" fill="#FFA775"/>
<path fill-rule="evenodd" clip-rule="evenodd" d="M93.0176 103.75C93.9028 106.306 96.4666 108.928 101.499 109.602C101.296 107.929 101.505 106.237 102.113 104.643C99.2226 104.736 96.415 104.417 93.0176 103.75Z" fill="#F08855"/>
<path d="M118.779 70.0555C118.705 70.0551 118.632 70.0412 118.565 70.0136C118.498 69.9863 118.438 69.9466 118.389 69.8973C118.341 69.848 118.305 69.7898 118.285 69.7269C118.264 69.6643 118.258 69.5984 118.269 69.5337C118.773 66.4969 118.382 64.4862 117.107 63.5574C115.831 62.6285 113.529 62.6705 110.271 63.6873C110.207 63.709 110.139 63.7193 110.07 63.7171C110.001 63.7149 109.933 63.7009 109.871 63.6751C109.809 63.6497 109.753 63.6133 109.707 63.5684C109.66 63.5235 109.625 63.4709 109.602 63.4135C109.579 63.3561 109.569 63.2953 109.573 63.2346C109.577 63.1739 109.595 63.1143 109.626 63.0598C109.656 63.0054 109.698 62.9568 109.75 62.917C109.802 62.8773 109.863 62.8471 109.928 62.8284C113.602 61.6824 116.164 61.6905 117.762 62.8541C119.36 64.0177 119.856 66.2445 119.288 69.6662C119.27 69.7744 119.209 69.873 119.115 69.9444C119.022 70.0158 118.902 70.0551 118.779 70.0555Z" fill="#29263B"/>
<path fill-rule="evenodd" clip-rule="evenodd" d="M114.699 80.5782C117.852 81.0349 118.225 88.2507 113.245 88.0486C108.266 87.8466 110.11 79.9125 114.699 80.5782Z" fill="#971B1B"/>
<path d="M76.805 54.9322C76.7027 54.9322 76.6004 54.9208 76.5009 54.8987C76.1831 54.8273 75.9106 54.6473 75.743 54.3982C75.5753 54.1491 75.5263 53.8513 75.6065 53.5702C76.9282 48.9536 80.2154 46.4873 85.1126 46.438C85.4387 46.4387 85.752 46.5521 85.9849 46.7541C86.2179 46.9558 86.3527 47.2303 86.3606 47.5188C86.3635 47.8084 86.2366 48.0874 86.0078 48.2942C85.7786 48.5014 85.4662 48.6195 85.1388 48.6228C81.3286 48.6596 79.0606 50.4032 78.0002 54.106C77.9332 54.3415 77.7793 54.5509 77.5626 54.7003C77.3463 54.8501 77.0796 54.9314 76.805 54.9322Z" fill="#29263B"/>
<path d="M122.548 49.009C122.301 49.009 122.059 48.9435 121.854 48.8206C121.65 48.6977 121.491 48.5232 121.4 48.3197C121.161 47.739 120.776 47.2142 120.273 46.7855C119.77 46.3572 119.163 46.0359 118.498 45.8468C117.989 45.7209 117.453 45.7032 116.934 45.7956C116.416 45.8876 115.929 46.0871 115.514 46.377C115.254 46.5526 114.925 46.6295 114.6 46.5905C114.274 46.5515 113.98 46.3999 113.782 46.1691C113.583 45.9384 113.496 45.6473 113.541 45.3595C113.585 45.0721 113.756 44.8119 114.017 44.6364C114.733 44.1392 115.572 43.7985 116.466 43.6428C117.359 43.4871 118.282 43.5203 119.158 43.74C120.19 44.0193 121.135 44.5043 121.922 45.1579C122.709 45.8111 123.316 46.6155 123.696 47.509C123.77 47.675 123.798 47.8542 123.776 48.0316C123.754 48.209 123.683 48.379 123.57 48.5265C123.457 48.6745 123.305 48.7955 123.126 48.8791C122.948 48.963 122.75 49.0068 122.548 49.0071V49.009Z" fill="#29263B"/>
<path fill-rule="evenodd" clip-rule="evenodd" d="M85.0836 55.0087C83.6792 55.4083 83.2727 57.7528 84.1767 60.2401C85.0807 62.7275 86.9568 64.4232 88.3629 64.0232C89.769 63.6232 90.1733 61.2786 89.2694 58.7913C88.3654 56.304 86.4892 54.6086 85.0836 55.0087Z" fill="#29263B"/>
<path d="M75.3134 90.5283C75.2435 90.5283 75.174 90.5158 75.1095 90.4915C75.0451 90.4669 74.9872 90.4312 74.939 90.3859C72.5241 88.1312 69.5817 87.3315 65.943 87.9428C65.876 87.9553 65.8069 87.9556 65.7395 87.9442C65.6722 87.9328 65.6081 87.9096 65.5511 87.8762C65.4941 87.8427 65.4454 87.7992 65.4076 87.7488C65.3697 87.6984 65.3435 87.6414 65.3306 87.5821C65.3177 87.5225 65.3186 87.4614 65.3331 87.4022C65.3473 87.3426 65.3747 87.2866 65.4138 87.2369C65.4529 87.1869 65.5028 87.1446 65.5607 87.1122C65.6185 87.0798 65.6834 87.0577 65.7508 87.0478C69.7061 86.3828 73.0487 87.2962 75.6865 89.7592C75.7556 89.824 75.8018 89.9053 75.8196 89.9929C75.8371 90.0805 75.8251 90.171 75.7855 90.2527C75.7456 90.3344 75.6795 90.4043 75.5954 90.4533C75.5114 90.5022 75.4128 90.5283 75.3121 90.5283H75.3134Z" fill="#29263B"/>
<path fill-rule="evenodd" clip-rule="evenodd" d="M119.218 50.0723C117.924 50.3634 117.425 52.5235 118.106 54.8931C118.787 57.2626 120.391 58.9484 121.687 58.6562C122.983 58.364 123.479 56.2061 122.799 53.8373C122.12 51.4685 120.514 49.7815 119.218 50.0723Z" fill="#29263B"/>
<path d="M123.96 113.963C123.876 113.963 123.793 113.945 123.719 113.91C123.644 113.875 123.581 113.824 123.533 113.762C123.486 113.701 123.457 113.63 123.448 113.556C123.439 113.481 123.451 113.407 123.482 113.337C123.653 112.937 123.914 112.572 124.251 112.264C124.587 111.957 124.991 111.713 125.437 111.549C126.883 111.008 128.867 111.163 131.178 111.999C131.242 112.021 131.3 112.053 131.35 112.095C131.399 112.137 131.438 112.188 131.465 112.243C131.492 112.299 131.506 112.359 131.507 112.419C131.507 112.48 131.494 112.54 131.469 112.596C131.442 112.652 131.404 112.703 131.356 112.746C131.308 112.788 131.25 112.822 131.187 112.845C131.123 112.868 131.056 112.88 130.987 112.879C130.919 112.878 130.851 112.866 130.788 112.842C128.768 112.111 127.009 111.949 125.838 112.388C125.517 112.507 125.227 112.682 124.986 112.904C124.744 113.125 124.557 113.388 124.435 113.676C124.397 113.76 124.332 113.833 124.247 113.884C124.162 113.935 124.063 113.963 123.96 113.963Z" fill="#29263B"/>
<path d="M130.858 120.792C130.788 120.792 130.719 120.779 130.654 120.755C130.59 120.731 130.532 120.695 130.484 120.65C129.927 120.147 129.487 119.553 129.19 118.9C128.893 118.247 128.745 117.549 128.753 116.845C128.76 116.725 128.819 116.612 128.918 116.53C129.017 116.448 129.148 116.402 129.284 116.403C129.352 116.405 129.419 116.419 129.48 116.443C129.542 116.468 129.598 116.503 129.644 116.547C129.691 116.591 129.727 116.642 129.751 116.698C129.775 116.754 129.786 116.813 129.784 116.873C129.776 118.051 130.297 119.184 131.232 120.022C131.301 120.087 131.347 120.168 131.365 120.256C131.383 120.344 131.371 120.434 131.331 120.516C131.291 120.598 131.225 120.668 131.141 120.717C131.057 120.766 130.958 120.791 130.857 120.791L130.858 120.792Z" fill="#29263B"/>
<path d="M131.678 108.755C131.597 108.755 131.518 108.738 131.446 108.706C129.563 107.864 127.993 107.534 127.14 107.802C127.011 107.843 126.87 107.836 126.747 107.784C126.623 107.732 126.528 107.639 126.482 107.525C126.437 107.411 126.445 107.286 126.503 107.177C126.562 107.068 126.667 106.984 126.796 106.943C128.249 106.487 130.38 107.208 131.91 107.893C132.014 107.939 132.097 108.015 132.146 108.108C132.195 108.2 132.207 108.305 132.18 108.405C132.153 108.505 132.088 108.593 131.997 108.657C131.906 108.72 131.794 108.755 131.678 108.755Z" fill="#29263B"/>
<path fill-rule="evenodd" clip-rule="evenodd" d="M144.885 15.3001C144.852 9.19536 150.212 3.89506 162.212 3.68456C174.212 3.47407 182.222 10.1246 180.787 15.2721C178.915 21.9893 165.879 23.8756 166.091 30.9618C166.123 32.0397 158.187 31.9425 158.187 30.8639C158.005 23.8057 173.839 20.3951 174.079 15.1404C174.287 10.5338 170.034 8.038 162.279 8.038C156.891 8.038 152.363 10.4933 151.966 15.2468C151.898 16.2518 144.894 16.3081 144.887 15.302L144.885 15.3001Z" fill="#E1B100"/>
<path fill-rule="evenodd" clip-rule="evenodd" d="M162.095 34.311C165.118 34.311 167.574 35.7492 167.574 37.5218C167.574 39.2945 165.119 40.7315 162.095 40.7315C159.07 40.7315 156.616 39.2934 156.616 37.5218C156.616 35.7503 159.071 34.311 162.095 34.311Z" fill="#E1B100"/>
</svg>
